<?xml version="1.0" encoding="utf-8" standalone="no"?>
<!DOCTYPE svg PUBLIC "-//W3C//DTD SVG 1.1//EN"
  "http://www.w3.org/Graphics/SVG/1.1/DTD/svg11.dtd">
<svg xmlns:xlink="http://www.w3.org/1999/xlink" width="312.064775pt" height="328.210187pt" viewBox="0 0 312.064775 328.210187" xmlns="http://www.w3.org/2000/svg" version="1.1">
 <metadata>
  <rdf:RDF xmlns:dc="http://purl.org/dc/elements/1.1/" xmlns:cc="http://creativecommons.org/ns#" xmlns:rdf="http://www.w3.org/1999/02/22-rdf-syntax-ns#">
   <cc:Work>
    <dc:type rdf:resource="http://purl.org/dc/dcmitype/StillImage"/>
    <dc:date>2023-06-14T14:39:54.555739</dc:date>
    <dc:format>image/svg+xml</dc:format>
    <dc:creator>
     <cc:Agent>
      <dc:title>Matplotlib v3.6.0, https://matplotlib.org/</dc:title>
     </cc:Agent>
    </dc:creator>
   </cc:Work>
  </rdf:RDF>
 </metadata>
 <defs>
  <style type="text/css">*{stroke-linejoin: round; stroke-linecap: butt}</style>
 </defs>
 <g id="figure_1">
  <g id="patch_1">
   <path d="M 0 328.210187 
L 312.064775 328.210187 
L 312.064775 0 
L 0 0 
L 0 328.210187 
z
" style="fill: none"/>
  </g>
  <g id="axes_1">
   <g id="patch_2">
    <path d="M 49.470625 179.759062 
L 258.051025 179.759062 
L 258.051025 11.759062 
L 49.470625 11.759062 
L 49.470625 179.759062 
z
" style="fill: none"/>
   </g>
   <g id="matplotlib.axis_1">
    <g id="xtick_1">
     <g id="line2d_1"/>
    </g>
    <g id="xtick_2">
     <g id="line2d_2"/>
    </g>
   </g>
   <g id="matplotlib.axis_2">
    <g id="ytick_1">
     <g id="line2d_3">
      <path d="M 49.470625 179.759062 
L 258.051025 179.759062 
" clip-path="url(#pcae22b84b5)" style="fill: none; stroke: #b0b0b0; stroke-width: 0.8; stroke-linecap: round"/>
     </g>
     <g id="line2d_4">
      <defs>
       <path id="m5fca26c4f3" d="M 0 0 
L -3.5 0 
" style="stroke: #000000; stroke-width: 0.8"/>
      </defs>
      <g>
       <use xlink:href="#m5fca26c4f3" x="49.470625" y="179.759062" style="stroke: #000000; stroke-width: 0.8"/>
      </g>
     </g>
     <g id="text_1">
      <!-- 0 -->
      <g transform="translate(34.835625 184.318125) scale(0.12 -0.12)">
       <defs>
        <path id="DejaVuSans-30" d="M 2034 4250 
Q 1547 4250 1301 3770 
Q 1056 3291 1056 2328 
Q 1056 1369 1301 889 
Q 1547 409 2034 409 
Q 2525 409 2770 889 
Q 3016 1369 3016 2328 
Q 3016 3291 2770 3770 
Q 2525 4250 2034 4250 
z
M 2034 4750 
Q 2819 4750 3233 4129 
Q 3647 3509 3647 2328 
Q 3647 1150 3233 529 
Q 2819 -91 2034 -91 
Q 1250 -91 836 529 
Q 422 1150 422 2328 
Q 422 3509 836 4129 
Q 1250 4750 2034 4750 
z
" transform="scale(0.015625)"/>
       </defs>
       <use xlink:href="#DejaVuSans-30"/>
      </g>
     </g>
    </g>
    <g id="ytick_2">
     <g id="line2d_5">
      <path d="M 49.470625 137.759062 
L 258.051025 137.759062 
" clip-path="url(#pcae22b84b5)" style="fill: none; stroke: #b0b0b0; stroke-width: 0.8; stroke-linecap: round"/>
     </g>
     <g id="line2d_6">
      <g>
       <use xlink:href="#m5fca26c4f3" x="49.470625" y="137.759062" style="stroke: #000000; stroke-width: 0.8"/>
      </g>
     </g>
     <g id="text_2">
      <!-- 20 -->
      <g transform="translate(27.200625 142.318125) scale(0.12 -0.12)">
       <defs>
        <path id="DejaVuSans-32" d="M 1228 531 
L 3431 531 
L 3431 0 
L 469 0 
L 469 531 
Q 828 903 1448 1529 
Q 2069 2156 2228 2338 
Q 2531 2678 2651 2914 
Q 2772 3150 2772 3378 
Q 2772 3750 2511 3984 
Q 2250 4219 1831 4219 
Q 1534 4219 1204 4116 
Q 875 4013 500 3803 
L 500 4441 
Q 881 4594 1212 4672 
Q 1544 4750 1819 4750 
Q 2544 4750 2975 4387 
Q 3406 4025 3406 3419 
Q 3406 3131 3298 2873 
Q 3191 2616 2906 2266 
Q 2828 2175 2409 1742 
Q 1991 1309 1228 531 
z
" transform="scale(0.015625)"/>
       </defs>
       <use xlink:href="#DejaVuSans-32"/>
       <use xlink:href="#DejaVuSans-30" x="63.623047"/>
      </g>
     </g>
    </g>
    <g id="ytick_3">
     <g id="line2d_7">
      <path d="M 49.470625 95.759062 
L 258.051025 95.759062 
" clip-path="url(#pcae22b84b5)" style="fill: none; stroke: #b0b0b0; stroke-width: 0.8; stroke-linecap: round"/>
     </g>
     <g id="line2d_8">
      <g>
       <use xlink:href="#m5fca26c4f3" x="49.470625" y="95.759062" style="stroke: #000000; stroke-width: 0.8"/>
      </g>
     </g>
     <g id="text_3">
      <!-- 40 -->
      <g transform="translate(27.200625 100.318125) scale(0.12 -0.12)">
       <defs>
        <path id="DejaVuSans-34" d="M 2419 4116 
L 825 1625 
L 2419 1625 
L 2419 4116 
z
M 2253 4666 
L 3047 4666 
L 3047 1625 
L 3713 1625 
L 3713 1100 
L 3047 1100 
L 3047 0 
L 2419 0 
L 2419 1100 
L 313 1100 
L 313 1709 
L 2253 4666 
z
" transform="scale(0.015625)"/>
       </defs>
       <use xlink:href="#DejaVuSans-34"/>
       <use xlink:href="#DejaVuSans-30" x="63.623047"/>
      </g>
     </g>
    </g>
    <g id="ytick_4">
     <g id="line2d_9">
      <path d="M 49.470625 53.759062 
L 258.051025 53.759062 
" clip-path="url(#pcae22b84b5)" style="fill: none; stroke: #b0b0b0; stroke-width: 0.8; stroke-linecap: round"/>
     </g>
     <g id="line2d_10">
      <g>
       <use xlink:href="#m5fca26c4f3" x="49.470625" y="53.759062" style="stroke: #000000; stroke-width: 0.8"/>
      </g>
     </g>
     <g id="text_4">
      <!-- 60 -->
      <g transform="translate(27.200625 58.318125) scale(0.12 -0.12)">
       <defs>
        <path id="DejaVuSans-36" d="M 2113 2584 
Q 1688 2584 1439 2293 
Q 1191 2003 1191 1497 
Q 1191 994 1439 701 
Q 1688 409 2113 409 
Q 2538 409 2786 701 
Q 3034 994 3034 1497 
Q 3034 2003 2786 2293 
Q 2538 2584 2113 2584 
z
M 3366 4563 
L 3366 3988 
Q 3128 4100 2886 4159 
Q 2644 4219 2406 4219 
Q 1781 4219 1451 3797 
Q 1122 3375 1075 2522 
Q 1259 2794 1537 2939 
Q 1816 3084 2150 3084 
Q 2853 3084 3261 2657 
Q 3669 2231 3669 1497 
Q 3669 778 3244 343 
Q 2819 -91 2113 -91 
Q 1303 -91 875 529 
Q 447 1150 447 2328 
Q 447 3434 972 4092 
Q 1497 4750 2381 4750 
Q 2619 4750 2861 4703 
Q 3103 4656 3366 4563 
z
" transform="scale(0.015625)"/>
       </defs>
       <use xlink:href="#DejaVuSans-36"/>
       <use xlink:href="#DejaVuSans-30" x="63.623047"/>
      </g>
     </g>
    </g>
    <g id="ytick_5">
     <g id="line2d_11">
      <path d="M 49.470625 11.759062 
L 258.051025 11.759062 
" clip-path="url(#pcae22b84b5)" style="fill: none; stroke: #b0b0b0; stroke-width: 0.8; stroke-linecap: round"/>
     </g>
     <g id="line2d_12">
      <g>
       <use xlink:href="#m5fca26c4f3" x="49.470625" y="11.759062" style="stroke: #000000; stroke-width: 0.8"/>
      </g>
     </g>
     <g id="text_5">
      <!-- 80 -->
      <g transform="translate(27.200625 16.318125) scale(0.12 -0.12)">
       <defs>
        <path id="DejaVuSans-38" d="M 2034 2216 
Q 1584 2216 1326 1975 
Q 1069 1734 1069 1313 
Q 1069 891 1326 650 
Q 1584 409 2034 409 
Q 2484 409 2743 651 
Q 3003 894 3003 1313 
Q 3003 1734 2745 1975 
Q 2488 2216 2034 2216 
z
M 1403 2484 
Q 997 2584 770 2862 
Q 544 3141 544 3541 
Q 544 4100 942 4425 
Q 1341 4750 2034 4750 
Q 2731 4750 3128 4425 
Q 3525 4100 3525 3541 
Q 3525 3141 3298 2862 
Q 3072 2584 2669 2484 
Q 3125 2378 3379 2068 
Q 3634 1759 3634 1313 
Q 3634 634 3220 271 
Q 2806 -91 2034 -91 
Q 1263 -91 848 271 
Q 434 634 434 1313 
Q 434 1759 690 2068 
Q 947 2378 1403 2484 
z
M 1172 3481 
Q 1172 3119 1398 2916 
Q 1625 2713 2034 2713 
Q 2441 2713 2670 2916 
Q 2900 3119 2900 3481 
Q 2900 3844 2670 4047 
Q 2441 4250 2034 4250 
Q 1625 4250 1398 4047 
Q 1172 3844 1172 3481 
z
" transform="scale(0.015625)"/>
       </defs>
       <use xlink:href="#DejaVuSans-38"/>
       <use xlink:href="#DejaVuSans-30" x="63.623047"/>
      </g>
     </g>
    </g>
    <g id="text_6">
     <!-- Strength (a.u.) -->
     <g transform="translate(17.868437 146.897344) rotate(-90) scale(0.14 -0.14)">
      <defs>
       <path id="DejaVuSans-53" d="M 3425 4513 
L 3425 3897 
Q 3066 4069 2747 4153 
Q 2428 4238 2131 4238 
Q 1616 4238 1336 4038 
Q 1056 3838 1056 3469 
Q 1056 3159 1242 3001 
Q 1428 2844 1947 2747 
L 2328 2669 
Q 3034 2534 3370 2195 
Q 3706 1856 3706 1288 
Q 3706 609 3251 259 
Q 2797 -91 1919 -91 
Q 1588 -91 1214 -16 
Q 841 59 441 206 
L 441 856 
Q 825 641 1194 531 
Q 1563 422 1919 422 
Q 2459 422 2753 634 
Q 3047 847 3047 1241 
Q 3047 1584 2836 1778 
Q 2625 1972 2144 2069 
L 1759 2144 
Q 1053 2284 737 2584 
Q 422 2884 422 3419 
Q 422 4038 858 4394 
Q 1294 4750 2059 4750 
Q 2388 4750 2728 4690 
Q 3069 4631 3425 4513 
z
" transform="scale(0.015625)"/>
       <path id="DejaVuSans-74" d="M 1172 4494 
L 1172 3500 
L 2356 3500 
L 2356 3053 
L 1172 3053 
L 1172 1153 
Q 1172 725 1289 603 
Q 1406 481 1766 481 
L 2356 481 
L 2356 0 
L 1766 0 
Q 1100 0 847 248 
Q 594 497 594 1153 
L 594 3053 
L 172 3053 
L 172 3500 
L 594 3500 
L 594 4494 
L 1172 4494 
z
" transform="scale(0.015625)"/>
       <path id="DejaVuSans-72" d="M 2631 2963 
Q 2534 3019 2420 3045 
Q 2306 3072 2169 3072 
Q 1681 3072 1420 2755 
Q 1159 2438 1159 1844 
L 1159 0 
L 581 0 
L 581 3500 
L 1159 3500 
L 1159 2956 
Q 1341 3275 1631 3429 
Q 1922 3584 2338 3584 
Q 2397 3584 2469 3576 
Q 2541 3569 2628 3553 
L 2631 2963 
z
" transform="scale(0.015625)"/>
       <path id="DejaVuSans-65" d="M 3597 1894 
L 3597 1613 
L 953 1613 
Q 991 1019 1311 708 
Q 1631 397 2203 397 
Q 2534 397 2845 478 
Q 3156 559 3463 722 
L 3463 178 
Q 3153 47 2828 -22 
Q 2503 -91 2169 -91 
Q 1331 -91 842 396 
Q 353 884 353 1716 
Q 353 2575 817 3079 
Q 1281 3584 2069 3584 
Q 2775 3584 3186 3129 
Q 3597 2675 3597 1894 
z
M 3022 2063 
Q 3016 2534 2758 2815 
Q 2500 3097 2075 3097 
Q 1594 3097 1305 2825 
Q 1016 2553 972 2059 
L 3022 2063 
z
" transform="scale(0.015625)"/>
       <path id="DejaVuSans-6e" d="M 3513 2113 
L 3513 0 
L 2938 0 
L 2938 2094 
Q 2938 2591 2744 2837 
Q 2550 3084 2163 3084 
Q 1697 3084 1428 2787 
Q 1159 2491 1159 1978 
L 1159 0 
L 581 0 
L 581 3500 
L 1159 3500 
L 1159 2956 
Q 1366 3272 1645 3428 
Q 1925 3584 2291 3584 
Q 2894 3584 3203 3211 
Q 3513 2838 3513 2113 
z
" transform="scale(0.015625)"/>
       <path id="DejaVuSans-67" d="M 2906 1791 
Q 2906 2416 2648 2759 
Q 2391 3103 1925 3103 
Q 1463 3103 1205 2759 
Q 947 2416 947 1791 
Q 947 1169 1205 825 
Q 1463 481 1925 481 
Q 2391 481 2648 825 
Q 2906 1169 2906 1791 
z
M 3481 434 
Q 3481 -459 3084 -895 
Q 2688 -1331 1869 -1331 
Q 1566 -1331 1297 -1286 
Q 1028 -1241 775 -1147 
L 775 -588 
Q 1028 -725 1275 -790 
Q 1522 -856 1778 -856 
Q 2344 -856 2625 -561 
Q 2906 -266 2906 331 
L 2906 616 
Q 2728 306 2450 153 
Q 2172 0 1784 0 
Q 1141 0 747 490 
Q 353 981 353 1791 
Q 353 2603 747 3093 
Q 1141 3584 1784 3584 
Q 2172 3584 2450 3431 
Q 2728 3278 2906 2969 
L 2906 3500 
L 3481 3500 
L 3481 434 
z
" transform="scale(0.015625)"/>
       <path id="DejaVuSans-68" d="M 3513 2113 
L 3513 0 
L 2938 0 
L 2938 2094 
Q 2938 2591 2744 2837 
Q 2550 3084 2163 3084 
Q 1697 3084 1428 2787 
Q 1159 2491 1159 1978 
L 1159 0 
L 581 0 
L 581 4863 
L 1159 4863 
L 1159 2956 
Q 1366 3272 1645 3428 
Q 1925 3584 2291 3584 
Q 2894 3584 3203 3211 
Q 3513 2838 3513 2113 
z
" transform="scale(0.015625)"/>
       <path id="DejaVuSans-20" transform="scale(0.015625)"/>
       <path id="DejaVuSans-28" d="M 1984 4856 
Q 1566 4138 1362 3434 
Q 1159 2731 1159 2009 
Q 1159 1288 1364 580 
Q 1569 -128 1984 -844 
L 1484 -844 
Q 1016 -109 783 600 
Q 550 1309 550 2009 
Q 550 2706 781 3412 
Q 1013 4119 1484 4856 
L 1984 4856 
z
" transform="scale(0.015625)"/>
       <path id="DejaVuSans-61" d="M 2194 1759 
Q 1497 1759 1228 1600 
Q 959 1441 959 1056 
Q 959 750 1161 570 
Q 1363 391 1709 391 
Q 2188 391 2477 730 
Q 2766 1069 2766 1631 
L 2766 1759 
L 2194 1759 
z
M 3341 1997 
L 3341 0 
L 2766 0 
L 2766 531 
Q 2569 213 2275 61 
Q 1981 -91 1556 -91 
Q 1019 -91 701 211 
Q 384 513 384 1019 
Q 384 1609 779 1909 
Q 1175 2209 1959 2209 
L 2766 2209 
L 2766 2266 
Q 2766 2663 2505 2880 
Q 2244 3097 1772 3097 
Q 1472 3097 1187 3025 
Q 903 2953 641 2809 
L 641 3341 
Q 956 3463 1253 3523 
Q 1550 3584 1831 3584 
Q 2591 3584 2966 3190 
Q 3341 2797 3341 1997 
z
" transform="scale(0.015625)"/>
       <path id="DejaVuSans-2e" d="M 684 794 
L 1344 794 
L 1344 0 
L 684 0 
L 684 794 
z
" transform="scale(0.015625)"/>
       <path id="DejaVuSans-75" d="M 544 1381 
L 544 3500 
L 1119 3500 
L 1119 1403 
Q 1119 906 1312 657 
Q 1506 409 1894 409 
Q 2359 409 2629 706 
Q 2900 1003 2900 1516 
L 2900 3500 
L 3475 3500 
L 3475 0 
L 2900 0 
L 2900 538 
Q 2691 219 2414 64 
Q 2138 -91 1772 -91 
Q 1169 -91 856 284 
Q 544 659 544 1381 
z
M 1991 3584 
L 1991 3584 
z
" transform="scale(0.015625)"/>
       <path id="DejaVuSans-29" d="M 513 4856 
L 1013 4856 
Q 1481 4119 1714 3412 
Q 1947 2706 1947 2009 
Q 1947 1309 1714 600 
Q 1481 -109 1013 -844 
L 513 -844 
Q 928 -128 1133 580 
Q 1338 1288 1338 2009 
Q 1338 2731 1133 3434 
Q 928 4138 513 4856 
z
" transform="scale(0.015625)"/>
      </defs>
      <use xlink:href="#DejaVuSans-53"/>
      <use xlink:href="#DejaVuSans-74" x="63.476562"/>
      <use xlink:href="#DejaVuSans-72" x="102.685547"/>
      <use xlink:href="#DejaVuSans-65" x="141.548828"/>
      <use xlink:href="#DejaVuSans-6e" x="203.072266"/>
      <use xlink:href="#DejaVuSans-67" x="266.451172"/>
      <use xlink:href="#DejaVuSans-74" x="329.927734"/>
      <use xlink:href="#DejaVuSans-68" x="369.136719"/>
      <use xlink:href="#DejaVuSans-20" x="432.515625"/>
      <use xlink:href="#DejaVuSans-28" x="464.302734"/>
      <use xlink:href="#DejaVuSans-61" x="503.316406"/>
      <use xlink:href="#DejaVuSans-2e" x="564.595703"/>
      <use xlink:href="#DejaVuSans-75" x="596.382812"/>
      <use xlink:href="#DejaVuSans-2e" x="659.761719"/>
      <use xlink:href="#DejaVuSans-29" x="691.548828"/>
     </g>
    </g>
   </g>
   <g id="patch_3">
    <path d="M 58.951552 179.759062 
L 96.875261 179.759062 
L 96.875261 133.962064 
L 58.951552 133.962064 
z
" clip-path="url(#pcae22b84b5)" style="fill: #c5d6fb; stroke: #6b6b6b; stroke-linejoin: miter"/>
   </g>
   <g id="patch_4">
    <path d="M 96.875261 179.759062 
L 134.79897 179.759062 
L 134.79897 135.026392 
L 96.875261 135.026392 
z
" clip-path="url(#pcae22b84b5)" style="fill: #ff6666; stroke: #6b6b6b; stroke-linejoin: miter"/>
   </g>
   <g id="patch_5">
    <path d="M 58.951552 133.962064 
L 96.875261 133.962064 
L 96.875261 99.531206 
L 58.951552 99.531206 
z
" clip-path="url(#pcae22b84b5)" style="fill: #c5d6fb; stroke: #6b6b6b; stroke-linejoin: miter"/>
   </g>
   <g id="patch_6">
    <path d="M 96.875261 135.026392 
L 134.79897 135.026392 
L 134.79897 99.109198 
L 96.875261 99.109198 
z
" clip-path="url(#pcae22b84b5)" style="fill: #f6c3c2; stroke: #6b6b6b; stroke-linejoin: miter"/>
   </g>
   <g id="patch_7">
    <path d="M 58.951552 99.531206 
L 96.875261 99.531206 
L 96.875261 67.86411 
L 58.951552 67.86411 
z
" clip-path="url(#pcae22b84b5)" style="fill: #c5d6fb; stroke: #6b6b6b; stroke-linejoin: miter"/>
   </g>
   <g id="patch_8">
    <path d="M 96.875261 99.109198 
L 134.79897 99.109198 
L 134.79897 77.873308 
L 96.875261 77.873308 
z
" clip-path="url(#pcae22b84b5)" style="fill: #f6c3c2; stroke: #6b6b6b; stroke-linejoin: miter"/>
   </g>
   <g id="patch_9">
    <path d="M 58.951552 67.86411 
L 96.875261 67.86411 
L 96.875261 57.507672 
L 58.951552 57.507672 
z
" clip-path="url(#pcae22b84b5)" style="fill: #c5d6fb; stroke: #6b6b6b; stroke-linejoin: miter"/>
   </g>
   <g id="patch_10">
    <path d="M 96.875261 77.873308 
L 134.79897 77.873308 
L 134.79897 63.723945 
L 96.875261 63.723945 
z
" clip-path="url(#pcae22b84b5)" style="fill: #f6c3c2; stroke: #6b6b6b; stroke-linejoin: miter"/>
   </g>
   <g id="patch_11">
    <path d="M 58.951552 57.507672 
L 96.875261 57.507672 
L 96.875261 51.090028 
L 58.951552 51.090028 
z
" clip-path="url(#pcae22b84b5)" style="fill: #c5d6fb; stroke: #6b6b6b; stroke-linejoin: miter"/>
   </g>
   <g id="patch_12">
    <path d="M 96.875261 63.723945 
L 134.79897 63.723945 
L 134.79897 51.005377 
L 96.875261 51.005377 
z
" clip-path="url(#pcae22b84b5)" style="fill: #f6c3c2; stroke: #6b6b6b; stroke-linejoin: miter"/>
   </g>
   <g id="patch_13">
    <path d="M 58.951552 51.090028 
L 96.875261 51.090028 
L 96.875261 44.912366 
L 58.951552 44.912366 
z
" clip-path="url(#pcae22b84b5)" style="fill: #c5d6fb; stroke: #6b6b6b; stroke-linejoin: miter"/>
   </g>
   <g id="patch_14">
    <path d="M 96.875261 51.005377 
L 134.79897 51.005377 
L 134.79897 40.152949 
L 96.875261 40.152949 
z
" clip-path="url(#pcae22b84b5)" style="fill: #f6c3c2; stroke: #6b6b6b; stroke-linejoin: miter"/>
   </g>
   <g id="patch_15">
    <path d="M 58.951552 44.912366 
L 96.875261 44.912366 
L 96.875261 41.994994 
L 58.951552 41.994994 
z
" clip-path="url(#pcae22b84b5)" style="fill: #c5d6fb; stroke: #6b6b6b; stroke-linejoin: miter"/>
   </g>
   <g id="patch_16">
    <path d="M 96.875261 40.152949 
L 134.79897 40.152949 
L 134.79897 37.748853 
L 96.875261 37.748853 
z
" clip-path="url(#pcae22b84b5)" style="fill: #f6c3c2; stroke: #6b6b6b; stroke-linejoin: miter"/>
   </g>
   <g id="patch_17">
    <path d="M 58.951552 41.994994 
L 96.875261 41.994994 
L 96.875261 39.246417 
L 58.951552 39.246417 
z
" clip-path="url(#pcae22b84b5)" style="fill: #c5d6fb; stroke: #6b6b6b; stroke-linejoin: miter"/>
   </g>
   <g id="patch_18">
    <path d="M 96.875261 37.748853 
L 134.79897 37.748853 
L 134.79897 35.554839 
L 96.875261 35.554839 
z
" clip-path="url(#pcae22b84b5)" style="fill: #f6c3c2; stroke: #6b6b6b; stroke-linejoin: miter"/>
   </g>
   <g id="patch_19">
    <path d="M 58.951552 39.246417 
L 96.875261 39.246417 
L 96.875261 39.246412 
L 58.951552 39.246412 
z
" clip-path="url(#pcae22b84b5)" style="fill: #c5d6fb; stroke: #6b6b6b; stroke-linejoin: miter"/>
   </g>
   <g id="patch_20">
    <path d="M 96.875261 35.554839 
L 134.79897 35.554839 
L 134.79897 33.668553 
L 96.875261 33.668553 
z
" clip-path="url(#pcae22b84b5)" style="fill: #f6c3c2; stroke: #6b6b6b; stroke-linejoin: miter"/>
   </g>
   <g id="patch_21">
    <path d="M 172.72268 179.759062 
L 210.646389 179.759062 
L 210.646389 133.962064 
L 172.72268 133.962064 
z
" clip-path="url(#pcae22b84b5)" style="fill: #c5d6fb; stroke: #6b6b6b; stroke-linejoin: miter"/>
   </g>
   <g id="patch_22">
    <path d="M 210.646389 179.759062 
L 248.570098 179.759062 
L 248.570098 144.127923 
L 210.646389 144.127923 
z
" clip-path="url(#pcae22b84b5)" style="fill: #f6c3c2; stroke: #6b6b6b; stroke-linejoin: miter"/>
   </g>
   <g id="patch_23">
    <path d="M 172.72268 133.962064 
L 210.646389 133.962064 
L 210.646389 99.468977 
L 172.72268 99.468977 
z
" clip-path="url(#pcae22b84b5)" style="fill: #c5d6fb; stroke: #6b6b6b; stroke-linejoin: miter"/>
   </g>
   <g id="patch_24">
    <path d="M 210.646389 144.127923 
L 248.570098 144.127923 
L 248.570098 112.680046 
L 210.646389 112.680046 
z
" clip-path="url(#pcae22b84b5)" style="fill: #ff6666; stroke: #6b6b6b; stroke-linejoin: miter"/>
   </g>
   <g id="patch_25">
    <path d="M 172.72268 99.468977 
L 210.646389 99.468977 
L 210.646389 67.803665 
L 172.72268 67.803665 
z
" clip-path="url(#pcae22b84b5)" style="fill: #c5d6fb; stroke: #6b6b6b; stroke-linejoin: miter"/>
   </g>
   <g id="patch_26">
    <path d="M 210.646389 112.680046 
L 248.570098 112.680046 
L 248.570098 91.405192 
L 210.646389 91.405192 
z
" clip-path="url(#pcae22b84b5)" style="fill: #f6c3c2; stroke: #6b6b6b; stroke-linejoin: miter"/>
   </g>
   <g id="patch_27">
    <path d="M 172.72268 67.803665 
L 210.646389 67.803665 
L 210.646389 57.447059 
L 172.72268 57.447059 
z
" clip-path="url(#pcae22b84b5)" style="fill: #c5d6fb; stroke: #6b6b6b; stroke-linejoin: miter"/>
   </g>
   <g id="patch_28">
    <path d="M 210.646389 91.405192 
L 248.570098 91.405192 
L 248.570098 74.318931 
L 210.646389 74.318931 
z
" clip-path="url(#pcae22b84b5)" style="fill: #f6c3c2; stroke: #6b6b6b; stroke-linejoin: miter"/>
   </g>
   <g id="patch_29">
    <path d="M 172.72268 57.447059 
L 210.646389 57.447059 
L 210.646389 51.016266 
L 172.72268 51.016266 
z
" clip-path="url(#pcae22b84b5)" style="fill: #c5d6fb; stroke: #6b6b6b; stroke-linejoin: miter"/>
   </g>
   <g id="patch_30">
    <path d="M 210.646389 74.318931 
L 248.570098 74.318931 
L 248.570098 62.452179 
L 210.646389 62.452179 
z
" clip-path="url(#pcae22b84b5)" style="fill: #f6c3c2; stroke: #6b6b6b; stroke-linejoin: miter"/>
   </g>
   <g id="patch_31">
    <path d="M 172.72268 51.016266 
L 210.646389 51.016266 
L 210.646389 44.831563 
L 172.72268 44.831563 
z
" clip-path="url(#pcae22b84b5)" style="fill: #c5d6fb; stroke: #6b6b6b; stroke-linejoin: miter"/>
   </g>
   <g id="patch_32">
    <path d="M 210.646389 62.452179 
L 248.570098 62.452179 
L 248.570098 51.377953 
L 210.646389 51.377953 
z
" clip-path="url(#pcae22b84b5)" style="fill: #f6c3c2; stroke: #6b6b6b; stroke-linejoin: miter"/>
   </g>
   <g id="patch_33">
    <path d="M 172.72268 44.831563 
L 210.646389 44.831563 
L 210.646389 39.427456 
L 172.72268 39.427456 
z
" clip-path="url(#pcae22b84b5)" style="fill: #c5d6fb; stroke: #6b6b6b; stroke-linejoin: miter"/>
   </g>
   <g id="patch_34">
    <path d="M 210.646389 51.377953 
L 248.570098 51.377953 
L 248.570098 49.183799 
L 210.646389 49.183799 
z
" clip-path="url(#pcae22b84b5)" style="fill: #f6c3c2; stroke: #6b6b6b; stroke-linejoin: miter"/>
   </g>
   <g id="patch_35">
    <path d="M 172.72268 39.427456 
L 210.646389 39.427456 
L 210.646389 36.31188 
L 172.72268 36.31188 
z
" clip-path="url(#pcae22b84b5)" style="fill: #c5d6fb; stroke: #6b6b6b; stroke-linejoin: miter"/>
   </g>
   <g id="patch_36">
    <path d="M 210.646389 49.183799 
L 248.570098 49.183799 
L 248.570098 47.190828 
L 210.646389 47.190828 
z
" clip-path="url(#pcae22b84b5)" style="fill: #f6c3c2; stroke: #6b6b6b; stroke-linejoin: miter"/>
   </g>
   <g id="patch_37">
    <path d="M 172.72268 36.31188 
L 210.646389 36.31188 
L 210.646389 36.311875 
L 172.72268 36.311875 
z
" clip-path="url(#pcae22b84b5)" style="fill: #c5d6fb; stroke: #6b6b6b; stroke-linejoin: miter"/>
   </g>
   <g id="patch_38">
    <path d="M 210.646389 47.190828 
L 248.570098 47.190828 
L 248.570098 45.409255 
L 210.646389 45.409255 
z
" clip-path="url(#pcae22b84b5)" style="fill: #f6c3c2; stroke: #6b6b6b; stroke-linejoin: miter"/>
   </g>
   <g id="patch_39">
    <path d="M 49.470625 179.759062 
L 49.470625 11.759062 
" style="fill: none; stroke: #333333; stroke-width: 2; stroke-linejoin: miter; stroke-linecap: square"/>
   </g>
   <g id="patch_40">
    <path d="M 258.051025 179.759062 
L 258.051025 11.759062 
" style="fill: none; stroke: #333333; stroke-width: 2; stroke-linejoin: miter; stroke-linecap: square"/>
   </g>
   <g id="patch_41">
    <path d="M 49.470625 179.759062 
L 258.051025 179.759062 
" style="fill: none; stroke: #333333; stroke-width: 2; stroke-linejoin: miter; stroke-linecap: square"/>
   </g>
  </g>
  <g id="axes_2">
   <g id="patch_42">
    <path d="M 49.470625 288.959062 
L 258.051025 288.959062 
L 258.051025 204.959062 
L 49.470625 204.959062 
L 49.470625 288.959062 
z
" style="fill: none"/>
   </g>
   <g id="matplotlib.axis_3">
    <g id="xtick_3">
     <g id="line2d_13">
      <defs>
       <path id="mbdfb7e7063" d="M 0 0 
L 0 3.5 
" style="stroke: #000000; stroke-width: 0.8"/>
      </defs>
      <g>
       <use xlink:href="#mbdfb7e7063" x="96.875261" y="288.959062" style="stroke: #000000; stroke-width: 0.8"/>
      </g>
     </g>
     <g id="text_7">
      <!-- D1 -->
      <g transform="translate(88.437761 305.077187) scale(0.12 -0.12)">
       <defs>
        <path id="DejaVuSans-44" d="M 1259 4147 
L 1259 519 
L 2022 519 
Q 2988 519 3436 956 
Q 3884 1394 3884 2338 
Q 3884 3275 3436 3711 
Q 2988 4147 2022 4147 
L 1259 4147 
z
M 628 4666 
L 1925 4666 
Q 3281 4666 3915 4102 
Q 4550 3538 4550 2338 
Q 4550 1131 3912 565 
Q 3275 0 1925 0 
L 628 0 
L 628 4666 
z
" transform="scale(0.015625)"/>
        <path id="DejaVuSans-31" d="M 794 531 
L 1825 531 
L 1825 4091 
L 703 3866 
L 703 4441 
L 1819 4666 
L 2450 4666 
L 2450 531 
L 3481 531 
L 3481 0 
L 794 0 
L 794 531 
z
" transform="scale(0.015625)"/>
       </defs>
       <use xlink:href="#DejaVuSans-44"/>
       <use xlink:href="#DejaVuSans-31" x="77.001953"/>
      </g>
      <!--  -->
      <g transform="translate(96.875261 318.514562) scale(0.12 -0.12)"/>
     </g>
    </g>
    <g id="xtick_4">
     <g id="line2d_14">
      <g>
       <use xlink:href="#mbdfb7e7063" x="210.646389" y="288.959062" style="stroke: #000000; stroke-width: 0.8"/>
      </g>
     </g>
     <g id="text_8">
      <!-- D1 -->
      <g transform="translate(202.208889 305.077187) scale(0.12 -0.12)">
       <use xlink:href="#DejaVuSans-44"/>
       <use xlink:href="#DejaVuSans-31" x="77.001953"/>
      </g>
      <!-- 61C&gt;G -->
      <g transform="translate(189.144826 318.514562) scale(0.12 -0.12)">
       <defs>
        <path id="DejaVuSans-43" d="M 4122 4306 
L 4122 3641 
Q 3803 3938 3442 4084 
Q 3081 4231 2675 4231 
Q 1875 4231 1450 3742 
Q 1025 3253 1025 2328 
Q 1025 1406 1450 917 
Q 1875 428 2675 428 
Q 3081 428 3442 575 
Q 3803 722 4122 1019 
L 4122 359 
Q 3791 134 3420 21 
Q 3050 -91 2638 -91 
Q 1578 -91 968 557 
Q 359 1206 359 2328 
Q 359 3453 968 4101 
Q 1578 4750 2638 4750 
Q 3056 4750 3426 4639 
Q 3797 4528 4122 4306 
z
" transform="scale(0.015625)"/>
        <path id="DejaVuSans-3e" d="M 678 3150 
L 678 3719 
L 4684 2266 
L 4684 1747 
L 678 294 
L 678 863 
L 3897 2003 
L 678 3150 
z
" transform="scale(0.015625)"/>
        <path id="DejaVuSans-47" d="M 3809 666 
L 3809 1919 
L 2778 1919 
L 2778 2438 
L 4434 2438 
L 4434 434 
Q 4069 175 3628 42 
Q 3188 -91 2688 -91 
Q 1594 -91 976 548 
Q 359 1188 359 2328 
Q 359 3472 976 4111 
Q 1594 4750 2688 4750 
Q 3144 4750 3555 4637 
Q 3966 4525 4313 4306 
L 4313 3634 
Q 3963 3931 3569 4081 
Q 3175 4231 2741 4231 
Q 1884 4231 1454 3753 
Q 1025 3275 1025 2328 
Q 1025 1384 1454 906 
Q 1884 428 2741 428 
Q 3075 428 3337 486 
Q 3600 544 3809 666 
z
" transform="scale(0.015625)"/>
       </defs>
       <use xlink:href="#DejaVuSans-36"/>
       <use xlink:href="#DejaVuSans-31" x="63.623047"/>
       <use xlink:href="#DejaVuSans-43" x="127.246094"/>
       <use xlink:href="#DejaVuSans-3e" x="197.070312"/>
       <use xlink:href="#DejaVuSans-47" x="280.859375"/>
      </g>
     </g>
    </g>
   </g>
   <g id="matplotlib.axis_4">
    <g id="ytick_6">
     <g id="line2d_15">
      <path d="M 49.470625 288.959062 
L 258.051025 288.959062 
" clip-path="url(#pc1ac896a70)" style="fill: none; stroke: #b0b0b0; stroke-width: 0.8; stroke-linecap: round"/>
     </g>
     <g id="line2d_16">
      <g>
       <use xlink:href="#m5fca26c4f3" x="49.470625" y="288.959062" style="stroke: #000000; stroke-width: 0.8"/>
      </g>
     </g>
     <g id="text_9">
      <!-- −5 -->
      <g transform="translate(24.78 293.518125) scale(0.12 -0.12)">
       <defs>
        <path id="DejaVuSans-2212" d="M 678 2272 
L 4684 2272 
L 4684 1741 
L 678 1741 
L 678 2272 
z
" transform="scale(0.015625)"/>
        <path id="DejaVuSans-35" d="M 691 4666 
L 3169 4666 
L 3169 4134 
L 1269 4134 
L 1269 2991 
Q 1406 3038 1543 3061 
Q 1681 3084 1819 3084 
Q 2600 3084 3056 2656 
Q 3513 2228 3513 1497 
Q 3513 744 3044 326 
Q 2575 -91 1722 -91 
Q 1428 -91 1123 -41 
Q 819 9 494 109 
L 494 744 
Q 775 591 1075 516 
Q 1375 441 1709 441 
Q 2250 441 2565 725 
Q 2881 1009 2881 1497 
Q 2881 1984 2565 2268 
Q 2250 2553 1709 2553 
Q 1456 2553 1204 2497 
Q 953 2441 691 2322 
L 691 4666 
z
" transform="scale(0.015625)"/>
       </defs>
       <use xlink:href="#DejaVuSans-2212"/>
       <use xlink:href="#DejaVuSans-35" x="83.789062"/>
      </g>
     </g>
    </g>
    <g id="ytick_7">
     <g id="line2d_17">
      <path d="M 49.470625 246.959062 
L 258.051025 246.959062 
" clip-path="url(#pc1ac896a70)" style="fill: none; stroke: #b0b0b0; stroke-width: 0.8; stroke-linecap: round"/>
     </g>
     <g id="line2d_18">
      <g>
       <use xlink:href="#m5fca26c4f3" x="49.470625" y="246.959062" style="stroke: #000000; stroke-width: 0.8"/>
      </g>
     </g>
     <g id="text_10">
      <!-- 0 -->
      <g transform="translate(34.835625 251.518125) scale(0.12 -0.12)">
       <use xlink:href="#DejaVuSans-30"/>
      </g>
     </g>
    </g>
    <g id="ytick_8">
     <g id="line2d_19">
      <path d="M 49.470625 204.959062 
L 258.051025 204.959062 
" clip-path="url(#pc1ac896a70)" style="fill: none; stroke: #b0b0b0; stroke-width: 0.8; stroke-linecap: round"/>
     </g>
     <g id="line2d_20">
      <g>
       <use xlink:href="#m5fca26c4f3" x="49.470625" y="204.959062" style="stroke: #000000; stroke-width: 0.8"/>
      </g>
     </g>
     <g id="text_11">
      <!-- 5 -->
      <g transform="translate(34.835625 209.518125) scale(0.12 -0.12)">
       <use xlink:href="#DejaVuSans-35"/>
      </g>
     </g>
    </g>
    <g id="text_12">
     <!-- $\Delta$ Strength (a.u.) -->
     <g transform="translate(17.84 305.339062) rotate(-90) scale(0.14 -0.14)">
      <defs>
       <path id="DejaVuSans-394" d="M 2188 4044 
L 906 525 
L 3472 525 
L 2188 4044 
z
M 50 0 
L 1831 4666 
L 2547 4666 
L 4325 0 
L 50 0 
z
" transform="scale(0.015625)"/>
      </defs>
      <use xlink:href="#DejaVuSans-394" transform="translate(0 0.015625)"/>
      <use xlink:href="#DejaVuSans-20" transform="translate(68.408203 0.015625)"/>
      <use xlink:href="#DejaVuSans-53" transform="translate(100.195312 0.015625)"/>
      <use xlink:href="#DejaVuSans-74" transform="translate(163.671875 0.015625)"/>
      <use xlink:href="#DejaVuSans-72" transform="translate(202.880859 0.015625)"/>
      <use xlink:href="#DejaVuSans-65" transform="translate(243.994141 0.015625)"/>
      <use xlink:href="#DejaVuSans-6e" transform="translate(305.517578 0.015625)"/>
      <use xlink:href="#DejaVuSans-67" transform="translate(368.896484 0.015625)"/>
      <use xlink:href="#DejaVuSans-74" transform="translate(432.373047 0.015625)"/>
      <use xlink:href="#DejaVuSans-68" transform="translate(471.582031 0.015625)"/>
      <use xlink:href="#DejaVuSans-20" transform="translate(534.960938 0.015625)"/>
      <use xlink:href="#DejaVuSans-28" transform="translate(566.748047 0.015625)"/>
      <use xlink:href="#DejaVuSans-61" transform="translate(605.761719 0.015625)"/>
      <use xlink:href="#DejaVuSans-2e" transform="translate(667.041016 0.015625)"/>
      <use xlink:href="#DejaVuSans-75" transform="translate(698.828125 0.015625)"/>
      <use xlink:href="#DejaVuSans-2e" transform="translate(762.207031 0.015625)"/>
      <use xlink:href="#DejaVuSans-29" transform="translate(793.994141 0.015625)"/>
     </g>
    </g>
   </g>
   <g id="patch_43">
    <path d="M 58.951552 246.959062 
L 134.79897 246.959062 
L 134.79897 269.270517 
L 58.951552 269.270517 
z
" clip-path="url(#pc1ac896a70)" style="fill: #dad7cd; stroke: #6b6b6b; stroke-linejoin: miter"/>
   </g>
   <g id="patch_44">
    <path d="M 172.72268 246.959062 
L 248.570098 246.959062 
L 248.570098 210.569559 
L 172.72268 210.569559 
z
" clip-path="url(#pc1ac896a70)" style="fill: #dad7cd; stroke: #6b6b6b; stroke-linejoin: miter"/>
   </g>
   <g id="patch_45">
    <path d="M 49.470625 288.959062 
L 49.470625 204.959062 
" style="fill: none; stroke: #333333; stroke-width: 2; stroke-linejoin: miter; stroke-linecap: square"/>
   </g>
   <g id="patch_46">
    <path d="M 258.051025 288.959062 
L 258.051025 204.959062 
" style="fill: none; stroke: #333333; stroke-width: 2; stroke-linejoin: miter; stroke-linecap: square"/>
   </g>
   <g id="patch_47">
    <path d="M 49.470625 288.959062 
L 258.051025 288.959062 
" style="fill: none; stroke: #333333; stroke-width: 2; stroke-linejoin: miter; stroke-linecap: square"/>
   </g>
   <g id="LineCollection_1">
    <path d="M 49.470625 246.959062 
L 258.051025 246.959062 
" clip-path="url(#pc1ac896a70)" style="fill: none; stroke: #000000"/>
   </g>
  </g>
  <g id="axes_3">
   <g id="matplotlib.axis_5">
    <g id="ytick_9">
     <g id="line2d_21">
      <defs>
       <path id="mb9543cc62b" d="M 0 0 
L 3.5 0 
" style="stroke: #000000; stroke-width: 0.8"/>
      </defs>
      <g>
       <use xlink:href="#mb9543cc62b" x="258.051025" y="276.975145" style="stroke: #000000; stroke-width: 0.8"/>
      </g>
     </g>
     <g id="text_13">
      <!-- 0.4 -->
      <g transform="translate(265.051025 282.294051) scale(0.14 -0.14)">
       <use xlink:href="#DejaVuSans-30"/>
       <use xlink:href="#DejaVuSans-2e" x="63.623047"/>
       <use xlink:href="#DejaVuSans-34" x="95.410156"/>
      </g>
     </g>
    </g>
    <g id="ytick_10">
     <g id="line2d_22">
      <g>
       <use xlink:href="#mb9543cc62b" x="258.051025" y="246.959062" style="stroke: #000000; stroke-width: 0.8"/>
      </g>
     </g>
     <g id="text_14">
      <!-- 0.5 -->
      <g transform="translate(265.051025 252.277969) scale(0.14 -0.14)">
       <use xlink:href="#DejaVuSans-30"/>
       <use xlink:href="#DejaVuSans-2e" x="63.623047"/>
       <use xlink:href="#DejaVuSans-35" x="95.410156"/>
      </g>
     </g>
    </g>
    <g id="ytick_11">
     <g id="line2d_23">
      <g>
       <use xlink:href="#mb9543cc62b" x="258.051025" y="216.944664" style="stroke: #000000; stroke-width: 0.8"/>
      </g>
     </g>
     <g id="text_15">
      <!-- 0.6 -->
      <g transform="translate(265.051025 222.26357) scale(0.14 -0.14)">
       <use xlink:href="#DejaVuSans-30"/>
       <use xlink:href="#DejaVuSans-2e" x="63.623047"/>
       <use xlink:href="#DejaVuSans-36" x="95.410156"/>
      </g>
     </g>
    </g>
    <g id="text_16">
     <!-- Predicted PSI -->
     <g transform="translate(301.953213 292.771875) rotate(-90) scale(0.14 -0.14)">
      <defs>
       <path id="DejaVuSans-50" d="M 1259 4147 
L 1259 2394 
L 2053 2394 
Q 2494 2394 2734 2622 
Q 2975 2850 2975 3272 
Q 2975 3691 2734 3919 
Q 2494 4147 2053 4147 
L 1259 4147 
z
M 628 4666 
L 2053 4666 
Q 2838 4666 3239 4311 
Q 3641 3956 3641 3272 
Q 3641 2581 3239 2228 
Q 2838 1875 2053 1875 
L 1259 1875 
L 1259 0 
L 628 0 
L 628 4666 
z
" transform="scale(0.015625)"/>
       <path id="DejaVuSans-64" d="M 2906 2969 
L 2906 4863 
L 3481 4863 
L 3481 0 
L 2906 0 
L 2906 525 
Q 2725 213 2448 61 
Q 2172 -91 1784 -91 
Q 1150 -91 751 415 
Q 353 922 353 1747 
Q 353 2572 751 3078 
Q 1150 3584 1784 3584 
Q 2172 3584 2448 3432 
Q 2725 3281 2906 2969 
z
M 947 1747 
Q 947 1113 1208 752 
Q 1469 391 1925 391 
Q 2381 391 2643 752 
Q 2906 1113 2906 1747 
Q 2906 2381 2643 2742 
Q 2381 3103 1925 3103 
Q 1469 3103 1208 2742 
Q 947 2381 947 1747 
z
" transform="scale(0.015625)"/>
       <path id="DejaVuSans-69" d="M 603 3500 
L 1178 3500 
L 1178 0 
L 603 0 
L 603 3500 
z
M 603 4863 
L 1178 4863 
L 1178 4134 
L 603 4134 
L 603 4863 
z
" transform="scale(0.015625)"/>
       <path id="DejaVuSans-63" d="M 3122 3366 
L 3122 2828 
Q 2878 2963 2633 3030 
Q 2388 3097 2138 3097 
Q 1578 3097 1268 2742 
Q 959 2388 959 1747 
Q 959 1106 1268 751 
Q 1578 397 2138 397 
Q 2388 397 2633 464 
Q 2878 531 3122 666 
L 3122 134 
Q 2881 22 2623 -34 
Q 2366 -91 2075 -91 
Q 1284 -91 818 406 
Q 353 903 353 1747 
Q 353 2603 823 3093 
Q 1294 3584 2113 3584 
Q 2378 3584 2631 3529 
Q 2884 3475 3122 3366 
z
" transform="scale(0.015625)"/>
       <path id="DejaVuSans-49" d="M 628 4666 
L 1259 4666 
L 1259 0 
L 628 0 
L 628 4666 
z
" transform="scale(0.015625)"/>
      </defs>
      <use xlink:href="#DejaVuSans-50"/>
      <use xlink:href="#DejaVuSans-72" x="58.552734"/>
      <use xlink:href="#DejaVuSans-65" x="97.416016"/>
      <use xlink:href="#DejaVuSans-64" x="158.939453"/>
      <use xlink:href="#DejaVuSans-69" x="222.416016"/>
      <use xlink:href="#DejaVuSans-63" x="250.199219"/>
      <use xlink:href="#DejaVuSans-74" x="305.179688"/>
      <use xlink:href="#DejaVuSans-65" x="344.388672"/>
      <use xlink:href="#DejaVuSans-64" x="405.912109"/>
      <use xlink:href="#DejaVuSans-20" x="469.388672"/>
      <use xlink:href="#DejaVuSans-50" x="501.175781"/>
      <use xlink:href="#DejaVuSans-53" x="561.478516"/>
      <use xlink:href="#DejaVuSans-49" x="624.955078"/>
     </g>
    </g>
   </g>
   <g id="patch_48">
    <path d="M 49.470625 288.959062 
L 49.470625 204.959062 
" style="fill: none; stroke: #333333; stroke-width: 2; stroke-linejoin: miter; stroke-linecap: square"/>
   </g>
   <g id="patch_49">
    <path d="M 49.470625 288.959062 
L 258.051025 288.959062 
" style="fill: none; stroke: #333333; stroke-width: 2; stroke-linejoin: miter; stroke-linecap: square"/>
   </g>
  </g>
 </g>
 <defs>
  <clipPath id="pcae22b84b5">
   <rect x="49.470625" y="11.759062" width="208.5804" height="168"/>
  </clipPath>
  <clipPath id="pc1ac896a70">
   <rect x="49.470625" y="204.959062" width="208.5804" height="84"/>
  </clipPath>
 </defs>
</svg>
