<?xml version="1.0" encoding="utf-8" standalone="no"?>
<!DOCTYPE svg PUBLIC "-//W3C//DTD SVG 1.1//EN"
  "http://www.w3.org/Graphics/SVG/1.1/DTD/svg11.dtd">
<svg xmlns:xlink="http://www.w3.org/1999/xlink" width="418.019375pt" height="309.3685pt" viewBox="0 0 418.019375 309.3685" xmlns="http://www.w3.org/2000/svg" version="1.1">
 <metadata>
  <rdf:RDF xmlns:dc="http://purl.org/dc/elements/1.1/" xmlns:cc="http://creativecommons.org/ns#" xmlns:rdf="http://www.w3.org/1999/02/22-rdf-syntax-ns#">
   <cc:Work>
    <dc:type rdf:resource="http://purl.org/dc/dcmitype/StillImage"/>
    <dc:date>2023-06-14T14:44:58.049100</dc:date>
    <dc:format>image/svg+xml</dc:format>
    <dc:creator>
     <cc:Agent>
      <dc:title>Matplotlib v3.6.0, https://matplotlib.org/</dc:title>
     </cc:Agent>
    </dc:creator>
   </cc:Work>
  </rdf:RDF>
 </metadata>
 <defs>
  <style type="text/css">*{stroke-linejoin: round; stroke-linecap: butt}</style>
 </defs>
 <g id="figure_1">
  <g id="patch_1">
   <path d="M 0 309.3685 
L 418.019375 309.3685 
L 418.019375 0 
L 0 0 
L 0 309.3685 
z
" style="fill: none"/>
  </g>
  <g id="axes_1">
   <g id="patch_2">
    <path d="M 57.105625 153.415385 
L 364.005625 153.415385 
L 364.005625 7.2 
L 57.105625 7.2 
L 57.105625 153.415385 
z
" style="fill: none"/>
   </g>
   <g id="matplotlib.axis_1">
    <g id="xtick_1">
     <g id="line2d_1"/>
    </g>
    <g id="xtick_2">
     <g id="line2d_2"/>
    </g>
    <g id="xtick_3">
     <g id="line2d_3"/>
    </g>
    <g id="xtick_4">
     <g id="line2d_4"/>
    </g>
   </g>
   <g id="matplotlib.axis_2">
    <g id="ytick_1">
     <g id="line2d_5">
      <path d="M 57.105625 153.415385 
L 364.005625 153.415385 
" clip-path="url(#p1f5f5bae82)" style="fill: none; stroke: #b0b0b0; stroke-width: 0.8; stroke-linecap: round"/>
     </g>
     <g id="line2d_6">
      <defs>
       <path id="m4e6ebde5fb" d="M 0 0 
L -3.5 0 
" style="stroke: #000000; stroke-width: 0.8"/>
      </defs>
      <g>
       <use xlink:href="#m4e6ebde5fb" x="57.105625" y="153.415385" style="stroke: #000000; stroke-width: 0.8"/>
      </g>
     </g>
     <g id="text_1">
      <!-- 0 -->
      <g transform="translate(42.470625 157.974447) scale(0.12 -0.12)">
       <defs>
        <path id="DejaVuSans-30" d="M 2034 4250 
Q 1547 4250 1301 3770 
Q 1056 3291 1056 2328 
Q 1056 1369 1301 889 
Q 1547 409 2034 409 
Q 2525 409 2770 889 
Q 3016 1369 3016 2328 
Q 3016 3291 2770 3770 
Q 2525 4250 2034 4250 
z
M 2034 4750 
Q 2819 4750 3233 4129 
Q 3647 3509 3647 2328 
Q 3647 1150 3233 529 
Q 2819 -91 2034 -91 
Q 1250 -91 836 529 
Q 422 1150 422 2328 
Q 422 3509 836 4129 
Q 1250 4750 2034 4750 
z
" transform="scale(0.015625)"/>
       </defs>
       <use xlink:href="#DejaVuSans-30"/>
      </g>
     </g>
    </g>
    <g id="ytick_2">
     <g id="line2d_7">
      <path d="M 57.105625 126.830769 
L 364.005625 126.830769 
" clip-path="url(#p1f5f5bae82)" style="fill: none; stroke: #b0b0b0; stroke-width: 0.8; stroke-linecap: round"/>
     </g>
     <g id="line2d_8">
      <g>
       <use xlink:href="#m4e6ebde5fb" x="57.105625" y="126.830769" style="stroke: #000000; stroke-width: 0.8"/>
      </g>
     </g>
     <g id="text_2">
      <!-- 20 -->
      <g transform="translate(34.835625 131.389832) scale(0.12 -0.12)">
       <defs>
        <path id="DejaVuSans-32" d="M 1228 531 
L 3431 531 
L 3431 0 
L 469 0 
L 469 531 
Q 828 903 1448 1529 
Q 2069 2156 2228 2338 
Q 2531 2678 2651 2914 
Q 2772 3150 2772 3378 
Q 2772 3750 2511 3984 
Q 2250 4219 1831 4219 
Q 1534 4219 1204 4116 
Q 875 4013 500 3803 
L 500 4441 
Q 881 4594 1212 4672 
Q 1544 4750 1819 4750 
Q 2544 4750 2975 4387 
Q 3406 4025 3406 3419 
Q 3406 3131 3298 2873 
Q 3191 2616 2906 2266 
Q 2828 2175 2409 1742 
Q 1991 1309 1228 531 
z
" transform="scale(0.015625)"/>
       </defs>
       <use xlink:href="#DejaVuSans-32"/>
       <use xlink:href="#DejaVuSans-30" x="63.623047"/>
      </g>
     </g>
    </g>
    <g id="ytick_3">
     <g id="line2d_9">
      <path d="M 57.105625 100.246154 
L 364.005625 100.246154 
" clip-path="url(#p1f5f5bae82)" style="fill: none; stroke: #b0b0b0; stroke-width: 0.8; stroke-linecap: round"/>
     </g>
     <g id="line2d_10">
      <g>
       <use xlink:href="#m4e6ebde5fb" x="57.105625" y="100.246154" style="stroke: #000000; stroke-width: 0.8"/>
      </g>
     </g>
     <g id="text_3">
      <!-- 40 -->
      <g transform="translate(34.835625 104.805216) scale(0.12 -0.12)">
       <defs>
        <path id="DejaVuSans-34" d="M 2419 4116 
L 825 1625 
L 2419 1625 
L 2419 4116 
z
M 2253 4666 
L 3047 4666 
L 3047 1625 
L 3713 1625 
L 3713 1100 
L 3047 1100 
L 3047 0 
L 2419 0 
L 2419 1100 
L 313 1100 
L 313 1709 
L 2253 4666 
z
" transform="scale(0.015625)"/>
       </defs>
       <use xlink:href="#DejaVuSans-34"/>
       <use xlink:href="#DejaVuSans-30" x="63.623047"/>
      </g>
     </g>
    </g>
    <g id="ytick_4">
     <g id="line2d_11">
      <path d="M 57.105625 73.661538 
L 364.005625 73.661538 
" clip-path="url(#p1f5f5bae82)" style="fill: none; stroke: #b0b0b0; stroke-width: 0.8; stroke-linecap: round"/>
     </g>
     <g id="line2d_12">
      <g>
       <use xlink:href="#m4e6ebde5fb" x="57.105625" y="73.661538" style="stroke: #000000; stroke-width: 0.8"/>
      </g>
     </g>
     <g id="text_4">
      <!-- 60 -->
      <g transform="translate(34.835625 78.220601) scale(0.12 -0.12)">
       <defs>
        <path id="DejaVuSans-36" d="M 2113 2584 
Q 1688 2584 1439 2293 
Q 1191 2003 1191 1497 
Q 1191 994 1439 701 
Q 1688 409 2113 409 
Q 2538 409 2786 701 
Q 3034 994 3034 1497 
Q 3034 2003 2786 2293 
Q 2538 2584 2113 2584 
z
M 3366 4563 
L 3366 3988 
Q 3128 4100 2886 4159 
Q 2644 4219 2406 4219 
Q 1781 4219 1451 3797 
Q 1122 3375 1075 2522 
Q 1259 2794 1537 2939 
Q 1816 3084 2150 3084 
Q 2853 3084 3261 2657 
Q 3669 2231 3669 1497 
Q 3669 778 3244 343 
Q 2819 -91 2113 -91 
Q 1303 -91 875 529 
Q 447 1150 447 2328 
Q 447 3434 972 4092 
Q 1497 4750 2381 4750 
Q 2619 4750 2861 4703 
Q 3103 4656 3366 4563 
z
" transform="scale(0.015625)"/>
       </defs>
       <use xlink:href="#DejaVuSans-36"/>
       <use xlink:href="#DejaVuSans-30" x="63.623047"/>
      </g>
     </g>
    </g>
    <g id="ytick_5">
     <g id="line2d_13">
      <path d="M 57.105625 47.076923 
L 364.005625 47.076923 
" clip-path="url(#p1f5f5bae82)" style="fill: none; stroke: #b0b0b0; stroke-width: 0.8; stroke-linecap: round"/>
     </g>
     <g id="line2d_14">
      <g>
       <use xlink:href="#m4e6ebde5fb" x="57.105625" y="47.076923" style="stroke: #000000; stroke-width: 0.8"/>
      </g>
     </g>
     <g id="text_5">
      <!-- 80 -->
      <g transform="translate(34.835625 51.635986) scale(0.12 -0.12)">
       <defs>
        <path id="DejaVuSans-38" d="M 2034 2216 
Q 1584 2216 1326 1975 
Q 1069 1734 1069 1313 
Q 1069 891 1326 650 
Q 1584 409 2034 409 
Q 2484 409 2743 651 
Q 3003 894 3003 1313 
Q 3003 1734 2745 1975 
Q 2488 2216 2034 2216 
z
M 1403 2484 
Q 997 2584 770 2862 
Q 544 3141 544 3541 
Q 544 4100 942 4425 
Q 1341 4750 2034 4750 
Q 2731 4750 3128 4425 
Q 3525 4100 3525 3541 
Q 3525 3141 3298 2862 
Q 3072 2584 2669 2484 
Q 3125 2378 3379 2068 
Q 3634 1759 3634 1313 
Q 3634 634 3220 271 
Q 2806 -91 2034 -91 
Q 1263 -91 848 271 
Q 434 634 434 1313 
Q 434 1759 690 2068 
Q 947 2378 1403 2484 
z
M 1172 3481 
Q 1172 3119 1398 2916 
Q 1625 2713 2034 2713 
Q 2441 2713 2670 2916 
Q 2900 3119 2900 3481 
Q 2900 3844 2670 4047 
Q 2441 4250 2034 4250 
Q 1625 4250 1398 4047 
Q 1172 3844 1172 3481 
z
" transform="scale(0.015625)"/>
       </defs>
       <use xlink:href="#DejaVuSans-38"/>
       <use xlink:href="#DejaVuSans-30" x="63.623047"/>
      </g>
     </g>
    </g>
    <g id="ytick_6">
     <g id="line2d_15">
      <path d="M 57.105625 20.492308 
L 364.005625 20.492308 
" clip-path="url(#p1f5f5bae82)" style="fill: none; stroke: #b0b0b0; stroke-width: 0.8; stroke-linecap: round"/>
     </g>
     <g id="line2d_16">
      <g>
       <use xlink:href="#m4e6ebde5fb" x="57.105625" y="20.492308" style="stroke: #000000; stroke-width: 0.8"/>
      </g>
     </g>
     <g id="text_6">
      <!-- 100 -->
      <g transform="translate(27.200625 25.05137) scale(0.12 -0.12)">
       <defs>
        <path id="DejaVuSans-31" d="M 794 531 
L 1825 531 
L 1825 4091 
L 703 3866 
L 703 4441 
L 1819 4666 
L 2450 4666 
L 2450 531 
L 3481 531 
L 3481 0 
L 794 0 
L 794 531 
z
" transform="scale(0.015625)"/>
       </defs>
       <use xlink:href="#DejaVuSans-31"/>
       <use xlink:href="#DejaVuSans-30" x="63.623047"/>
       <use xlink:href="#DejaVuSans-30" x="127.246094"/>
      </g>
     </g>
    </g>
    <g id="text_7">
     <!-- Strength (a.u.) -->
     <g transform="translate(17.868437 131.445974) rotate(-90) scale(0.14 -0.14)">
      <defs>
       <path id="DejaVuSans-53" d="M 3425 4513 
L 3425 3897 
Q 3066 4069 2747 4153 
Q 2428 4238 2131 4238 
Q 1616 4238 1336 4038 
Q 1056 3838 1056 3469 
Q 1056 3159 1242 3001 
Q 1428 2844 1947 2747 
L 2328 2669 
Q 3034 2534 3370 2195 
Q 3706 1856 3706 1288 
Q 3706 609 3251 259 
Q 2797 -91 1919 -91 
Q 1588 -91 1214 -16 
Q 841 59 441 206 
L 441 856 
Q 825 641 1194 531 
Q 1563 422 1919 422 
Q 2459 422 2753 634 
Q 3047 847 3047 1241 
Q 3047 1584 2836 1778 
Q 2625 1972 2144 2069 
L 1759 2144 
Q 1053 2284 737 2584 
Q 422 2884 422 3419 
Q 422 4038 858 4394 
Q 1294 4750 2059 4750 
Q 2388 4750 2728 4690 
Q 3069 4631 3425 4513 
z
" transform="scale(0.015625)"/>
       <path id="DejaVuSans-74" d="M 1172 4494 
L 1172 3500 
L 2356 3500 
L 2356 3053 
L 1172 3053 
L 1172 1153 
Q 1172 725 1289 603 
Q 1406 481 1766 481 
L 2356 481 
L 2356 0 
L 1766 0 
Q 1100 0 847 248 
Q 594 497 594 1153 
L 594 3053 
L 172 3053 
L 172 3500 
L 594 3500 
L 594 4494 
L 1172 4494 
z
" transform="scale(0.015625)"/>
       <path id="DejaVuSans-72" d="M 2631 2963 
Q 2534 3019 2420 3045 
Q 2306 3072 2169 3072 
Q 1681 3072 1420 2755 
Q 1159 2438 1159 1844 
L 1159 0 
L 581 0 
L 581 3500 
L 1159 3500 
L 1159 2956 
Q 1341 3275 1631 3429 
Q 1922 3584 2338 3584 
Q 2397 3584 2469 3576 
Q 2541 3569 2628 3553 
L 2631 2963 
z
" transform="scale(0.015625)"/>
       <path id="DejaVuSans-65" d="M 3597 1894 
L 3597 1613 
L 953 1613 
Q 991 1019 1311 708 
Q 1631 397 2203 397 
Q 2534 397 2845 478 
Q 3156 559 3463 722 
L 3463 178 
Q 3153 47 2828 -22 
Q 2503 -91 2169 -91 
Q 1331 -91 842 396 
Q 353 884 353 1716 
Q 353 2575 817 3079 
Q 1281 3584 2069 3584 
Q 2775 3584 3186 3129 
Q 3597 2675 3597 1894 
z
M 3022 2063 
Q 3016 2534 2758 2815 
Q 2500 3097 2075 3097 
Q 1594 3097 1305 2825 
Q 1016 2553 972 2059 
L 3022 2063 
z
" transform="scale(0.015625)"/>
       <path id="DejaVuSans-6e" d="M 3513 2113 
L 3513 0 
L 2938 0 
L 2938 2094 
Q 2938 2591 2744 2837 
Q 2550 3084 2163 3084 
Q 1697 3084 1428 2787 
Q 1159 2491 1159 1978 
L 1159 0 
L 581 0 
L 581 3500 
L 1159 3500 
L 1159 2956 
Q 1366 3272 1645 3428 
Q 1925 3584 2291 3584 
Q 2894 3584 3203 3211 
Q 3513 2838 3513 2113 
z
" transform="scale(0.015625)"/>
       <path id="DejaVuSans-67" d="M 2906 1791 
Q 2906 2416 2648 2759 
Q 2391 3103 1925 3103 
Q 1463 3103 1205 2759 
Q 947 2416 947 1791 
Q 947 1169 1205 825 
Q 1463 481 1925 481 
Q 2391 481 2648 825 
Q 2906 1169 2906 1791 
z
M 3481 434 
Q 3481 -459 3084 -895 
Q 2688 -1331 1869 -1331 
Q 1566 -1331 1297 -1286 
Q 1028 -1241 775 -1147 
L 775 -588 
Q 1028 -725 1275 -790 
Q 1522 -856 1778 -856 
Q 2344 -856 2625 -561 
Q 2906 -266 2906 331 
L 2906 616 
Q 2728 306 2450 153 
Q 2172 0 1784 0 
Q 1141 0 747 490 
Q 353 981 353 1791 
Q 353 2603 747 3093 
Q 1141 3584 1784 3584 
Q 2172 3584 2450 3431 
Q 2728 3278 2906 2969 
L 2906 3500 
L 3481 3500 
L 3481 434 
z
" transform="scale(0.015625)"/>
       <path id="DejaVuSans-68" d="M 3513 2113 
L 3513 0 
L 2938 0 
L 2938 2094 
Q 2938 2591 2744 2837 
Q 2550 3084 2163 3084 
Q 1697 3084 1428 2787 
Q 1159 2491 1159 1978 
L 1159 0 
L 581 0 
L 581 4863 
L 1159 4863 
L 1159 2956 
Q 1366 3272 1645 3428 
Q 1925 3584 2291 3584 
Q 2894 3584 3203 3211 
Q 3513 2838 3513 2113 
z
" transform="scale(0.015625)"/>
       <path id="DejaVuSans-20" transform="scale(0.015625)"/>
       <path id="DejaVuSans-28" d="M 1984 4856 
Q 1566 4138 1362 3434 
Q 1159 2731 1159 2009 
Q 1159 1288 1364 580 
Q 1569 -128 1984 -844 
L 1484 -844 
Q 1016 -109 783 600 
Q 550 1309 550 2009 
Q 550 2706 781 3412 
Q 1013 4119 1484 4856 
L 1984 4856 
z
" transform="scale(0.015625)"/>
       <path id="DejaVuSans-61" d="M 2194 1759 
Q 1497 1759 1228 1600 
Q 959 1441 959 1056 
Q 959 750 1161 570 
Q 1363 391 1709 391 
Q 2188 391 2477 730 
Q 2766 1069 2766 1631 
L 2766 1759 
L 2194 1759 
z
M 3341 1997 
L 3341 0 
L 2766 0 
L 2766 531 
Q 2569 213 2275 61 
Q 1981 -91 1556 -91 
Q 1019 -91 701 211 
Q 384 513 384 1019 
Q 384 1609 779 1909 
Q 1175 2209 1959 2209 
L 2766 2209 
L 2766 2266 
Q 2766 2663 2505 2880 
Q 2244 3097 1772 3097 
Q 1472 3097 1187 3025 
Q 903 2953 641 2809 
L 641 3341 
Q 956 3463 1253 3523 
Q 1550 3584 1831 3584 
Q 2591 3584 2966 3190 
Q 3341 2797 3341 1997 
z
" transform="scale(0.015625)"/>
       <path id="DejaVuSans-2e" d="M 684 794 
L 1344 794 
L 1344 0 
L 684 0 
L 684 794 
z
" transform="scale(0.015625)"/>
       <path id="DejaVuSans-75" d="M 544 1381 
L 544 3500 
L 1119 3500 
L 1119 1403 
Q 1119 906 1312 657 
Q 1506 409 1894 409 
Q 2359 409 2629 706 
Q 2900 1003 2900 1516 
L 2900 3500 
L 3475 3500 
L 3475 0 
L 2900 0 
L 2900 538 
Q 2691 219 2414 64 
Q 2138 -91 1772 -91 
Q 1169 -91 856 284 
Q 544 659 544 1381 
z
M 1991 3584 
L 1991 3584 
z
" transform="scale(0.015625)"/>
       <path id="DejaVuSans-29" d="M 513 4856 
L 1013 4856 
Q 1481 4119 1714 3412 
Q 1947 2706 1947 2009 
Q 1947 1309 1714 600 
Q 1481 -109 1013 -844 
L 513 -844 
Q 928 -128 1133 580 
Q 1338 1288 1338 2009 
Q 1338 2731 1133 3434 
Q 928 4138 513 4856 
z
" transform="scale(0.015625)"/>
      </defs>
      <use xlink:href="#DejaVuSans-53"/>
      <use xlink:href="#DejaVuSans-74" x="63.476562"/>
      <use xlink:href="#DejaVuSans-72" x="102.685547"/>
      <use xlink:href="#DejaVuSans-65" x="141.548828"/>
      <use xlink:href="#DejaVuSans-6e" x="203.072266"/>
      <use xlink:href="#DejaVuSans-67" x="266.451172"/>
      <use xlink:href="#DejaVuSans-74" x="329.927734"/>
      <use xlink:href="#DejaVuSans-68" x="369.136719"/>
      <use xlink:href="#DejaVuSans-20" x="432.515625"/>
      <use xlink:href="#DejaVuSans-28" x="464.302734"/>
      <use xlink:href="#DejaVuSans-61" x="503.316406"/>
      <use xlink:href="#DejaVuSans-2e" x="564.595703"/>
      <use xlink:href="#DejaVuSans-75" x="596.382812"/>
      <use xlink:href="#DejaVuSans-2e" x="659.761719"/>
      <use xlink:href="#DejaVuSans-29" x="691.548828"/>
     </g>
    </g>
   </g>
   <g id="patch_3">
    <path d="M 71.055625 153.415385 
L 96.419261 153.415385 
L 96.419261 124.427395 
L 71.055625 124.427395 
z
" clip-path="url(#p1f5f5bae82)" style="fill: #c5d6fb; stroke: #6b6b6b; stroke-linejoin: miter"/>
   </g>
   <g id="patch_4">
    <path d="M 96.419261 153.415385 
L 121.782898 153.415385 
L 121.782898 102.655203 
L 96.419261 102.655203 
z
" clip-path="url(#p1f5f5bae82)" style="fill: #ff6666; stroke: #6b6b6b; stroke-linejoin: miter"/>
   </g>
   <g id="patch_5">
    <path d="M 71.055625 124.427395 
L 96.419261 124.427395 
L 96.419261 91.69928 
L 71.055625 91.69928 
z
" clip-path="url(#p1f5f5bae82)" style="fill: #c5d6fb; stroke: #6b6b6b; stroke-linejoin: miter"/>
   </g>
   <g id="patch_6">
    <path d="M 96.419261 102.655203 
L 121.782898 102.655203 
L 121.782898 86.001035 
L 96.419261 86.001035 
z
" clip-path="url(#p1f5f5bae82)" style="fill: #f6c3c2; stroke: #6b6b6b; stroke-linejoin: miter"/>
   </g>
   <g id="patch_7">
    <path d="M 71.055625 91.69928 
L 96.419261 91.69928 
L 96.419261 74.056667 
L 71.055625 74.056667 
z
" clip-path="url(#p1f5f5bae82)" style="fill: #c5d6fb; stroke: #6b6b6b; stroke-linejoin: miter"/>
   </g>
   <g id="patch_8">
    <path d="M 96.419261 86.001035 
L 121.782898 86.001035 
L 121.782898 70.54777 
L 96.419261 70.54777 
z
" clip-path="url(#p1f5f5bae82)" style="fill: #f6c3c2; stroke: #6b6b6b; stroke-linejoin: miter"/>
   </g>
   <g id="patch_9">
    <path d="M 71.055625 74.056667 
L 96.419261 74.056667 
L 96.419261 59.006767 
L 71.055625 59.006767 
z
" clip-path="url(#p1f5f5bae82)" style="fill: #c5d6fb; stroke: #6b6b6b; stroke-linejoin: miter"/>
   </g>
   <g id="patch_10">
    <path d="M 96.419261 70.54777 
L 121.782898 70.54777 
L 121.782898 60.594253 
L 96.419261 60.594253 
z
" clip-path="url(#p1f5f5bae82)" style="fill: #f6c3c2; stroke: #6b6b6b; stroke-linejoin: miter"/>
   </g>
   <g id="patch_11">
    <path d="M 71.055625 59.006767 
L 96.419261 59.006767 
L 96.419261 47.042403 
L 71.055625 47.042403 
z
" clip-path="url(#p1f5f5bae82)" style="fill: #c5d6fb; stroke: #6b6b6b; stroke-linejoin: miter"/>
   </g>
   <g id="patch_12">
    <path d="M 96.419261 60.594253 
L 121.782898 60.594253 
L 121.782898 51.049036 
L 96.419261 51.049036 
z
" clip-path="url(#p1f5f5bae82)" style="fill: #f6c3c2; stroke: #6b6b6b; stroke-linejoin: miter"/>
   </g>
   <g id="patch_13">
    <path d="M 71.055625 47.042403 
L 96.419261 47.042403 
L 96.419261 35.438244 
L 71.055625 35.438244 
z
" clip-path="url(#p1f5f5bae82)" style="fill: #c5d6fb; stroke: #6b6b6b; stroke-linejoin: miter"/>
   </g>
   <g id="patch_14">
    <path d="M 96.419261 51.049036 
L 121.782898 51.049036 
L 121.782898 42.667562 
L 96.419261 42.667562 
z
" clip-path="url(#p1f5f5bae82)" style="fill: #f6c3c2; stroke: #6b6b6b; stroke-linejoin: miter"/>
   </g>
   <g id="patch_15">
    <path d="M 71.055625 35.438244 
L 96.419261 35.438244 
L 96.419261 30.205356 
L 71.055625 30.205356 
z
" clip-path="url(#p1f5f5bae82)" style="fill: #c5d6fb; stroke: #6b6b6b; stroke-linejoin: miter"/>
   </g>
   <g id="patch_16">
    <path d="M 96.419261 42.667562 
L 121.782898 42.667562 
L 121.782898 36.685004 
L 96.419261 36.685004 
z
" clip-path="url(#p1f5f5bae82)" style="fill: #f6c3c2; stroke: #6b6b6b; stroke-linejoin: miter"/>
   </g>
   <g id="patch_17">
    <path d="M 71.055625 30.205356 
L 96.419261 30.205356 
L 96.419261 30.204007 
L 71.055625 30.204007 
z
" clip-path="url(#p1f5f5bae82)" style="fill: #c5d6fb; stroke: #6b6b6b; stroke-linejoin: miter"/>
   </g>
   <g id="patch_18">
    <path d="M 96.419261 36.685004 
L 121.782898 36.685004 
L 121.782898 31.428161 
L 96.419261 31.428161 
z
" clip-path="url(#p1f5f5bae82)" style="fill: #f6c3c2; stroke: #6b6b6b; stroke-linejoin: miter"/>
   </g>
   <g id="patch_19">
    <path d="M 71.055625 30.204007 
L 96.419261 30.204007 
L 96.419261 30.204004 
L 71.055625 30.204004 
z
" clip-path="url(#p1f5f5bae82)" style="fill: #c5d6fb; stroke: #6b6b6b; stroke-linejoin: miter"/>
   </g>
   <g id="patch_20">
    <path d="M 96.419261 31.428161 
L 121.782898 31.428161 
L 121.782898 30.631738 
L 96.419261 30.631738 
z
" clip-path="url(#p1f5f5bae82)" style="fill: #f6c3c2; stroke: #6b6b6b; stroke-linejoin: miter"/>
   </g>
   <g id="patch_21">
    <path d="M 147.146534 153.415385 
L 172.51017 153.415385 
L 172.51017 124.427395 
L 147.146534 124.427395 
z
" clip-path="url(#p1f5f5bae82)" style="fill: #c5d6fb; stroke: #6b6b6b; stroke-linejoin: miter"/>
   </g>
   <g id="patch_22">
    <path d="M 172.51017 153.415385 
L 197.873807 153.415385 
L 197.873807 136.901238 
L 172.51017 136.901238 
z
" clip-path="url(#p1f5f5bae82)" style="fill: #f6c3c2; stroke: #6b6b6b; stroke-linejoin: miter"/>
   </g>
   <g id="patch_23">
    <path d="M 147.146534 124.427395 
L 172.51017 124.427395 
L 172.51017 89.616422 
L 147.146534 89.616422 
z
" clip-path="url(#p1f5f5bae82)" style="fill: #c5d6fb; stroke: #6b6b6b; stroke-linejoin: miter"/>
   </g>
   <g id="patch_24">
    <path d="M 172.51017 136.901238 
L 197.873807 136.901238 
L 197.873807 121.44773 
L 172.51017 121.44773 
z
" clip-path="url(#p1f5f5bae82)" style="fill: #f6c3c2; stroke: #6b6b6b; stroke-linejoin: miter"/>
   </g>
   <g id="patch_25">
    <path d="M 147.146534 89.616422 
L 172.51017 89.616422 
L 172.51017 71.94229 
L 147.146534 71.94229 
z
" clip-path="url(#p1f5f5bae82)" style="fill: #c5d6fb; stroke: #6b6b6b; stroke-linejoin: miter"/>
   </g>
   <g id="patch_26">
    <path d="M 172.51017 121.44773 
L 197.873807 121.44773 
L 197.873807 110.586916 
L 172.51017 110.586916 
z
" clip-path="url(#p1f5f5bae82)" style="fill: #f6c3c2; stroke: #6b6b6b; stroke-linejoin: miter"/>
   </g>
   <g id="patch_27">
    <path d="M 147.146534 71.94229 
L 172.51017 71.94229 
L 172.51017 58.227438 
L 147.146534 58.227438 
z
" clip-path="url(#p1f5f5bae82)" style="fill: #c5d6fb; stroke: #6b6b6b; stroke-linejoin: miter"/>
   </g>
   <g id="patch_28">
    <path d="M 172.51017 110.586916 
L 197.873807 110.586916 
L 197.873807 100.633399 
L 172.51017 100.633399 
z
" clip-path="url(#p1f5f5bae82)" style="fill: #f6c3c2; stroke: #6b6b6b; stroke-linejoin: miter"/>
   </g>
   <g id="patch_29">
    <path d="M 147.146534 58.227438 
L 172.51017 58.227438 
L 172.51017 45.034306 
L 147.146534 45.034306 
z
" clip-path="url(#p1f5f5bae82)" style="fill: #c5d6fb; stroke: #6b6b6b; stroke-linejoin: miter"/>
   </g>
   <g id="patch_30">
    <path d="M 172.51017 100.633399 
L 197.873807 100.633399 
L 197.873807 91.468331 
L 172.51017 91.468331 
z
" clip-path="url(#p1f5f5bae82)" style="fill: #f6c3c2; stroke: #6b6b6b; stroke-linejoin: miter"/>
   </g>
   <g id="patch_31">
    <path d="M 147.146534 45.034306 
L 172.51017 45.034306 
L 172.51017 35.715828 
L 147.146534 35.715828 
z
" clip-path="url(#p1f5f5bae82)" style="fill: #c5d6fb; stroke: #6b6b6b; stroke-linejoin: miter"/>
   </g>
   <g id="patch_32">
    <path d="M 172.51017 91.468331 
L 197.873807 91.468331 
L 197.873807 83.365633 
L 172.51017 83.365633 
z
" clip-path="url(#p1f5f5bae82)" style="fill: #f6c3c2; stroke: #6b6b6b; stroke-linejoin: miter"/>
   </g>
   <g id="patch_33">
    <path d="M 147.146534 35.715828 
L 172.51017 35.715828 
L 172.51017 32.028874 
L 147.146534 32.028874 
z
" clip-path="url(#p1f5f5bae82)" style="fill: #c5d6fb; stroke: #6b6b6b; stroke-linejoin: miter"/>
   </g>
   <g id="patch_34">
    <path d="M 172.51017 83.365633 
L 197.873807 83.365633 
L 197.873807 77.383357 
L 172.51017 77.383357 
z
" clip-path="url(#p1f5f5bae82)" style="fill: #f6c3c2; stroke: #6b6b6b; stroke-linejoin: miter"/>
   </g>
   <g id="patch_35">
    <path d="M 147.146534 32.028874 
L 172.51017 32.028874 
L 172.51017 32.003619 
L 147.146534 32.003619 
z
" clip-path="url(#p1f5f5bae82)" style="fill: #c5d6fb; stroke: #6b6b6b; stroke-linejoin: miter"/>
   </g>
   <g id="patch_36">
    <path d="M 172.51017 77.383357 
L 197.873807 77.383357 
L 197.873807 75.552758 
L 172.51017 75.552758 
z
" clip-path="url(#p1f5f5bae82)" style="fill: #ff6666; stroke: #6b6b6b; stroke-linejoin: miter"/>
   </g>
   <g id="patch_37">
    <path d="M 147.146534 32.003619 
L 172.51017 32.003619 
L 172.51017 32.003617 
L 147.146534 32.003617 
z
" clip-path="url(#p1f5f5bae82)" style="fill: #c5d6fb; stroke: #6b6b6b; stroke-linejoin: miter"/>
   </g>
   <g id="patch_38">
    <path d="M 172.51017 75.552758 
L 197.873807 75.552758 
L 197.873807 74.75506 
L 172.51017 74.75506 
z
" clip-path="url(#p1f5f5bae82)" style="fill: #f6c3c2; stroke: #6b6b6b; stroke-linejoin: miter"/>
   </g>
   <g id="patch_39">
    <path d="M 223.237443 153.415385 
L 248.60108 153.415385 
L 248.60108 124.427395 
L 223.237443 124.427395 
z
" clip-path="url(#p1f5f5bae82)" style="fill: #c5d6fb; stroke: #6b6b6b; stroke-linejoin: miter"/>
   </g>
   <g id="patch_40">
    <path d="M 248.60108 153.415385 
L 273.964716 153.415385 
L 273.964716 133.058837 
L 248.60108 133.058837 
z
" clip-path="url(#p1f5f5bae82)" style="fill: #f6c3c2; stroke: #6b6b6b; stroke-linejoin: miter"/>
   </g>
   <g id="patch_41">
    <path d="M 223.237443 124.427395 
L 248.60108 124.427395 
L 248.60108 92.056175 
L 223.237443 92.056175 
z
" clip-path="url(#p1f5f5bae82)" style="fill: #c5d6fb; stroke: #6b6b6b; stroke-linejoin: miter"/>
   </g>
   <g id="patch_42">
    <path d="M 248.60108 133.058837 
L 273.964716 133.058837 
L 273.964716 115.203771 
L 248.60108 115.203771 
z
" clip-path="url(#p1f5f5bae82)" style="fill: #ff6666; stroke: #6b6b6b; stroke-linejoin: miter"/>
   </g>
   <g id="patch_43">
    <path d="M 223.237443 92.056175 
L 248.60108 92.056175 
L 248.60108 74.474746 
L 223.237443 74.474746 
z
" clip-path="url(#p1f5f5bae82)" style="fill: #c5d6fb; stroke: #6b6b6b; stroke-linejoin: miter"/>
   </g>
   <g id="patch_44">
    <path d="M 248.60108 115.203771 
L 273.964716 115.203771 
L 273.964716 99.748878 
L 248.60108 99.748878 
z
" clip-path="url(#p1f5f5bae82)" style="fill: #f6c3c2; stroke: #6b6b6b; stroke-linejoin: miter"/>
   </g>
   <g id="patch_45">
    <path d="M 223.237443 74.474746 
L 248.60108 74.474746 
L 248.60108 60.317256 
L 223.237443 60.317256 
z
" clip-path="url(#p1f5f5bae82)" style="fill: #c5d6fb; stroke: #6b6b6b; stroke-linejoin: miter"/>
   </g>
   <g id="patch_46">
    <path d="M 248.60108 99.748878 
L 273.964716 99.748878 
L 273.964716 89.794723 
L 248.60108 89.794723 
z
" clip-path="url(#p1f5f5bae82)" style="fill: #f6c3c2; stroke: #6b6b6b; stroke-linejoin: miter"/>
   </g>
   <g id="patch_47">
    <path d="M 223.237443 60.317256 
L 248.60108 60.317256 
L 248.60108 48.588719 
L 223.237443 48.588719 
z
" clip-path="url(#p1f5f5bae82)" style="fill: #c5d6fb; stroke: #6b6b6b; stroke-linejoin: miter"/>
   </g>
   <g id="patch_48">
    <path d="M 248.60108 89.794723 
L 273.964716 89.794723 
L 273.964716 80.244549 
L 248.60108 80.244549 
z
" clip-path="url(#p1f5f5bae82)" style="fill: #f6c3c2; stroke: #6b6b6b; stroke-linejoin: miter"/>
   </g>
   <g id="patch_49">
    <path d="M 223.237443 48.588719 
L 248.60108 48.588719 
L 248.60108 39.816656 
L 223.237443 39.816656 
z
" clip-path="url(#p1f5f5bae82)" style="fill: #c5d6fb; stroke: #6b6b6b; stroke-linejoin: miter"/>
   </g>
   <g id="patch_50">
    <path d="M 248.60108 80.244549 
L 273.964716 80.244549 
L 273.964716 72.105706 
L 248.60108 72.105706 
z
" clip-path="url(#p1f5f5bae82)" style="fill: #f6c3c2; stroke: #6b6b6b; stroke-linejoin: miter"/>
   </g>
   <g id="patch_51">
    <path d="M 223.237443 39.816656 
L 248.60108 39.816656 
L 248.60108 31.93905 
L 223.237443 31.93905 
z
" clip-path="url(#p1f5f5bae82)" style="fill: #c5d6fb; stroke: #6b6b6b; stroke-linejoin: miter"/>
   </g>
   <g id="patch_52">
    <path d="M 248.60108 72.105706 
L 273.964716 72.105706 
L 273.964716 66.148787 
L 248.60108 66.148787 
z
" clip-path="url(#p1f5f5bae82)" style="fill: #f6c3c2; stroke: #6b6b6b; stroke-linejoin: miter"/>
   </g>
   <g id="patch_53">
    <path d="M 223.237443 31.93905 
L 248.60108 31.93905 
L 248.60108 31.937684 
L 223.237443 31.937684 
z
" clip-path="url(#p1f5f5bae82)" style="fill: #c5d6fb; stroke: #6b6b6b; stroke-linejoin: miter"/>
   </g>
   <g id="patch_54">
    <path d="M 248.60108 66.148787 
L 273.964716 66.148787 
L 273.964716 62.465307 
L 248.60108 62.465307 
z
" clip-path="url(#p1f5f5bae82)" style="fill: #f6c3c2; stroke: #6b6b6b; stroke-linejoin: miter"/>
   </g>
   <g id="patch_55">
    <path d="M 223.237443 31.937684 
L 248.60108 31.937684 
L 248.60108 31.937682 
L 223.237443 31.937682 
z
" clip-path="url(#p1f5f5bae82)" style="fill: #c5d6fb; stroke: #6b6b6b; stroke-linejoin: miter"/>
   </g>
   <g id="patch_56">
    <path d="M 248.60108 62.465307 
L 273.964716 62.465307 
L 273.964716 61.601713 
L 248.60108 61.601713 
z
" clip-path="url(#p1f5f5bae82)" style="fill: #f6c3c2; stroke: #6b6b6b; stroke-linejoin: miter"/>
   </g>
   <g id="patch_57">
    <path d="M 299.328352 153.415385 
L 324.691989 153.415385 
L 324.691989 124.427395 
L 299.328352 124.427395 
z
" clip-path="url(#p1f5f5bae82)" style="fill: #c5d6fb; stroke: #6b6b6b; stroke-linejoin: miter"/>
   </g>
   <g id="patch_58">
    <path d="M 324.691989 153.415385 
L 350.055625 153.415385 
L 350.055625 121.905885 
L 324.691989 121.905885 
z
" clip-path="url(#p1f5f5bae82)" style="fill: #ff6666; stroke: #6b6b6b; stroke-linejoin: miter"/>
   </g>
   <g id="patch_59">
    <path d="M 299.328352 124.427395 
L 324.691989 124.427395 
L 324.691989 89.973317 
L 299.328352 89.973317 
z
" clip-path="url(#p1f5f5bae82)" style="fill: #c5d6fb; stroke: #6b6b6b; stroke-linejoin: miter"/>
   </g>
   <g id="patch_60">
    <path d="M 324.691989 121.905885 
L 350.055625 121.905885 
L 350.055625 101.970974 
L 324.691989 101.970974 
z
" clip-path="url(#p1f5f5bae82)" style="fill: #f6c3c2; stroke: #6b6b6b; stroke-linejoin: miter"/>
   </g>
   <g id="patch_61">
    <path d="M 299.328352 89.973317 
L 324.691989 89.973317 
L 324.691989 72.360369 
L 299.328352 72.360369 
z
" clip-path="url(#p1f5f5bae82)" style="fill: #c5d6fb; stroke: #6b6b6b; stroke-linejoin: miter"/>
   </g>
   <g id="patch_62">
    <path d="M 324.691989 101.970974 
L 350.055625 101.970974 
L 350.055625 86.515839 
L 324.691989 86.515839 
z
" clip-path="url(#p1f5f5bae82)" style="fill: #f6c3c2; stroke: #6b6b6b; stroke-linejoin: miter"/>
   </g>
   <g id="patch_63">
    <path d="M 299.328352 72.360369 
L 324.691989 72.360369 
L 324.691989 58.881344 
L 299.328352 58.881344 
z
" clip-path="url(#p1f5f5bae82)" style="fill: #c5d6fb; stroke: #6b6b6b; stroke-linejoin: miter"/>
   </g>
   <g id="patch_64">
    <path d="M 324.691989 86.515839 
L 350.055625 86.515839 
L 350.055625 75.650067 
L 324.691989 75.650067 
z
" clip-path="url(#p1f5f5bae82)" style="fill: #f6c3c2; stroke: #6b6b6b; stroke-linejoin: miter"/>
   </g>
   <g id="patch_65">
    <path d="M 299.328352 58.881344 
L 324.691989 58.881344 
L 324.691989 46.580622 
L 299.328352 46.580622 
z
" clip-path="url(#p1f5f5bae82)" style="fill: #c5d6fb; stroke: #6b6b6b; stroke-linejoin: miter"/>
   </g>
   <g id="patch_66">
    <path d="M 324.691989 75.650067 
L 350.055625 75.650067 
L 350.055625 65.695912 
L 324.691989 65.695912 
z
" clip-path="url(#p1f5f5bae82)" style="fill: #f6c3c2; stroke: #6b6b6b; stroke-linejoin: miter"/>
   </g>
   <g id="patch_67">
    <path d="M 299.328352 46.580622 
L 324.691989 46.580622 
L 324.691989 40.09424 
L 299.328352 40.09424 
z
" clip-path="url(#p1f5f5bae82)" style="fill: #c5d6fb; stroke: #6b6b6b; stroke-linejoin: miter"/>
   </g>
   <g id="patch_68">
    <path d="M 324.691989 65.695912 
L 350.055625 65.695912 
L 350.055625 57.61516 
L 324.691989 57.61516 
z
" clip-path="url(#p1f5f5bae82)" style="fill: #f6c3c2; stroke: #6b6b6b; stroke-linejoin: miter"/>
   </g>
   <g id="patch_69">
    <path d="M 299.328352 40.09424 
L 324.691989 40.09424 
L 324.691989 33.762568 
L 299.328352 33.762568 
z
" clip-path="url(#p1f5f5bae82)" style="fill: #c5d6fb; stroke: #6b6b6b; stroke-linejoin: miter"/>
   </g>
   <g id="patch_70">
    <path d="M 324.691989 57.61516 
L 350.055625 57.61516 
L 350.055625 50.023456 
L 324.691989 50.023456 
z
" clip-path="url(#p1f5f5bae82)" style="fill: #f6c3c2; stroke: #6b6b6b; stroke-linejoin: miter"/>
   </g>
   <g id="patch_71">
    <path d="M 299.328352 33.762568 
L 324.691989 33.762568 
L 324.691989 33.737297 
L 299.328352 33.737297 
z
" clip-path="url(#p1f5f5bae82)" style="fill: #c5d6fb; stroke: #6b6b6b; stroke-linejoin: miter"/>
   </g>
   <g id="patch_72">
    <path d="M 324.691989 50.023456 
L 350.055625 50.023456 
L 350.055625 44.066819 
L 324.691989 44.066819 
z
" clip-path="url(#p1f5f5bae82)" style="fill: #f6c3c2; stroke: #6b6b6b; stroke-linejoin: miter"/>
   </g>
   <g id="patch_73">
    <path d="M 299.328352 33.737297 
L 324.691989 33.737297 
L 324.691989 33.737295 
L 299.328352 33.737295 
z
" clip-path="url(#p1f5f5bae82)" style="fill: #c5d6fb; stroke: #6b6b6b; stroke-linejoin: miter"/>
   </g>
   <g id="patch_74">
    <path d="M 324.691989 44.066819 
L 350.055625 44.066819 
L 350.055625 43.201949 
L 324.691989 43.201949 
z
" clip-path="url(#p1f5f5bae82)" style="fill: #f6c3c2; stroke: #6b6b6b; stroke-linejoin: miter"/>
   </g>
   <g id="patch_75">
    <path d="M 57.105625 153.415385 
L 57.105625 7.2 
" style="fill: none; stroke: #333333; stroke-width: 2; stroke-linejoin: miter; stroke-linecap: square"/>
   </g>
   <g id="patch_76">
    <path d="M 364.005625 153.415385 
L 364.005625 7.2 
" style="fill: none; stroke: #333333; stroke-width: 2; stroke-linejoin: miter; stroke-linecap: square"/>
   </g>
   <g id="patch_77">
    <path d="M 57.105625 153.415385 
L 364.005625 153.415385 
" style="fill: none; stroke: #333333; stroke-width: 2; stroke-linejoin: miter; stroke-linecap: square"/>
   </g>
  </g>
  <g id="axes_2">
   <g id="patch_78">
    <path d="M 57.105625 256.68 
L 364.005625 256.68 
L 364.005625 165.295385 
L 57.105625 165.295385 
L 57.105625 256.68 
z
" style="fill: none"/>
   </g>
   <g id="matplotlib.axis_3">
    <g id="xtick_5">
     <g id="line2d_17">
      <defs>
       <path id="m3d6131edd9" d="M 0 0 
L 0 3.5 
" style="stroke: #000000; stroke-width: 0.8"/>
      </defs>
      <g>
       <use xlink:href="#m3d6131edd9" x="96.419261" y="256.68" style="stroke: #000000; stroke-width: 0.8"/>
      </g>
     </g>
     <g id="text_8">
      <!-- S3 -->
      <g transform="translate(88.792699 272.798125) scale(0.12 -0.12)">
       <defs>
        <path id="DejaVuSans-33" d="M 2597 2516 
Q 3050 2419 3304 2112 
Q 3559 1806 3559 1356 
Q 3559 666 3084 287 
Q 2609 -91 1734 -91 
Q 1441 -91 1130 -33 
Q 819 25 488 141 
L 488 750 
Q 750 597 1062 519 
Q 1375 441 1716 441 
Q 2309 441 2620 675 
Q 2931 909 2931 1356 
Q 2931 1769 2642 2001 
Q 2353 2234 1838 2234 
L 1294 2234 
L 1294 2753 
L 1863 2753 
Q 2328 2753 2575 2939 
Q 2822 3125 2822 3475 
Q 2822 3834 2567 4026 
Q 2313 4219 1838 4219 
Q 1578 4219 1281 4162 
Q 984 4106 628 3988 
L 628 4550 
Q 988 4650 1302 4700 
Q 1616 4750 1894 4750 
Q 2613 4750 3031 4423 
Q 3450 4097 3450 3541 
Q 3450 3153 3228 2886 
Q 3006 2619 2597 2516 
z
" transform="scale(0.015625)"/>
       </defs>
       <use xlink:href="#DejaVuSans-53"/>
       <use xlink:href="#DejaVuSans-33" x="63.476562"/>
      </g>
      <!--  -->
      <g transform="translate(96.419261 286.2355) scale(0.12 -0.12)"/>
     </g>
    </g>
    <g id="xtick_6">
     <g id="line2d_18">
      <g>
       <use xlink:href="#m3d6131edd9" x="172.51017" y="256.68" style="stroke: #000000; stroke-width: 0.8"/>
      </g>
     </g>
     <g id="text_9">
      <!-- S3 -->
      <g transform="translate(164.883608 272.798125) scale(0.12 -0.12)">
       <use xlink:href="#DejaVuSans-53"/>
       <use xlink:href="#DejaVuSans-33" x="63.476562"/>
      </g>
      <!-- 38C&gt;A -->
      <g transform="translate(151.553295 286.2355) scale(0.12 -0.12)">
       <defs>
        <path id="DejaVuSans-43" d="M 4122 4306 
L 4122 3641 
Q 3803 3938 3442 4084 
Q 3081 4231 2675 4231 
Q 1875 4231 1450 3742 
Q 1025 3253 1025 2328 
Q 1025 1406 1450 917 
Q 1875 428 2675 428 
Q 3081 428 3442 575 
Q 3803 722 4122 1019 
L 4122 359 
Q 3791 134 3420 21 
Q 3050 -91 2638 -91 
Q 1578 -91 968 557 
Q 359 1206 359 2328 
Q 359 3453 968 4101 
Q 1578 4750 2638 4750 
Q 3056 4750 3426 4639 
Q 3797 4528 4122 4306 
z
" transform="scale(0.015625)"/>
        <path id="DejaVuSans-3e" d="M 678 3150 
L 678 3719 
L 4684 2266 
L 4684 1747 
L 678 294 
L 678 863 
L 3897 2003 
L 678 3150 
z
" transform="scale(0.015625)"/>
        <path id="DejaVuSans-41" d="M 2188 4044 
L 1331 1722 
L 3047 1722 
L 2188 4044 
z
M 1831 4666 
L 2547 4666 
L 4325 0 
L 3669 0 
L 3244 1197 
L 1141 1197 
L 716 0 
L 50 0 
L 1831 4666 
z
" transform="scale(0.015625)"/>
       </defs>
       <use xlink:href="#DejaVuSans-33"/>
       <use xlink:href="#DejaVuSans-38" x="63.623047"/>
       <use xlink:href="#DejaVuSans-43" x="127.246094"/>
       <use xlink:href="#DejaVuSans-3e" x="197.070312"/>
       <use xlink:href="#DejaVuSans-41" x="280.859375"/>
      </g>
     </g>
    </g>
    <g id="xtick_7">
     <g id="line2d_19">
      <g>
       <use xlink:href="#m3d6131edd9" x="248.60108" y="256.68" style="stroke: #000000; stroke-width: 0.8"/>
      </g>
     </g>
     <g id="text_10">
      <!-- S3 -->
      <g transform="translate(240.974517 272.798125) scale(0.12 -0.12)">
       <use xlink:href="#DejaVuSans-53"/>
       <use xlink:href="#DejaVuSans-33" x="63.476562"/>
      </g>
      <!-- 50G&gt;U -->
      <g transform="translate(226.897955 286.2355) scale(0.12 -0.12)">
       <defs>
        <path id="DejaVuSans-35" d="M 691 4666 
L 3169 4666 
L 3169 4134 
L 1269 4134 
L 1269 2991 
Q 1406 3038 1543 3061 
Q 1681 3084 1819 3084 
Q 2600 3084 3056 2656 
Q 3513 2228 3513 1497 
Q 3513 744 3044 326 
Q 2575 -91 1722 -91 
Q 1428 -91 1123 -41 
Q 819 9 494 109 
L 494 744 
Q 775 591 1075 516 
Q 1375 441 1709 441 
Q 2250 441 2565 725 
Q 2881 1009 2881 1497 
Q 2881 1984 2565 2268 
Q 2250 2553 1709 2553 
Q 1456 2553 1204 2497 
Q 953 2441 691 2322 
L 691 4666 
z
" transform="scale(0.015625)"/>
        <path id="DejaVuSans-47" d="M 3809 666 
L 3809 1919 
L 2778 1919 
L 2778 2438 
L 4434 2438 
L 4434 434 
Q 4069 175 3628 42 
Q 3188 -91 2688 -91 
Q 1594 -91 976 548 
Q 359 1188 359 2328 
Q 359 3472 976 4111 
Q 1594 4750 2688 4750 
Q 3144 4750 3555 4637 
Q 3966 4525 4313 4306 
L 4313 3634 
Q 3963 3931 3569 4081 
Q 3175 4231 2741 4231 
Q 1884 4231 1454 3753 
Q 1025 3275 1025 2328 
Q 1025 1384 1454 906 
Q 1884 428 2741 428 
Q 3075 428 3337 486 
Q 3600 544 3809 666 
z
" transform="scale(0.015625)"/>
        <path id="DejaVuSans-55" d="M 556 4666 
L 1191 4666 
L 1191 1831 
Q 1191 1081 1462 751 
Q 1734 422 2344 422 
Q 2950 422 3222 751 
Q 3494 1081 3494 1831 
L 3494 4666 
L 4128 4666 
L 4128 1753 
Q 4128 841 3676 375 
Q 3225 -91 2344 -91 
Q 1459 -91 1007 375 
Q 556 841 556 1753 
L 556 4666 
z
" transform="scale(0.015625)"/>
       </defs>
       <use xlink:href="#DejaVuSans-35"/>
       <use xlink:href="#DejaVuSans-30" x="63.623047"/>
       <use xlink:href="#DejaVuSans-47" x="127.246094"/>
       <use xlink:href="#DejaVuSans-3e" x="204.736328"/>
       <use xlink:href="#DejaVuSans-55" x="288.525391"/>
      </g>
     </g>
    </g>
    <g id="xtick_8">
     <g id="line2d_20">
      <g>
       <use xlink:href="#m3d6131edd9" x="324.691989" y="256.68" style="stroke: #000000; stroke-width: 0.8"/>
      </g>
     </g>
     <g id="text_11">
      <!-- S3 -->
      <g transform="translate(317.065426 272.798125) scale(0.12 -0.12)">
       <use xlink:href="#DejaVuSans-53"/>
       <use xlink:href="#DejaVuSans-33" x="63.476562"/>
      </g>
      <!-- 38C&gt;A -->
      <g transform="translate(303.735114 286.2355) scale(0.12 -0.12)">
       <use xlink:href="#DejaVuSans-33"/>
       <use xlink:href="#DejaVuSans-38" x="63.623047"/>
       <use xlink:href="#DejaVuSans-43" x="127.246094"/>
       <use xlink:href="#DejaVuSans-3e" x="197.070312"/>
       <use xlink:href="#DejaVuSans-41" x="280.859375"/>
      </g>
      <!-- 50G&gt;U -->
      <g transform="translate(302.988864 299.672875) scale(0.12 -0.12)">
       <use xlink:href="#DejaVuSans-35"/>
       <use xlink:href="#DejaVuSans-30" x="63.623047"/>
       <use xlink:href="#DejaVuSans-47" x="127.246094"/>
       <use xlink:href="#DejaVuSans-3e" x="204.736328"/>
       <use xlink:href="#DejaVuSans-55" x="288.525391"/>
      </g>
     </g>
    </g>
   </g>
   <g id="matplotlib.axis_4">
    <g id="ytick_7">
     <g id="line2d_21">
      <path d="M 57.105625 250.152527 
L 364.005625 250.152527 
" clip-path="url(#p2812522f88)" style="fill: none; stroke: #b0b0b0; stroke-width: 0.8; stroke-linecap: round"/>
     </g>
     <g id="line2d_22">
      <g>
       <use xlink:href="#m4e6ebde5fb" x="57.105625" y="250.152527" style="stroke: #000000; stroke-width: 0.8"/>
      </g>
     </g>
     <g id="text_12">
      <!-- −25 -->
      <g transform="translate(24.78 254.71159) scale(0.12 -0.12)">
       <defs>
        <path id="DejaVuSans-2212" d="M 678 2272 
L 4684 2272 
L 4684 1741 
L 678 1741 
L 678 2272 
z
" transform="scale(0.015625)"/>
       </defs>
       <use xlink:href="#DejaVuSans-2212"/>
       <use xlink:href="#DejaVuSans-32" x="83.789062"/>
       <use xlink:href="#DejaVuSans-35" x="147.412109"/>
      </g>
     </g>
    </g>
    <g id="ytick_8">
     <g id="line2d_23">
      <path d="M 57.105625 217.515165 
L 364.005625 217.515165 
" clip-path="url(#p2812522f88)" style="fill: none; stroke: #b0b0b0; stroke-width: 0.8; stroke-linecap: round"/>
     </g>
     <g id="line2d_24">
      <g>
       <use xlink:href="#m4e6ebde5fb" x="57.105625" y="217.515165" style="stroke: #000000; stroke-width: 0.8"/>
      </g>
     </g>
     <g id="text_13">
      <!-- 0 -->
      <g transform="translate(42.470625 222.074227) scale(0.12 -0.12)">
       <use xlink:href="#DejaVuSans-30"/>
      </g>
     </g>
    </g>
    <g id="ytick_9">
     <g id="line2d_25">
      <path d="M 57.105625 184.877802 
L 364.005625 184.877802 
" clip-path="url(#p2812522f88)" style="fill: none; stroke: #b0b0b0; stroke-width: 0.8; stroke-linecap: round"/>
     </g>
     <g id="line2d_26">
      <g>
       <use xlink:href="#m4e6ebde5fb" x="57.105625" y="184.877802" style="stroke: #000000; stroke-width: 0.8"/>
      </g>
     </g>
     <g id="text_14">
      <!-- 25 -->
      <g transform="translate(34.835625 189.436865) scale(0.12 -0.12)">
       <use xlink:href="#DejaVuSans-32"/>
       <use xlink:href="#DejaVuSans-35" x="63.623047"/>
      </g>
     </g>
    </g>
    <g id="text_15">
     <!-- $\Delta$ Strength (a.u.) -->
     <g transform="translate(17.84 269.367692) rotate(-90) scale(0.14 -0.14)">
      <defs>
       <path id="DejaVuSans-394" d="M 2188 4044 
L 906 525 
L 3472 525 
L 2188 4044 
z
M 50 0 
L 1831 4666 
L 2547 4666 
L 4325 0 
L 50 0 
z
" transform="scale(0.015625)"/>
      </defs>
      <use xlink:href="#DejaVuSans-394" transform="translate(0 0.015625)"/>
      <use xlink:href="#DejaVuSans-20" transform="translate(68.408203 0.015625)"/>
      <use xlink:href="#DejaVuSans-53" transform="translate(100.195312 0.015625)"/>
      <use xlink:href="#DejaVuSans-74" transform="translate(163.671875 0.015625)"/>
      <use xlink:href="#DejaVuSans-72" transform="translate(202.880859 0.015625)"/>
      <use xlink:href="#DejaVuSans-65" transform="translate(243.994141 0.015625)"/>
      <use xlink:href="#DejaVuSans-6e" transform="translate(305.517578 0.015625)"/>
      <use xlink:href="#DejaVuSans-67" transform="translate(368.896484 0.015625)"/>
      <use xlink:href="#DejaVuSans-74" transform="translate(432.373047 0.015625)"/>
      <use xlink:href="#DejaVuSans-68" transform="translate(471.582031 0.015625)"/>
      <use xlink:href="#DejaVuSans-20" transform="translate(534.960938 0.015625)"/>
      <use xlink:href="#DejaVuSans-28" transform="translate(566.748047 0.015625)"/>
      <use xlink:href="#DejaVuSans-61" transform="translate(605.761719 0.015625)"/>
      <use xlink:href="#DejaVuSans-2e" transform="translate(667.041016 0.015625)"/>
      <use xlink:href="#DejaVuSans-75" transform="translate(698.828125 0.015625)"/>
      <use xlink:href="#DejaVuSans-2e" transform="translate(762.207031 0.015625)"/>
      <use xlink:href="#DejaVuSans-29" transform="translate(793.994141 0.015625)"/>
     </g>
    </g>
   </g>
   <g id="patch_79">
    <path d="M 71.055625 217.515165 
L 121.782898 217.515165 
L 121.782898 217.095072 
L 71.055625 217.095072 
z
" clip-path="url(#p2812522f88)" style="fill: #dad7cd; stroke: #6b6b6b; stroke-linejoin: miter"/>
   </g>
   <g id="patch_80">
    <path d="M 147.146534 217.515165 
L 197.873807 217.515165 
L 197.873807 175.527144 
L 147.146534 175.527144 
z
" clip-path="url(#p2812522f88)" style="fill: #dad7cd; stroke: #6b6b6b; stroke-linejoin: miter"/>
   </g>
   <g id="patch_81">
    <path d="M 223.237443 217.515165 
L 273.964716 217.515165 
L 273.964716 188.380851 
L 223.237443 188.380851 
z
" clip-path="url(#p2812522f88)" style="fill: #dad7cd; stroke: #6b6b6b; stroke-linejoin: miter"/>
   </g>
   <g id="patch_82">
    <path d="M 299.328352 217.515165 
L 350.055625 217.515165 
L 350.055625 208.219525 
L 299.328352 208.219525 
z
" clip-path="url(#p2812522f88)" style="fill: #dad7cd; stroke: #6b6b6b; stroke-linejoin: miter"/>
   </g>
   <g id="patch_83">
    <path d="M 57.105625 256.68 
L 57.105625 165.295385 
" style="fill: none; stroke: #333333; stroke-width: 2; stroke-linejoin: miter; stroke-linecap: square"/>
   </g>
   <g id="patch_84">
    <path d="M 364.005625 256.68 
L 364.005625 165.295385 
" style="fill: none; stroke: #333333; stroke-width: 2; stroke-linejoin: miter; stroke-linecap: square"/>
   </g>
   <g id="patch_85">
    <path d="M 57.105625 256.68 
L 364.005625 256.68 
" style="fill: none; stroke: #333333; stroke-width: 2; stroke-linejoin: miter; stroke-linecap: square"/>
   </g>
   <g id="LineCollection_1">
    <path d="M 57.105625 217.515165 
L 364.005625 217.515165 
" clip-path="url(#p2812522f88)" style="fill: none; stroke: #000000"/>
   </g>
  </g>
  <g id="axes_3">
   <g id="matplotlib.axis_5">
    <g id="ytick_10">
     <g id="line2d_27">
      <defs>
       <path id="mc736927cca" d="M 0 0 
L 3.5 0 
" style="stroke: #000000; stroke-width: 0.8"/>
      </defs>
      <g>
       <use xlink:href="#mc736927cca" x="364.005625" y="240.097058" style="stroke: #000000; stroke-width: 0.8"/>
      </g>
     </g>
     <g id="text_16">
      <!-- 0.1 -->
      <g transform="translate(371.005625 245.415964) scale(0.14 -0.14)">
       <use xlink:href="#DejaVuSans-30"/>
       <use xlink:href="#DejaVuSans-2e" x="63.623047"/>
       <use xlink:href="#DejaVuSans-31" x="95.410156"/>
      </g>
     </g>
    </g>
    <g id="ytick_11">
     <g id="line2d_28">
      <g>
       <use xlink:href="#mc736927cca" x="364.005625" y="227.263458" style="stroke: #000000; stroke-width: 0.8"/>
      </g>
     </g>
     <g id="text_17">
      <!-- 0.3 -->
      <g transform="translate(371.005625 232.582364) scale(0.14 -0.14)">
       <use xlink:href="#DejaVuSans-30"/>
       <use xlink:href="#DejaVuSans-2e" x="63.623047"/>
       <use xlink:href="#DejaVuSans-33" x="95.410156"/>
      </g>
     </g>
    </g>
    <g id="ytick_12">
     <g id="line2d_29">
      <g>
       <use xlink:href="#mc736927cca" x="364.005625" y="207.767133" style="stroke: #000000; stroke-width: 0.8"/>
      </g>
     </g>
     <g id="text_18">
      <!-- 0.7 -->
      <g transform="translate(371.005625 213.08604) scale(0.14 -0.14)">
       <defs>
        <path id="DejaVuSans-37" d="M 525 4666 
L 3525 4666 
L 3525 4397 
L 1831 0 
L 1172 0 
L 2766 4134 
L 525 4134 
L 525 4666 
z
" transform="scale(0.015625)"/>
       </defs>
       <use xlink:href="#DejaVuSans-30"/>
       <use xlink:href="#DejaVuSans-2e" x="63.623047"/>
       <use xlink:href="#DejaVuSans-37" x="95.410156"/>
      </g>
     </g>
    </g>
    <g id="ytick_13">
     <g id="line2d_30">
      <g>
       <use xlink:href="#mc736927cca" x="364.005625" y="190.24056" style="stroke: #000000; stroke-width: 0.8"/>
      </g>
     </g>
     <g id="text_19">
      <!-- 0.9 -->
      <g transform="translate(371.005625 195.559467) scale(0.14 -0.14)">
       <defs>
        <path id="DejaVuSans-39" d="M 703 97 
L 703 672 
Q 941 559 1184 500 
Q 1428 441 1663 441 
Q 2288 441 2617 861 
Q 2947 1281 2994 2138 
Q 2813 1869 2534 1725 
Q 2256 1581 1919 1581 
Q 1219 1581 811 2004 
Q 403 2428 403 3163 
Q 403 3881 828 4315 
Q 1253 4750 1959 4750 
Q 2769 4750 3195 4129 
Q 3622 3509 3622 2328 
Q 3622 1225 3098 567 
Q 2575 -91 1691 -91 
Q 1453 -91 1209 -44 
Q 966 3 703 97 
z
M 1959 2075 
Q 2384 2075 2632 2365 
Q 2881 2656 2881 3163 
Q 2881 3666 2632 3958 
Q 2384 4250 1959 4250 
Q 1534 4250 1286 3958 
Q 1038 3666 1038 3163 
Q 1038 2656 1286 2365 
Q 1534 2075 1959 2075 
z
" transform="scale(0.015625)"/>
       </defs>
       <use xlink:href="#DejaVuSans-30"/>
       <use xlink:href="#DejaVuSans-2e" x="63.623047"/>
       <use xlink:href="#DejaVuSans-39" x="95.410156"/>
      </g>
     </g>
    </g>
    <g id="text_20">
     <!-- Predicted PSI -->
     <g transform="translate(407.907813 256.800505) rotate(-90) scale(0.14 -0.14)">
      <defs>
       <path id="DejaVuSans-50" d="M 1259 4147 
L 1259 2394 
L 2053 2394 
Q 2494 2394 2734 2622 
Q 2975 2850 2975 3272 
Q 2975 3691 2734 3919 
Q 2494 4147 2053 4147 
L 1259 4147 
z
M 628 4666 
L 2053 4666 
Q 2838 4666 3239 4311 
Q 3641 3956 3641 3272 
Q 3641 2581 3239 2228 
Q 2838 1875 2053 1875 
L 1259 1875 
L 1259 0 
L 628 0 
L 628 4666 
z
" transform="scale(0.015625)"/>
       <path id="DejaVuSans-64" d="M 2906 2969 
L 2906 4863 
L 3481 4863 
L 3481 0 
L 2906 0 
L 2906 525 
Q 2725 213 2448 61 
Q 2172 -91 1784 -91 
Q 1150 -91 751 415 
Q 353 922 353 1747 
Q 353 2572 751 3078 
Q 1150 3584 1784 3584 
Q 2172 3584 2448 3432 
Q 2725 3281 2906 2969 
z
M 947 1747 
Q 947 1113 1208 752 
Q 1469 391 1925 391 
Q 2381 391 2643 752 
Q 2906 1113 2906 1747 
Q 2906 2381 2643 2742 
Q 2381 3103 1925 3103 
Q 1469 3103 1208 2742 
Q 947 2381 947 1747 
z
" transform="scale(0.015625)"/>
       <path id="DejaVuSans-69" d="M 603 3500 
L 1178 3500 
L 1178 0 
L 603 0 
L 603 3500 
z
M 603 4863 
L 1178 4863 
L 1178 4134 
L 603 4134 
L 603 4863 
z
" transform="scale(0.015625)"/>
       <path id="DejaVuSans-63" d="M 3122 3366 
L 3122 2828 
Q 2878 2963 2633 3030 
Q 2388 3097 2138 3097 
Q 1578 3097 1268 2742 
Q 959 2388 959 1747 
Q 959 1106 1268 751 
Q 1578 397 2138 397 
Q 2388 397 2633 464 
Q 2878 531 3122 666 
L 3122 134 
Q 2881 22 2623 -34 
Q 2366 -91 2075 -91 
Q 1284 -91 818 406 
Q 353 903 353 1747 
Q 353 2603 823 3093 
Q 1294 3584 2113 3584 
Q 2378 3584 2631 3529 
Q 2884 3475 3122 3366 
z
" transform="scale(0.015625)"/>
       <path id="DejaVuSans-49" d="M 628 4666 
L 1259 4666 
L 1259 0 
L 628 0 
L 628 4666 
z
" transform="scale(0.015625)"/>
      </defs>
      <use xlink:href="#DejaVuSans-50"/>
      <use xlink:href="#DejaVuSans-72" x="58.552734"/>
      <use xlink:href="#DejaVuSans-65" x="97.416016"/>
      <use xlink:href="#DejaVuSans-64" x="158.939453"/>
      <use xlink:href="#DejaVuSans-69" x="222.416016"/>
      <use xlink:href="#DejaVuSans-63" x="250.199219"/>
      <use xlink:href="#DejaVuSans-74" x="305.179688"/>
      <use xlink:href="#DejaVuSans-65" x="344.388672"/>
      <use xlink:href="#DejaVuSans-64" x="405.912109"/>
      <use xlink:href="#DejaVuSans-20" x="469.388672"/>
      <use xlink:href="#DejaVuSans-50" x="501.175781"/>
      <use xlink:href="#DejaVuSans-53" x="561.478516"/>
      <use xlink:href="#DejaVuSans-49" x="624.955078"/>
     </g>
    </g>
   </g>
   <g id="patch_86">
    <path d="M 57.105625 256.68 
L 57.105625 165.295385 
" style="fill: none; stroke: #333333; stroke-width: 2; stroke-linejoin: miter; stroke-linecap: square"/>
   </g>
   <g id="patch_87">
    <path d="M 57.105625 256.68 
L 364.005625 256.68 
" style="fill: none; stroke: #333333; stroke-width: 2; stroke-linejoin: miter; stroke-linecap: square"/>
   </g>
  </g>
 </g>
 <defs>
  <clipPath id="p1f5f5bae82">
   <rect x="57.105625" y="7.2" width="306.9" height="146.215385"/>
  </clipPath>
  <clipPath id="p2812522f88">
   <rect x="57.105625" y="165.295385" width="306.9" height="91.384615"/>
  </clipPath>
 </defs>
</svg>
