<?xml version="1.0" encoding="utf-8" standalone="no"?>
<!DOCTYPE svg PUBLIC "-//W3C//DTD SVG 1.1//EN"
  "http://www.w3.org/Graphics/SVG/1.1/DTD/svg11.dtd">
<svg height="424.892812pt" version="1.1" viewBox="0 0 531.080625 424.892812" width="531.080625pt" xmlns="http://www.w3.org/2000/svg" xmlns:xlink="http://www.w3.org/1999/xlink">
 <metadata>
  <rdf:RDF xmlns:cc="http://creativecommons.org/ns#" xmlns:dc="http://purl.org/dc/elements/1.1/" xmlns:rdf="http://www.w3.org/1999/02/22-rdf-syntax-ns#">
   <cc:Work>
    <dc:type rdf:resource="http://purl.org/dc/dcmitype/StillImage"/>
    <dc:date>2022-09-22T23:26:28.528460</dc:date>
    <dc:format>image/svg+xml</dc:format>
    <dc:creator>
     <cc:Agent>
      <dc:title>Matplotlib v3.4.3, https://matplotlib.org/</dc:title>
     </cc:Agent>
    </dc:creator>
   </cc:Work>
  </rdf:RDF>
 </metadata>
 <defs>
  <style type="text/css">*{stroke-linecap:butt;stroke-linejoin:round;}</style>
 </defs>
 <g id="figure_1">
  <g id="patch_1">
   <path d="M -0 424.892812 
L 531.080625 424.892812 
L 531.080625 0 
L -0 0 
z
" style="fill:none;"/>
  </g>
  <g id="axes_1">
   <g id="patch_2">
    <path d="M 53.605625 198.289062 
L 477.065625 198.289062 
L 477.065625 11.759062 
L 53.605625 11.759062 
z
" style="fill:none;"/>
   </g>
   <g id="matplotlib.axis_1">
    <g id="xtick_1">
     <g id="line2d_1"/>
    </g>
    <g id="xtick_2">
     <g id="line2d_2"/>
    </g>
    <g id="xtick_3">
     <g id="line2d_3"/>
    </g>
    <g id="xtick_4">
     <g id="line2d_4"/>
    </g>
    <g id="xtick_5">
     <g id="line2d_5"/>
    </g>
   </g>
   <g id="matplotlib.axis_2">
    <g id="ytick_1">
     <g id="line2d_6">
      <path clip-path="url(#pa0d8f67a65)" d="M 53.605625 198.289062 
L 477.065625 198.289062 
" style="fill:none;stroke:#b0b0b0;stroke-linecap:round;stroke-width:0.8;"/>
     </g>
     <g id="line2d_7"/>
     <g id="text_1">
      <!-- 0 -->
      <g transform="translate(42.470625 202.848125)scale(0.12 -0.12)">
       <defs>
        <path d="M 2034 4250 
Q 1547 4250 1301 3770 
Q 1056 3291 1056 2328 
Q 1056 1369 1301 889 
Q 1547 409 2034 409 
Q 2525 409 2770 889 
Q 3016 1369 3016 2328 
Q 3016 3291 2770 3770 
Q 2525 4250 2034 4250 
z
M 2034 4750 
Q 2819 4750 3233 4129 
Q 3647 3509 3647 2328 
Q 3647 1150 3233 529 
Q 2819 -91 2034 -91 
Q 1250 -91 836 529 
Q 422 1150 422 2328 
Q 422 3509 836 4129 
Q 1250 4750 2034 4750 
z
" id="DejaVuSans-30" transform="scale(0.015625)"/>
       </defs>
       <use xlink:href="#DejaVuSans-30"/>
      </g>
     </g>
    </g>
    <g id="ytick_2">
     <g id="line2d_8">
      <path clip-path="url(#pa0d8f67a65)" d="M 53.605625 160.983062 
L 477.065625 160.983062 
" style="fill:none;stroke:#b0b0b0;stroke-linecap:round;stroke-width:0.8;"/>
     </g>
     <g id="line2d_9"/>
     <g id="text_2">
      <!-- 20 -->
      <g transform="translate(34.835625 165.542125)scale(0.12 -0.12)">
       <defs>
        <path d="M 1228 531 
L 3431 531 
L 3431 0 
L 469 0 
L 469 531 
Q 828 903 1448 1529 
Q 2069 2156 2228 2338 
Q 2531 2678 2651 2914 
Q 2772 3150 2772 3378 
Q 2772 3750 2511 3984 
Q 2250 4219 1831 4219 
Q 1534 4219 1204 4116 
Q 875 4013 500 3803 
L 500 4441 
Q 881 4594 1212 4672 
Q 1544 4750 1819 4750 
Q 2544 4750 2975 4387 
Q 3406 4025 3406 3419 
Q 3406 3131 3298 2873 
Q 3191 2616 2906 2266 
Q 2828 2175 2409 1742 
Q 1991 1309 1228 531 
z
" id="DejaVuSans-32" transform="scale(0.015625)"/>
       </defs>
       <use xlink:href="#DejaVuSans-32"/>
       <use x="63.623047" xlink:href="#DejaVuSans-30"/>
      </g>
     </g>
    </g>
    <g id="ytick_3">
     <g id="line2d_10">
      <path clip-path="url(#pa0d8f67a65)" d="M 53.605625 123.677062 
L 477.065625 123.677062 
" style="fill:none;stroke:#b0b0b0;stroke-linecap:round;stroke-width:0.8;"/>
     </g>
     <g id="line2d_11"/>
     <g id="text_3">
      <!-- 40 -->
      <g transform="translate(34.835625 128.236125)scale(0.12 -0.12)">
       <defs>
        <path d="M 2419 4116 
L 825 1625 
L 2419 1625 
L 2419 4116 
z
M 2253 4666 
L 3047 4666 
L 3047 1625 
L 3713 1625 
L 3713 1100 
L 3047 1100 
L 3047 0 
L 2419 0 
L 2419 1100 
L 313 1100 
L 313 1709 
L 2253 4666 
z
" id="DejaVuSans-34" transform="scale(0.015625)"/>
       </defs>
       <use xlink:href="#DejaVuSans-34"/>
       <use x="63.623047" xlink:href="#DejaVuSans-30"/>
      </g>
     </g>
    </g>
    <g id="ytick_4">
     <g id="line2d_12">
      <path clip-path="url(#pa0d8f67a65)" d="M 53.605625 86.371062 
L 477.065625 86.371062 
" style="fill:none;stroke:#b0b0b0;stroke-linecap:round;stroke-width:0.8;"/>
     </g>
     <g id="line2d_13"/>
     <g id="text_4">
      <!-- 60 -->
      <g transform="translate(34.835625 90.930125)scale(0.12 -0.12)">
       <defs>
        <path d="M 2113 2584 
Q 1688 2584 1439 2293 
Q 1191 2003 1191 1497 
Q 1191 994 1439 701 
Q 1688 409 2113 409 
Q 2538 409 2786 701 
Q 3034 994 3034 1497 
Q 3034 2003 2786 2293 
Q 2538 2584 2113 2584 
z
M 3366 4563 
L 3366 3988 
Q 3128 4100 2886 4159 
Q 2644 4219 2406 4219 
Q 1781 4219 1451 3797 
Q 1122 3375 1075 2522 
Q 1259 2794 1537 2939 
Q 1816 3084 2150 3084 
Q 2853 3084 3261 2657 
Q 3669 2231 3669 1497 
Q 3669 778 3244 343 
Q 2819 -91 2113 -91 
Q 1303 -91 875 529 
Q 447 1150 447 2328 
Q 447 3434 972 4092 
Q 1497 4750 2381 4750 
Q 2619 4750 2861 4703 
Q 3103 4656 3366 4563 
z
" id="DejaVuSans-36" transform="scale(0.015625)"/>
       </defs>
       <use xlink:href="#DejaVuSans-36"/>
       <use x="63.623047" xlink:href="#DejaVuSans-30"/>
      </g>
     </g>
    </g>
    <g id="ytick_5">
     <g id="line2d_14">
      <path clip-path="url(#pa0d8f67a65)" d="M 53.605625 49.065062 
L 477.065625 49.065062 
" style="fill:none;stroke:#b0b0b0;stroke-linecap:round;stroke-width:0.8;"/>
     </g>
     <g id="line2d_15"/>
     <g id="text_5">
      <!-- 80 -->
      <g transform="translate(34.835625 53.624125)scale(0.12 -0.12)">
       <defs>
        <path d="M 2034 2216 
Q 1584 2216 1326 1975 
Q 1069 1734 1069 1313 
Q 1069 891 1326 650 
Q 1584 409 2034 409 
Q 2484 409 2743 651 
Q 3003 894 3003 1313 
Q 3003 1734 2745 1975 
Q 2488 2216 2034 2216 
z
M 1403 2484 
Q 997 2584 770 2862 
Q 544 3141 544 3541 
Q 544 4100 942 4425 
Q 1341 4750 2034 4750 
Q 2731 4750 3128 4425 
Q 3525 4100 3525 3541 
Q 3525 3141 3298 2862 
Q 3072 2584 2669 2484 
Q 3125 2378 3379 2068 
Q 3634 1759 3634 1313 
Q 3634 634 3220 271 
Q 2806 -91 2034 -91 
Q 1263 -91 848 271 
Q 434 634 434 1313 
Q 434 1759 690 2068 
Q 947 2378 1403 2484 
z
M 1172 3481 
Q 1172 3119 1398 2916 
Q 1625 2713 2034 2713 
Q 2441 2713 2670 2916 
Q 2900 3119 2900 3481 
Q 2900 3844 2670 4047 
Q 2441 4250 2034 4250 
Q 1625 4250 1398 4047 
Q 1172 3844 1172 3481 
z
" id="DejaVuSans-38" transform="scale(0.015625)"/>
       </defs>
       <use xlink:href="#DejaVuSans-38"/>
       <use x="63.623047" xlink:href="#DejaVuSans-30"/>
      </g>
     </g>
    </g>
    <g id="ytick_6">
     <g id="line2d_16">
      <path clip-path="url(#pa0d8f67a65)" d="M 53.605625 11.759062 
L 477.065625 11.759062 
" style="fill:none;stroke:#b0b0b0;stroke-linecap:round;stroke-width:0.8;"/>
     </g>
     <g id="line2d_17"/>
     <g id="text_6">
      <!-- 100 -->
      <g transform="translate(27.200625 16.318125)scale(0.12 -0.12)">
       <defs>
        <path d="M 794 531 
L 1825 531 
L 1825 4091 
L 703 3866 
L 703 4441 
L 1819 4666 
L 2450 4666 
L 2450 531 
L 3481 531 
L 3481 0 
L 794 0 
L 794 531 
z
" id="DejaVuSans-31" transform="scale(0.015625)"/>
       </defs>
       <use xlink:href="#DejaVuSans-31"/>
       <use x="63.623047" xlink:href="#DejaVuSans-30"/>
       <use x="127.246094" xlink:href="#DejaVuSans-30"/>
      </g>
     </g>
    </g>
    <g id="text_7">
     <!-- Strength (a.u.) -->
     <g transform="translate(20.289062 156.162344)rotate(-90)scale(0.14 -0.14)">
      <defs>
       <path d="M 3425 4513 
L 3425 3897 
Q 3066 4069 2747 4153 
Q 2428 4238 2131 4238 
Q 1616 4238 1336 4038 
Q 1056 3838 1056 3469 
Q 1056 3159 1242 3001 
Q 1428 2844 1947 2747 
L 2328 2669 
Q 3034 2534 3370 2195 
Q 3706 1856 3706 1288 
Q 3706 609 3251 259 
Q 2797 -91 1919 -91 
Q 1588 -91 1214 -16 
Q 841 59 441 206 
L 441 856 
Q 825 641 1194 531 
Q 1563 422 1919 422 
Q 2459 422 2753 634 
Q 3047 847 3047 1241 
Q 3047 1584 2836 1778 
Q 2625 1972 2144 2069 
L 1759 2144 
Q 1053 2284 737 2584 
Q 422 2884 422 3419 
Q 422 4038 858 4394 
Q 1294 4750 2059 4750 
Q 2388 4750 2728 4690 
Q 3069 4631 3425 4513 
z
" id="DejaVuSans-53" transform="scale(0.015625)"/>
       <path d="M 1172 4494 
L 1172 3500 
L 2356 3500 
L 2356 3053 
L 1172 3053 
L 1172 1153 
Q 1172 725 1289 603 
Q 1406 481 1766 481 
L 2356 481 
L 2356 0 
L 1766 0 
Q 1100 0 847 248 
Q 594 497 594 1153 
L 594 3053 
L 172 3053 
L 172 3500 
L 594 3500 
L 594 4494 
L 1172 4494 
z
" id="DejaVuSans-74" transform="scale(0.015625)"/>
       <path d="M 2631 2963 
Q 2534 3019 2420 3045 
Q 2306 3072 2169 3072 
Q 1681 3072 1420 2755 
Q 1159 2438 1159 1844 
L 1159 0 
L 581 0 
L 581 3500 
L 1159 3500 
L 1159 2956 
Q 1341 3275 1631 3429 
Q 1922 3584 2338 3584 
Q 2397 3584 2469 3576 
Q 2541 3569 2628 3553 
L 2631 2963 
z
" id="DejaVuSans-72" transform="scale(0.015625)"/>
       <path d="M 3597 1894 
L 3597 1613 
L 953 1613 
Q 991 1019 1311 708 
Q 1631 397 2203 397 
Q 2534 397 2845 478 
Q 3156 559 3463 722 
L 3463 178 
Q 3153 47 2828 -22 
Q 2503 -91 2169 -91 
Q 1331 -91 842 396 
Q 353 884 353 1716 
Q 353 2575 817 3079 
Q 1281 3584 2069 3584 
Q 2775 3584 3186 3129 
Q 3597 2675 3597 1894 
z
M 3022 2063 
Q 3016 2534 2758 2815 
Q 2500 3097 2075 3097 
Q 1594 3097 1305 2825 
Q 1016 2553 972 2059 
L 3022 2063 
z
" id="DejaVuSans-65" transform="scale(0.015625)"/>
       <path d="M 3513 2113 
L 3513 0 
L 2938 0 
L 2938 2094 
Q 2938 2591 2744 2837 
Q 2550 3084 2163 3084 
Q 1697 3084 1428 2787 
Q 1159 2491 1159 1978 
L 1159 0 
L 581 0 
L 581 3500 
L 1159 3500 
L 1159 2956 
Q 1366 3272 1645 3428 
Q 1925 3584 2291 3584 
Q 2894 3584 3203 3211 
Q 3513 2838 3513 2113 
z
" id="DejaVuSans-6e" transform="scale(0.015625)"/>
       <path d="M 2906 1791 
Q 2906 2416 2648 2759 
Q 2391 3103 1925 3103 
Q 1463 3103 1205 2759 
Q 947 2416 947 1791 
Q 947 1169 1205 825 
Q 1463 481 1925 481 
Q 2391 481 2648 825 
Q 2906 1169 2906 1791 
z
M 3481 434 
Q 3481 -459 3084 -895 
Q 2688 -1331 1869 -1331 
Q 1566 -1331 1297 -1286 
Q 1028 -1241 775 -1147 
L 775 -588 
Q 1028 -725 1275 -790 
Q 1522 -856 1778 -856 
Q 2344 -856 2625 -561 
Q 2906 -266 2906 331 
L 2906 616 
Q 2728 306 2450 153 
Q 2172 0 1784 0 
Q 1141 0 747 490 
Q 353 981 353 1791 
Q 353 2603 747 3093 
Q 1141 3584 1784 3584 
Q 2172 3584 2450 3431 
Q 2728 3278 2906 2969 
L 2906 3500 
L 3481 3500 
L 3481 434 
z
" id="DejaVuSans-67" transform="scale(0.015625)"/>
       <path d="M 3513 2113 
L 3513 0 
L 2938 0 
L 2938 2094 
Q 2938 2591 2744 2837 
Q 2550 3084 2163 3084 
Q 1697 3084 1428 2787 
Q 1159 2491 1159 1978 
L 1159 0 
L 581 0 
L 581 4863 
L 1159 4863 
L 1159 2956 
Q 1366 3272 1645 3428 
Q 1925 3584 2291 3584 
Q 2894 3584 3203 3211 
Q 3513 2838 3513 2113 
z
" id="DejaVuSans-68" transform="scale(0.015625)"/>
       <path id="DejaVuSans-20" transform="scale(0.015625)"/>
       <path d="M 1984 4856 
Q 1566 4138 1362 3434 
Q 1159 2731 1159 2009 
Q 1159 1288 1364 580 
Q 1569 -128 1984 -844 
L 1484 -844 
Q 1016 -109 783 600 
Q 550 1309 550 2009 
Q 550 2706 781 3412 
Q 1013 4119 1484 4856 
L 1984 4856 
z
" id="DejaVuSans-28" transform="scale(0.015625)"/>
       <path d="M 2194 1759 
Q 1497 1759 1228 1600 
Q 959 1441 959 1056 
Q 959 750 1161 570 
Q 1363 391 1709 391 
Q 2188 391 2477 730 
Q 2766 1069 2766 1631 
L 2766 1759 
L 2194 1759 
z
M 3341 1997 
L 3341 0 
L 2766 0 
L 2766 531 
Q 2569 213 2275 61 
Q 1981 -91 1556 -91 
Q 1019 -91 701 211 
Q 384 513 384 1019 
Q 384 1609 779 1909 
Q 1175 2209 1959 2209 
L 2766 2209 
L 2766 2266 
Q 2766 2663 2505 2880 
Q 2244 3097 1772 3097 
Q 1472 3097 1187 3025 
Q 903 2953 641 2809 
L 641 3341 
Q 956 3463 1253 3523 
Q 1550 3584 1831 3584 
Q 2591 3584 2966 3190 
Q 3341 2797 3341 1997 
z
" id="DejaVuSans-61" transform="scale(0.015625)"/>
       <path d="M 684 794 
L 1344 794 
L 1344 0 
L 684 0 
L 684 794 
z
" id="DejaVuSans-2e" transform="scale(0.015625)"/>
       <path d="M 544 1381 
L 544 3500 
L 1119 3500 
L 1119 1403 
Q 1119 906 1312 657 
Q 1506 409 1894 409 
Q 2359 409 2629 706 
Q 2900 1003 2900 1516 
L 2900 3500 
L 3475 3500 
L 3475 0 
L 2900 0 
L 2900 538 
Q 2691 219 2414 64 
Q 2138 -91 1772 -91 
Q 1169 -91 856 284 
Q 544 659 544 1381 
z
M 1991 3584 
L 1991 3584 
z
" id="DejaVuSans-75" transform="scale(0.015625)"/>
       <path d="M 513 4856 
L 1013 4856 
Q 1481 4119 1714 3412 
Q 1947 2706 1947 2009 
Q 1947 1309 1714 600 
Q 1481 -109 1013 -844 
L 513 -844 
Q 928 -128 1133 580 
Q 1338 1288 1338 2009 
Q 1338 2731 1133 3434 
Q 928 4138 513 4856 
z
" id="DejaVuSans-29" transform="scale(0.015625)"/>
      </defs>
      <use xlink:href="#DejaVuSans-53"/>
      <use x="63.476562" xlink:href="#DejaVuSans-74"/>
      <use x="102.685547" xlink:href="#DejaVuSans-72"/>
      <use x="141.548828" xlink:href="#DejaVuSans-65"/>
      <use x="203.072266" xlink:href="#DejaVuSans-6e"/>
      <use x="266.451172" xlink:href="#DejaVuSans-67"/>
      <use x="329.927734" xlink:href="#DejaVuSans-74"/>
      <use x="369.136719" xlink:href="#DejaVuSans-68"/>
      <use x="432.515625" xlink:href="#DejaVuSans-20"/>
      <use x="464.302734" xlink:href="#DejaVuSans-28"/>
      <use x="503.316406" xlink:href="#DejaVuSans-61"/>
      <use x="564.595703" xlink:href="#DejaVuSans-2e"/>
      <use x="596.382812" xlink:href="#DejaVuSans-75"/>
      <use x="659.761719" xlink:href="#DejaVuSans-2e"/>
      <use x="691.548828" xlink:href="#DejaVuSans-29"/>
     </g>
    </g>
   </g>
   <g id="patch_3">
    <path clip-path="url(#pa0d8f67a65)" d="M 72.853807 198.289062 
L 100.351209 198.289062 
L 100.351209 157.610424 
L 72.853807 157.610424 
z
" style="fill:#c5d6fb;stroke:#6b6b6b;stroke-linejoin:miter;"/>
   </g>
   <g id="patch_4">
    <path clip-path="url(#pa0d8f67a65)" d="M 100.351209 198.289062 
L 127.848612 198.289062 
L 127.848612 131.781831 
L 100.351209 131.781831 
z
" style="fill:#f6c3c2;stroke:#6b6b6b;stroke-linejoin:miter;"/>
   </g>
   <g id="patch_5">
    <path clip-path="url(#pa0d8f67a65)" d="M 72.853807 157.610424 
L 100.351209 157.610424 
L 100.351209 126.815163 
L 72.853807 126.815163 
z
" style="fill:#c5d6fb;stroke:#6b6b6b;stroke-linejoin:miter;"/>
   </g>
   <g id="patch_6">
    <path clip-path="url(#pa0d8f67a65)" d="M 100.351209 131.781831 
L 127.848612 131.781831 
L 127.848612 106.243985 
L 100.351209 106.243985 
z
" style="fill:#f6c3c2;stroke:#6b6b6b;stroke-linejoin:miter;"/>
   </g>
   <g id="patch_7">
    <path clip-path="url(#pa0d8f67a65)" d="M 72.853807 126.815163 
L 100.351209 126.815163 
L 100.351209 102.804365 
L 72.853807 102.804365 
z
" style="fill:#c5d6fb;stroke:#6b6b6b;stroke-linejoin:miter;"/>
   </g>
   <g id="patch_8">
    <path clip-path="url(#pa0d8f67a65)" d="M 100.351209 106.243985 
L 127.848612 106.243985 
L 127.848612 83.700767 
L 100.351209 83.700767 
z
" style="fill:#f6c3c2;stroke:#6b6b6b;stroke-linejoin:miter;"/>
   </g>
   <g id="patch_9">
    <path clip-path="url(#pa0d8f67a65)" d="M 72.853807 102.804365 
L 100.351209 102.804365 
L 100.351209 83.001014 
L 72.853807 83.001014 
z
" style="fill:#c5d6fb;stroke:#6b6b6b;stroke-linejoin:miter;"/>
   </g>
   <g id="patch_10">
    <path clip-path="url(#pa0d8f67a65)" d="M 100.351209 83.700767 
L 127.848612 83.700767 
L 127.848612 64.450497 
L 100.351209 64.450497 
z
" style="fill:#f6c3c2;stroke:#6b6b6b;stroke-linejoin:miter;"/>
   </g>
   <g id="patch_11">
    <path clip-path="url(#pa0d8f67a65)" d="M 72.853807 83.001014 
L 100.351209 83.001014 
L 100.351209 69.114745 
L 72.853807 69.114745 
z
" style="fill:#c5d6fb;stroke:#6b6b6b;stroke-linejoin:miter;"/>
   </g>
   <g id="patch_12">
    <path clip-path="url(#pa0d8f67a65)" d="M 100.351209 64.450497 
L 127.848612 64.450497 
L 127.848612 46.023216 
L 100.351209 46.023216 
z
" style="fill:#f6c3c2;stroke:#6b6b6b;stroke-linejoin:miter;"/>
   </g>
   <g id="patch_13">
    <path clip-path="url(#pa0d8f67a65)" d="M 72.853807 69.114745 
L 100.351209 69.114745 
L 100.351209 60.200825 
L 72.853807 60.200825 
z
" style="fill:#c5d6fb;stroke:#6b6b6b;stroke-linejoin:miter;"/>
   </g>
   <g id="patch_14">
    <path clip-path="url(#pa0d8f67a65)" d="M 100.351209 46.023216 
L 127.848612 46.023216 
L 127.848612 35.763906 
L 100.351209 35.763906 
z
" style="fill:#f6c3c2;stroke:#6b6b6b;stroke-linejoin:miter;"/>
   </g>
   <g id="patch_15">
    <path clip-path="url(#pa0d8f67a65)" d="M 72.853807 60.200825 
L 100.351209 60.200825 
L 100.351209 54.842018 
L 72.853807 54.842018 
z
" style="fill:#c5d6fb;stroke:#6b6b6b;stroke-linejoin:miter;"/>
   </g>
   <g id="patch_16">
    <path clip-path="url(#pa0d8f67a65)" d="M 100.351209 35.763906 
L 127.848612 35.763906 
L 127.848612 28.623603 
L 100.351209 28.623603 
z
" style="fill:#f6c3c2;stroke:#6b6b6b;stroke-linejoin:miter;"/>
   </g>
   <g id="patch_17">
    <path clip-path="url(#pa0d8f67a65)" d="M 72.853807 54.842018 
L 100.351209 54.842018 
L 100.351209 54.818249 
L 72.853807 54.818249 
z
" style="fill:#c5d6fb;stroke:#6b6b6b;stroke-linejoin:miter;"/>
   </g>
   <g id="patch_18">
    <path clip-path="url(#pa0d8f67a65)" d="M 100.351209 28.623603 
L 127.848612 28.623603 
L 127.848612 25.62704 
L 100.351209 25.62704 
z
" style="fill:#f6c3c2;stroke:#6b6b6b;stroke-linejoin:miter;"/>
   </g>
   <g id="patch_19">
    <path clip-path="url(#pa0d8f67a65)" d="M 72.853807 54.818249 
L 100.351209 54.818249 
L 100.351209 54.818245 
L 72.853807 54.818245 
z
" style="fill:#c5d6fb;stroke:#6b6b6b;stroke-linejoin:miter;"/>
   </g>
   <g id="patch_20">
    <path clip-path="url(#pa0d8f67a65)" d="M 100.351209 25.62704 
L 127.848612 25.62704 
L 127.848612 24.540423 
L 100.351209 24.540423 
z
" style="fill:#f6c3c2;stroke:#6b6b6b;stroke-linejoin:miter;"/>
   </g>
   <g id="patch_21">
    <path clip-path="url(#pa0d8f67a65)" d="M 155.346015 198.289062 
L 182.843417 198.289062 
L 182.843417 157.610424 
L 155.346015 157.610424 
z
" style="fill:#c5d6fb;stroke:#6b6b6b;stroke-linejoin:miter;"/>
   </g>
   <g id="patch_22">
    <path clip-path="url(#pa0d8f67a65)" d="M 182.843417 198.289062 
L 210.34082 198.289062 
L 210.34082 145.137157 
L 182.843417 145.137157 
z
" style="fill:#f6c3c2;stroke:#6b6b6b;stroke-linejoin:miter;"/>
   </g>
   <g id="patch_23">
    <path clip-path="url(#pa0d8f67a65)" d="M 155.346015 157.610424 
L 182.843417 157.610424 
L 182.843417 125.820578 
L 155.346015 125.820578 
z
" style="fill:#c5d6fb;stroke:#6b6b6b;stroke-linejoin:miter;"/>
   </g>
   <g id="patch_24">
    <path clip-path="url(#pa0d8f67a65)" d="M 182.843417 145.137157 
L 210.34082 145.137157 
L 210.34082 117.077143 
L 182.843417 117.077143 
z
" style="fill:#f6c3c2;stroke:#6b6b6b;stroke-linejoin:miter;"/>
   </g>
   <g id="patch_25">
    <path clip-path="url(#pa0d8f67a65)" d="M 155.346015 125.820578 
L 182.843417 125.820578 
L 182.843417 101.982345 
L 155.346015 101.982345 
z
" style="fill:#c5d6fb;stroke:#6b6b6b;stroke-linejoin:miter;"/>
   </g>
   <g id="patch_26">
    <path clip-path="url(#pa0d8f67a65)" d="M 182.843417 117.077143 
L 210.34082 117.077143 
L 210.34082 97.224789 
L 182.843417 97.224789 
z
" style="fill:#f6c3c2;stroke:#6b6b6b;stroke-linejoin:miter;"/>
   </g>
   <g id="patch_27">
    <path clip-path="url(#pa0d8f67a65)" d="M 155.346015 101.982345 
L 182.843417 101.982345 
L 182.843417 94.620047 
L 155.346015 94.620047 
z
" style="fill:#c5d6fb;stroke:#6b6b6b;stroke-linejoin:miter;"/>
   </g>
   <g id="patch_28">
    <path clip-path="url(#pa0d8f67a65)" d="M 182.843417 97.224789 
L 210.34082 97.224789 
L 210.34082 86.871838 
L 182.843417 86.871838 
z
" style="fill:#f6c3c2;stroke:#6b6b6b;stroke-linejoin:miter;"/>
   </g>
   <g id="patch_29">
    <path clip-path="url(#pa0d8f67a65)" d="M 155.346015 94.620047 
L 182.843417 94.620047 
L 182.843417 89.46935 
L 155.346015 89.46935 
z
" style="fill:#c5d6fb;stroke:#6b6b6b;stroke-linejoin:miter;"/>
   </g>
   <g id="patch_30">
    <path clip-path="url(#pa0d8f67a65)" d="M 182.843417 86.871838 
L 210.34082 86.871838 
L 210.34082 79.646988 
L 182.843417 79.646988 
z
" style="fill:#f6c3c2;stroke:#6b6b6b;stroke-linejoin:miter;"/>
   </g>
   <g id="patch_31">
    <path clip-path="url(#pa0d8f67a65)" d="M 155.346015 89.46935 
L 182.843417 89.46935 
L 182.843417 84.711178 
L 155.346015 84.711178 
z
" style="fill:#c5d6fb;stroke:#6b6b6b;stroke-linejoin:miter;"/>
   </g>
   <g id="patch_32">
    <path clip-path="url(#pa0d8f67a65)" d="M 182.843417 79.646988 
L 210.34082 79.646988 
L 210.34082 74.098347 
L 182.843417 74.098347 
z
" style="fill:#f6c3c2;stroke:#6b6b6b;stroke-linejoin:miter;"/>
   </g>
   <g id="patch_33">
    <path clip-path="url(#pa0d8f67a65)" d="M 155.346015 84.711178 
L 182.843417 84.711178 
L 182.843417 81.837018 
L 155.346015 81.837018 
z
" style="fill:#c5d6fb;stroke:#6b6b6b;stroke-linejoin:miter;"/>
   </g>
   <g id="patch_34">
    <path clip-path="url(#pa0d8f67a65)" d="M 182.843417 74.098347 
L 210.34082 74.098347 
L 210.34082 73.181282 
L 182.843417 73.181282 
z
" style="fill:#f6c3c2;stroke:#6b6b6b;stroke-linejoin:miter;"/>
   </g>
   <g id="patch_35">
    <path clip-path="url(#pa0d8f67a65)" d="M 155.346015 81.837018 
L 182.843417 81.837018 
L 182.843417 81.653909 
L 155.346015 81.653909 
z
" style="fill:#c5d6fb;stroke:#6b6b6b;stroke-linejoin:miter;"/>
   </g>
   <g id="patch_36">
    <path clip-path="url(#pa0d8f67a65)" d="M 182.843417 73.181282 
L 210.34082 73.181282 
L 210.34082 72.36665 
L 182.843417 72.36665 
z
" style="fill:#f6c3c2;stroke:#6b6b6b;stroke-linejoin:miter;"/>
   </g>
   <g id="patch_37">
    <path clip-path="url(#pa0d8f67a65)" d="M 155.346015 81.653909 
L 182.843417 81.653909 
L 182.843417 81.653905 
L 155.346015 81.653905 
z
" style="fill:#c5d6fb;stroke:#6b6b6b;stroke-linejoin:miter;"/>
   </g>
   <g id="patch_38">
    <path clip-path="url(#pa0d8f67a65)" d="M 182.843417 72.36665 
L 210.34082 72.36665 
L 210.34082 72.220391 
L 182.843417 72.220391 
z
" style="fill:#f6c3c2;stroke:#6b6b6b;stroke-linejoin:miter;"/>
   </g>
   <g id="patch_39">
    <path clip-path="url(#pa0d8f67a65)" d="M 237.838222 198.289062 
L 265.335625 198.289062 
L 265.335625 157.610424 
L 237.838222 157.610424 
z
" style="fill:#c5d6fb;stroke:#6b6b6b;stroke-linejoin:miter;"/>
   </g>
   <g id="patch_40">
    <path clip-path="url(#pa0d8f67a65)" d="M 265.335625 198.289062 
L 292.833028 198.289062 
L 292.833028 174.623144 
L 265.335625 174.623144 
z
" style="fill:#f6c3c2;stroke:#6b6b6b;stroke-linejoin:miter;"/>
   </g>
   <g id="patch_41">
    <path clip-path="url(#pa0d8f67a65)" d="M 237.838222 157.610424 
L 265.335625 157.610424 
L 265.335625 131.338376 
L 237.838222 131.338376 
z
" style="fill:#c5d6fb;stroke:#6b6b6b;stroke-linejoin:miter;"/>
   </g>
   <g id="patch_42">
    <path clip-path="url(#pa0d8f67a65)" d="M 265.335625 174.623144 
L 292.833028 174.623144 
L 292.833028 152.471041 
L 265.335625 152.471041 
z
" style="fill:#f6c3c2;stroke:#6b6b6b;stroke-linejoin:miter;"/>
   </g>
   <g id="patch_43">
    <path clip-path="url(#pa0d8f67a65)" d="M 237.838222 131.338376 
L 265.335625 131.338376 
L 265.335625 109.587177 
L 237.838222 109.587177 
z
" style="fill:#c5d6fb;stroke:#6b6b6b;stroke-linejoin:miter;"/>
   </g>
   <g id="patch_44">
    <path clip-path="url(#pa0d8f67a65)" d="M 265.335625 152.471041 
L 292.833028 152.471041 
L 292.833028 136.846057 
L 265.335625 136.846057 
z
" style="fill:#f6c3c2;stroke:#6b6b6b;stroke-linejoin:miter;"/>
   </g>
   <g id="patch_45">
    <path clip-path="url(#pa0d8f67a65)" d="M 237.838222 109.587177 
L 265.335625 109.587177 
L 265.335625 89.330956 
L 237.838222 89.330956 
z
" style="fill:#c5d6fb;stroke:#6b6b6b;stroke-linejoin:miter;"/>
   </g>
   <g id="patch_46">
    <path clip-path="url(#pa0d8f67a65)" d="M 265.335625 136.846057 
L 292.833028 136.846057 
L 292.833028 124.761768 
L 265.335625 124.761768 
z
" style="fill:#f6c3c2;stroke:#6b6b6b;stroke-linejoin:miter;"/>
   </g>
   <g id="patch_47">
    <path clip-path="url(#pa0d8f67a65)" d="M 237.838222 89.330956 
L 265.335625 89.330956 
L 265.335625 80.435922 
L 237.838222 80.435922 
z
" style="fill:#c5d6fb;stroke:#6b6b6b;stroke-linejoin:miter;"/>
   </g>
   <g id="patch_48">
    <path clip-path="url(#pa0d8f67a65)" d="M 265.335625 124.761768 
L 292.833028 124.761768 
L 292.833028 114.657282 
L 265.335625 114.657282 
z
" style="fill:#f6c3c2;stroke:#6b6b6b;stroke-linejoin:miter;"/>
   </g>
   <g id="patch_49">
    <path clip-path="url(#pa0d8f67a65)" d="M 237.838222 80.435922 
L 265.335625 80.435922 
L 265.335625 75.098756 
L 237.838222 75.098756 
z
" style="fill:#c5d6fb;stroke:#6b6b6b;stroke-linejoin:miter;"/>
   </g>
   <g id="patch_50">
    <path clip-path="url(#pa0d8f67a65)" d="M 265.335625 114.657282 
L 292.833028 114.657282 
L 292.833028 109.456541 
L 265.335625 109.456541 
z
" style="fill:#f6c3c2;stroke:#6b6b6b;stroke-linejoin:miter;"/>
   </g>
   <g id="patch_51">
    <path clip-path="url(#pa0d8f67a65)" d="M 237.838222 75.098756 
L 265.335625 75.098756 
L 265.335625 74.3969 
L 237.838222 74.3969 
z
" style="fill:#c5d6fb;stroke:#6b6b6b;stroke-linejoin:miter;"/>
   </g>
   <g id="patch_52">
    <path clip-path="url(#pa0d8f67a65)" d="M 265.335625 109.456541 
L 292.833028 109.456541 
L 292.833028 105.84658 
L 265.335625 105.84658 
z
" style="fill:#f6c3c2;stroke:#6b6b6b;stroke-linejoin:miter;"/>
   </g>
   <g id="patch_53">
    <path clip-path="url(#pa0d8f67a65)" d="M 237.838222 74.3969 
L 265.335625 74.3969 
L 265.335625 73.92924 
L 237.838222 73.92924 
z
" style="fill:#c5d6fb;stroke:#6b6b6b;stroke-linejoin:miter;"/>
   </g>
   <g id="patch_54">
    <path clip-path="url(#pa0d8f67a65)" d="M 265.335625 105.84658 
L 292.833028 105.84658 
L 292.833028 103.881962 
L 265.335625 103.881962 
z
" style="fill:#f6c3c2;stroke:#6b6b6b;stroke-linejoin:miter;"/>
   </g>
   <g id="patch_55">
    <path clip-path="url(#pa0d8f67a65)" d="M 237.838222 73.92924 
L 265.335625 73.92924 
L 265.335625 73.929235 
L 237.838222 73.929235 
z
" style="fill:#c5d6fb;stroke:#6b6b6b;stroke-linejoin:miter;"/>
   </g>
   <g id="patch_56">
    <path clip-path="url(#pa0d8f67a65)" d="M 265.335625 103.881962 
L 292.833028 103.881962 
L 292.833028 103.718651 
L 265.335625 103.718651 
z
" style="fill:#f6c3c2;stroke:#6b6b6b;stroke-linejoin:miter;"/>
   </g>
   <g id="patch_57">
    <path clip-path="url(#pa0d8f67a65)" d="M 320.33043 198.289062 
L 347.827833 198.289062 
L 347.827833 157.610424 
L 320.33043 157.610424 
z
" style="fill:#c5d6fb;stroke:#6b6b6b;stroke-linejoin:miter;"/>
   </g>
   <g id="patch_58">
    <path clip-path="url(#pa0d8f67a65)" d="M 347.827833 198.289062 
L 375.325235 198.289062 
L 375.325235 150.535859 
L 347.827833 150.535859 
z
" style="fill:#f6c3c2;stroke:#6b6b6b;stroke-linejoin:miter;"/>
   </g>
   <g id="patch_59">
    <path clip-path="url(#pa0d8f67a65)" d="M 320.33043 157.610424 
L 347.827833 157.610424 
L 347.827833 117.146726 
L 320.33043 117.146726 
z
" style="fill:#c5d6fb;stroke:#6b6b6b;stroke-linejoin:miter;"/>
   </g>
   <g id="patch_60">
    <path clip-path="url(#pa0d8f67a65)" d="M 347.827833 150.535859 
L 375.325235 150.535859 
L 375.325235 114.720936 
L 347.827833 114.720936 
z
" style="fill:#f6c3c2;stroke:#6b6b6b;stroke-linejoin:miter;"/>
   </g>
   <g id="patch_61">
    <path clip-path="url(#pa0d8f67a65)" d="M 320.33043 117.146726 
L 347.827833 117.146726 
L 347.827833 91.501443 
L 320.33043 91.501443 
z
" style="fill:#c5d6fb;stroke:#6b6b6b;stroke-linejoin:miter;"/>
   </g>
   <g id="patch_62">
    <path clip-path="url(#pa0d8f67a65)" d="M 347.827833 114.720936 
L 375.325235 114.720936 
L 375.325235 90.445704 
L 347.827833 90.445704 
z
" style="fill:#f6c3c2;stroke:#6b6b6b;stroke-linejoin:miter;"/>
   </g>
   <g id="patch_63">
    <path clip-path="url(#pa0d8f67a65)" d="M 320.33043 91.501443 
L 347.827833 91.501443 
L 347.827833 77.219944 
L 320.33043 77.219944 
z
" style="fill:#c5d6fb;stroke:#6b6b6b;stroke-linejoin:miter;"/>
   </g>
   <g id="patch_64">
    <path clip-path="url(#pa0d8f67a65)" d="M 347.827833 90.445704 
L 375.325235 90.445704 
L 375.325235 77.43728 
L 347.827833 77.43728 
z
" style="fill:#f6c3c2;stroke:#6b6b6b;stroke-linejoin:miter;"/>
   </g>
   <g id="patch_65">
    <path clip-path="url(#pa0d8f67a65)" d="M 320.33043 77.219944 
L 347.827833 77.219944 
L 347.827833 64.150658 
L 320.33043 64.150658 
z
" style="fill:#c5d6fb;stroke:#6b6b6b;stroke-linejoin:miter;"/>
   </g>
   <g id="patch_66">
    <path clip-path="url(#pa0d8f67a65)" d="M 347.827833 77.43728 
L 375.325235 77.43728 
L 375.325235 69.397651 
L 347.827833 69.397651 
z
" style="fill:#f6c3c2;stroke:#6b6b6b;stroke-linejoin:miter;"/>
   </g>
   <g id="patch_67">
    <path clip-path="url(#pa0d8f67a65)" d="M 320.33043 64.150658 
L 347.827833 64.150658 
L 347.827833 51.89597 
L 320.33043 51.89597 
z
" style="fill:#c5d6fb;stroke:#6b6b6b;stroke-linejoin:miter;"/>
   </g>
   <g id="patch_68">
    <path clip-path="url(#pa0d8f67a65)" d="M 347.827833 69.397651 
L 375.325235 69.397651 
L 375.325235 62.374404 
L 347.827833 62.374404 
z
" style="fill:#f6c3c2;stroke:#6b6b6b;stroke-linejoin:miter;"/>
   </g>
   <g id="patch_69">
    <path clip-path="url(#pa0d8f67a65)" d="M 320.33043 51.89597 
L 347.827833 51.89597 
L 347.827833 45.457439 
L 320.33043 45.457439 
z
" style="fill:#c5d6fb;stroke:#6b6b6b;stroke-linejoin:miter;"/>
   </g>
   <g id="patch_70">
    <path clip-path="url(#pa0d8f67a65)" d="M 347.827833 62.374404 
L 375.325235 62.374404 
L 375.325235 57.431803 
L 347.827833 57.431803 
z
" style="fill:#f6c3c2;stroke:#6b6b6b;stroke-linejoin:miter;"/>
   </g>
   <g id="patch_71">
    <path clip-path="url(#pa0d8f67a65)" d="M 320.33043 45.457439 
L 347.827833 45.457439 
L 347.827833 39.025733 
L 320.33043 39.025733 
z
" style="fill:#c5d6fb;stroke:#6b6b6b;stroke-linejoin:miter;"/>
   </g>
   <g id="patch_72">
    <path clip-path="url(#pa0d8f67a65)" d="M 347.827833 57.431803 
L 375.325235 57.431803 
L 375.325235 55.101195 
L 347.827833 55.101195 
z
" style="fill:#f6c3c2;stroke:#6b6b6b;stroke-linejoin:miter;"/>
   </g>
   <g id="patch_73">
    <path clip-path="url(#pa0d8f67a65)" d="M 320.33043 39.025733 
L 347.827833 39.025733 
L 347.827833 39.025728 
L 320.33043 39.025728 
z
" style="fill:#c5d6fb;stroke:#6b6b6b;stroke-linejoin:miter;"/>
   </g>
   <g id="patch_74">
    <path clip-path="url(#pa0d8f67a65)" d="M 347.827833 55.101195 
L 375.325235 55.101195 
L 375.325235 52.844115 
L 347.827833 52.844115 
z
" style="fill:#f6c3c2;stroke:#6b6b6b;stroke-linejoin:miter;"/>
   </g>
   <g id="patch_75">
    <path clip-path="url(#pa0d8f67a65)" d="M 402.822638 198.289062 
L 430.320041 198.289062 
L 430.320041 140.208747 
L 402.822638 140.208747 
z
" style="fill:#c5d6fb;stroke:#6b6b6b;stroke-linejoin:miter;"/>
   </g>
   <g id="patch_76">
    <path clip-path="url(#pa0d8f67a65)" d="M 430.320041 198.289062 
L 457.817443 198.289062 
L 457.817443 178.05266 
L 430.320041 178.05266 
z
" style="fill:#f6c3c2;stroke:#6b6b6b;stroke-linejoin:miter;"/>
   </g>
   <g id="patch_77">
    <path clip-path="url(#pa0d8f67a65)" d="M 402.822638 140.208747 
L 430.320041 140.208747 
L 430.320041 99.530109 
L 402.822638 99.530109 
z
" style="fill:#c5d6fb;stroke:#6b6b6b;stroke-linejoin:miter;"/>
   </g>
   <g id="patch_78">
    <path clip-path="url(#pa0d8f67a65)" d="M 430.320041 178.05266 
L 457.817443 178.05266 
L 457.817443 160.823618 
L 430.320041 160.823618 
z
" style="fill:#f6c3c2;stroke:#6b6b6b;stroke-linejoin:miter;"/>
   </g>
   <g id="patch_79">
    <path clip-path="url(#pa0d8f67a65)" d="M 402.822638 99.530109 
L 430.320041 99.530109 
L 430.320041 78.204289 
L 402.822638 78.204289 
z
" style="fill:#c5d6fb;stroke:#6b6b6b;stroke-linejoin:miter;"/>
   </g>
   <g id="patch_80">
    <path clip-path="url(#pa0d8f67a65)" d="M 430.320041 160.823618 
L 457.817443 160.823618 
L 457.817443 144.66458 
L 430.320041 144.66458 
z
" style="fill:#f6c3c2;stroke:#6b6b6b;stroke-linejoin:miter;"/>
   </g>
   <g id="patch_81">
    <path clip-path="url(#pa0d8f67a65)" d="M 402.822638 78.204289 
L 430.320041 78.204289 
L 430.320041 61.220959 
L 402.822638 61.220959 
z
" style="fill:#c5d6fb;stroke:#6b6b6b;stroke-linejoin:miter;"/>
   </g>
   <g id="patch_82">
    <path clip-path="url(#pa0d8f67a65)" d="M 430.320041 144.66458 
L 457.817443 144.66458 
L 457.817443 133.470384 
L 430.320041 133.470384 
z
" style="fill:#f6c3c2;stroke:#6b6b6b;stroke-linejoin:miter;"/>
   </g>
   <g id="patch_83">
    <path clip-path="url(#pa0d8f67a65)" d="M 402.822638 61.220959 
L 430.320041 61.220959 
L 430.320041 53.376725 
L 402.822638 53.376725 
z
" style="fill:#c5d6fb;stroke:#6b6b6b;stroke-linejoin:miter;"/>
   </g>
   <g id="patch_84">
    <path clip-path="url(#pa0d8f67a65)" d="M 430.320041 133.470384 
L 457.817443 133.470384 
L 457.817443 122.283091 
L 430.320041 122.283091 
z
" style="fill:#f6c3c2;stroke:#6b6b6b;stroke-linejoin:miter;"/>
   </g>
   <g id="patch_85">
    <path clip-path="url(#pa0d8f67a65)" d="M 402.822638 53.376725 
L 430.320041 53.376725 
L 430.320041 47.384245 
L 402.822638 47.384245 
z
" style="fill:#c5d6fb;stroke:#6b6b6b;stroke-linejoin:miter;"/>
   </g>
   <g id="patch_86">
    <path clip-path="url(#pa0d8f67a65)" d="M 430.320041 122.283091 
L 457.817443 122.283091 
L 457.817443 117.8571 
L 430.320041 117.8571 
z
" style="fill:#f6c3c2;stroke:#6b6b6b;stroke-linejoin:miter;"/>
   </g>
   <g id="patch_87">
    <path clip-path="url(#pa0d8f67a65)" d="M 402.822638 47.384245 
L 430.320041 47.384245 
L 430.320041 43.664027 
L 402.822638 43.664027 
z
" style="fill:#c5d6fb;stroke:#6b6b6b;stroke-linejoin:miter;"/>
   </g>
   <g id="patch_88">
    <path clip-path="url(#pa0d8f67a65)" d="M 430.320041 117.8571 
L 457.817443 117.8571 
L 457.817443 114.283097 
L 430.320041 114.283097 
z
" style="fill:#f6c3c2;stroke:#6b6b6b;stroke-linejoin:miter;"/>
   </g>
   <g id="patch_89">
    <path clip-path="url(#pa0d8f67a65)" d="M 402.822638 43.664027 
L 430.320041 43.664027 
L 430.320041 42.709587 
L 402.822638 42.709587 
z
" style="fill:#c5d6fb;stroke:#6b6b6b;stroke-linejoin:miter;"/>
   </g>
   <g id="patch_90">
    <path clip-path="url(#pa0d8f67a65)" d="M 430.320041 114.283097 
L 457.817443 114.283097 
L 457.817443 111.967652 
L 430.320041 111.967652 
z
" style="fill:#f6c3c2;stroke:#6b6b6b;stroke-linejoin:miter;"/>
   </g>
   <g id="patch_91">
    <path clip-path="url(#pa0d8f67a65)" d="M 402.822638 42.709587 
L 430.320041 42.709587 
L 430.320041 42.709583 
L 402.822638 42.709583 
z
" style="fill:#c5d6fb;stroke:#6b6b6b;stroke-linejoin:miter;"/>
   </g>
   <g id="patch_92">
    <path clip-path="url(#pa0d8f67a65)" d="M 430.320041 111.967652 
L 457.817443 111.967652 
L 457.817443 110.135884 
L 430.320041 110.135884 
z
" style="fill:#f6c3c2;stroke:#6b6b6b;stroke-linejoin:miter;"/>
   </g>
   <g id="patch_93">
    <path d="M 53.605625 198.289062 
L 53.605625 11.759062 
" style="fill:none;stroke:#333333;stroke-linecap:square;stroke-linejoin:miter;stroke-width:2;"/>
   </g>
   <g id="patch_94">
    <path d="M 477.065625 198.289062 
L 477.065625 11.759062 
" style="fill:none;stroke:#333333;stroke-linecap:square;stroke-linejoin:miter;stroke-width:2;"/>
   </g>
   <g id="patch_95">
    <path d="M 53.605625 198.289062 
L 477.065625 198.289062 
" style="fill:none;stroke:#333333;stroke-linecap:square;stroke-linejoin:miter;stroke-width:2;"/>
   </g>
   <g id="text_8">
    <!-- B -->
    <g transform="translate(83.172039 180.709118)scale(0.1 -0.1)">
     <defs>
      <path d="M 1259 2228 
L 1259 519 
L 2272 519 
Q 2781 519 3026 730 
Q 3272 941 3272 1375 
Q 3272 1813 3026 2020 
Q 2781 2228 2272 2228 
L 1259 2228 
z
M 1259 4147 
L 1259 2741 
L 2194 2741 
Q 2656 2741 2882 2914 
Q 3109 3088 3109 3444 
Q 3109 3797 2882 3972 
Q 2656 4147 2194 4147 
L 1259 4147 
z
M 628 4666 
L 2241 4666 
Q 2963 4666 3353 4366 
Q 3744 4066 3744 3513 
Q 3744 3084 3544 2831 
Q 3344 2578 2956 2516 
Q 3422 2416 3680 2098 
Q 3938 1781 3938 1306 
Q 3938 681 3513 340 
Q 3088 0 2303 0 
L 628 0 
L 628 4666 
z
" id="DejaVuSans-42" transform="scale(0.015625)"/>
     </defs>
     <use xlink:href="#DejaVuSans-42"/>
    </g>
   </g>
   <g id="text_9">
    <!-- 8 -->
    <g transform="translate(110.918661 167.794822)scale(0.1 -0.1)">
     <use xlink:href="#DejaVuSans-38"/>
    </g>
   </g>
   <g id="text_10">
    <!-- 1 -->
    <g transform="translate(83.421258 144.972168)scale(0.1 -0.1)">
     <use xlink:href="#DejaVuSans-31"/>
    </g>
   </g>
   <g id="text_11">
    <!-- 7 -->
    <g transform="translate(110.918661 121.772283)scale(0.1 -0.1)">
     <defs>
      <path d="M 525 4666 
L 3525 4666 
L 3525 4397 
L 1831 0 
L 1172 0 
L 2766 4134 
L 525 4134 
L 525 4666 
z
" id="DejaVuSans-37" transform="scale(0.015625)"/>
     </defs>
     <use xlink:href="#DejaVuSans-37"/>
    </g>
   </g>
   <g id="text_12">
    <!-- 3 -->
    <g transform="translate(83.421258 117.569139)scale(0.1 -0.1)">
     <defs>
      <path d="M 2597 2516 
Q 3050 2419 3304 2112 
Q 3559 1806 3559 1356 
Q 3559 666 3084 287 
Q 2609 -91 1734 -91 
Q 1441 -91 1130 -33 
Q 819 25 488 141 
L 488 750 
Q 750 597 1062 519 
Q 1375 441 1716 441 
Q 2309 441 2620 675 
Q 2931 909 2931 1356 
Q 2931 1769 2642 2001 
Q 2353 2234 1838 2234 
L 1294 2234 
L 1294 2753 
L 1863 2753 
Q 2328 2753 2575 2939 
Q 2822 3125 2822 3475 
Q 2822 3834 2567 4026 
Q 2313 4219 1838 4219 
Q 1578 4219 1281 4162 
Q 984 4106 628 3988 
L 628 4550 
Q 988 4650 1302 4700 
Q 1616 4750 1894 4750 
Q 2613 4750 3031 4423 
Q 3450 4097 3450 3541 
Q 3450 3153 3228 2886 
Q 3006 2619 2597 2516 
z
" id="DejaVuSans-33" transform="scale(0.015625)"/>
     </defs>
     <use xlink:href="#DejaVuSans-33"/>
    </g>
   </g>
   <g id="text_13">
    <!-- S -->
    <g transform="translate(110.925692 97.731751)scale(0.1 -0.1)">
     <use xlink:href="#DejaVuSans-53"/>
    </g>
   </g>
   <g id="text_14">
    <!-- 2 -->
    <g transform="translate(83.421258 95.662064)scale(0.1 -0.1)">
     <use xlink:href="#DejaVuSans-32"/>
    </g>
   </g>
   <g id="text_15">
    <!-- 9 -->
    <g transform="translate(110.918661 76.835007)scale(0.1 -0.1)">
     <defs>
      <path d="M 703 97 
L 703 672 
Q 941 559 1184 500 
Q 1428 441 1663 441 
Q 2288 441 2617 861 
Q 2947 1281 2994 2138 
Q 2813 1869 2534 1725 
Q 2256 1581 1919 1581 
Q 1219 1581 811 2004 
Q 403 2428 403 3163 
Q 403 3881 828 4315 
Q 1253 4750 1959 4750 
Q 2769 4750 3195 4129 
Q 3622 3509 3622 2328 
Q 3622 1225 3098 567 
Q 2575 -91 1691 -91 
Q 1453 -91 1209 -44 
Q 966 3 703 97 
z
M 1959 2075 
Q 2384 2075 2632 2365 
Q 2881 2656 2881 3163 
Q 2881 3666 2632 3958 
Q 2384 4250 1959 4250 
Q 1534 4250 1286 3958 
Q 1038 3666 1038 3163 
Q 1038 2656 1286 2365 
Q 1534 2075 1959 2075 
z
" id="DejaVuSans-39" transform="scale(0.015625)"/>
     </defs>
     <use xlink:href="#DejaVuSans-39"/>
    </g>
   </g>
   <g id="text_16">
    <!-- B -->
    <g transform="translate(165.664247 180.709118)scale(0.1 -0.1)">
     <use xlink:href="#DejaVuSans-42"/>
    </g>
   </g>
   <g id="text_17">
    <!-- 7 -->
    <g transform="translate(193.410869 174.472485)scale(0.1 -0.1)">
     <use xlink:href="#DejaVuSans-37"/>
    </g>
   </g>
   <g id="text_18">
    <!-- 1 -->
    <g transform="translate(165.913466 144.474876)scale(0.1 -0.1)">
     <use xlink:href="#DejaVuSans-31"/>
    </g>
   </g>
   <g id="text_19">
    <!-- 9 -->
    <g transform="translate(193.410869 133.866525)scale(0.1 -0.1)">
     <use xlink:href="#DejaVuSans-39"/>
    </g>
   </g>
   <g id="text_20">
    <!-- 3 -->
    <g transform="translate(165.913466 116.660837)scale(0.1 -0.1)">
     <use xlink:href="#DejaVuSans-33"/>
    </g>
   </g>
   <g id="text_21">
    <!-- 8 -->
    <g transform="translate(193.410869 109.910341)scale(0.1 -0.1)">
     <use xlink:href="#DejaVuSans-38"/>
    </g>
   </g>
   <g id="text_22">
    <!-- B -->
    <g transform="translate(248.156455 180.709118)scale(0.1 -0.1)">
     <use xlink:href="#DejaVuSans-42"/>
    </g>
   </g>
   <g id="text_23">
    <!-- 7 -->
    <g transform="translate(275.903076 189.215478)scale(0.1 -0.1)">
     <use xlink:href="#DejaVuSans-37"/>
    </g>
   </g>
   <g id="text_24">
    <!-- 2 -->
    <g transform="translate(248.405674 147.233775)scale(0.1 -0.1)">
     <use xlink:href="#DejaVuSans-32"/>
    </g>
   </g>
   <g id="text_25">
    <!-- 9 -->
    <g transform="translate(275.903076 166.306467)scale(0.1 -0.1)">
     <use xlink:href="#DejaVuSans-39"/>
    </g>
   </g>
   <g id="text_26">
    <!-- 1 -->
    <g transform="translate(248.405674 123.222151)scale(0.1 -0.1)">
     <use xlink:href="#DejaVuSans-31"/>
    </g>
   </g>
   <g id="text_27">
    <!-- 3 -->
    <g transform="translate(248.405674 102.218441)scale(0.1 -0.1)">
     <use xlink:href="#DejaVuSans-33"/>
    </g>
   </g>
   <g id="text_28">
    <!-- B -->
    <g transform="translate(330.648663 180.709118)scale(0.1 -0.1)">
     <use xlink:href="#DejaVuSans-42"/>
    </g>
   </g>
   <g id="text_29">
    <!-- P -->
    <g transform="translate(358.56169 177.171836)scale(0.1 -0.1)">
     <defs>
      <path d="M 1259 4147 
L 1259 2394 
L 2053 2394 
Q 2494 2394 2734 2622 
Q 2975 2850 2975 3272 
Q 2975 3691 2734 3919 
Q 2494 4147 2053 4147 
L 1259 4147 
z
M 628 4666 
L 2053 4666 
Q 2838 4666 3239 4311 
Q 3641 3956 3641 3272 
Q 3641 2581 3239 2228 
Q 2838 1875 2053 1875 
L 1259 1875 
L 1259 0 
L 628 0 
L 628 4666 
z
" id="DejaVuSans-50" transform="scale(0.015625)"/>
     </defs>
     <use xlink:href="#DejaVuSans-50"/>
    </g>
   </g>
   <g id="text_30">
    <!-- 1 -->
    <g transform="translate(330.897881 140.13795)scale(0.1 -0.1)">
     <use xlink:href="#DejaVuSans-31"/>
    </g>
   </g>
   <g id="text_31">
    <!-- 9 -->
    <g transform="translate(358.395284 135.387772)scale(0.1 -0.1)">
     <use xlink:href="#DejaVuSans-39"/>
    </g>
   </g>
   <g id="text_32">
    <!-- 2 -->
    <g transform="translate(330.897881 107.08346)scale(0.1 -0.1)">
     <use xlink:href="#DejaVuSans-32"/>
    </g>
   </g>
   <g id="text_33">
    <!-- 7 -->
    <g transform="translate(358.395284 105.342695)scale(0.1 -0.1)">
     <use xlink:href="#DejaVuSans-37"/>
    </g>
   </g>
   <g id="text_34">
    <!-- 1 -->
    <g transform="translate(413.390089 172.00828)scale(0.1 -0.1)">
     <use xlink:href="#DejaVuSans-31"/>
    </g>
   </g>
   <g id="text_35">
    <!-- 8 -->
    <g transform="translate(440.887492 190.930236)scale(0.1 -0.1)">
     <use xlink:href="#DejaVuSans-38"/>
    </g>
   </g>
   <g id="text_36">
    <!-- B -->
    <g transform="translate(413.140871 122.628803)scale(0.1 -0.1)">
     <use xlink:href="#DejaVuSans-42"/>
    </g>
   </g>
   <g id="text_37">
    <!-- 2 -->
    <g transform="translate(413.390089 91.626574)scale(0.1 -0.1)">
     <use xlink:href="#DejaVuSans-32"/>
    </g>
   </g>
  </g>
  <g id="axes_2">
   <g id="patch_96">
    <path d="M 53.605625 402.579062 
L 477.065625 402.579062 
L 477.065625 216.049062 
L 53.605625 216.049062 
z
" style="fill:none;"/>
   </g>
   <g id="matplotlib.axis_3">
    <g id="xtick_6">
     <g id="line2d_18"/>
     <g id="text_38">
      <!-- V1 -->
      <g transform="translate(92.429334 415.197187)scale(0.12 -0.12)">
       <defs>
        <path d="M 1831 0 
L 50 4666 
L 709 4666 
L 2188 738 
L 3669 4666 
L 4325 4666 
L 2547 0 
L 1831 0 
z
" id="DejaVuSans-56" transform="scale(0.015625)"/>
       </defs>
       <use xlink:href="#DejaVuSans-56"/>
       <use x="68.408203" xlink:href="#DejaVuSans-31"/>
      </g>
     </g>
    </g>
    <g id="xtick_7">
     <g id="line2d_19"/>
     <g id="text_39">
      <!-- V2 -->
      <g transform="translate(174.921542 415.197187)scale(0.12 -0.12)">
       <use xlink:href="#DejaVuSans-56"/>
       <use x="68.408203" xlink:href="#DejaVuSans-32"/>
      </g>
     </g>
    </g>
    <g id="xtick_8">
     <g id="line2d_20"/>
     <g id="text_40">
      <!-- V3 -->
      <g transform="translate(257.41375 415.197187)scale(0.12 -0.12)">
       <use xlink:href="#DejaVuSans-56"/>
       <use x="68.408203" xlink:href="#DejaVuSans-33"/>
      </g>
     </g>
    </g>
    <g id="xtick_9">
     <g id="line2d_21"/>
     <g id="text_41">
      <!-- V4 -->
      <g transform="translate(339.905958 415.197187)scale(0.12 -0.12)">
       <use xlink:href="#DejaVuSans-56"/>
       <use x="68.408203" xlink:href="#DejaVuSans-34"/>
      </g>
     </g>
    </g>
    <g id="xtick_10">
     <g id="line2d_22"/>
     <g id="text_42">
      <!-- V5 -->
      <g transform="translate(422.398166 415.197187)scale(0.12 -0.12)">
       <defs>
        <path d="M 691 4666 
L 3169 4666 
L 3169 4134 
L 1269 4134 
L 1269 2991 
Q 1406 3038 1543 3061 
Q 1681 3084 1819 3084 
Q 2600 3084 3056 2656 
Q 3513 2228 3513 1497 
Q 3513 744 3044 326 
Q 2575 -91 1722 -91 
Q 1428 -91 1123 -41 
Q 819 9 494 109 
L 494 744 
Q 775 591 1075 516 
Q 1375 441 1709 441 
Q 2250 441 2565 725 
Q 2881 1009 2881 1497 
Q 2881 1984 2565 2268 
Q 2250 2553 1709 2553 
Q 1456 2553 1204 2497 
Q 953 2441 691 2322 
L 691 4666 
z
" id="DejaVuSans-35" transform="scale(0.015625)"/>
       </defs>
       <use xlink:href="#DejaVuSans-56"/>
       <use x="68.408203" xlink:href="#DejaVuSans-35"/>
      </g>
     </g>
    </g>
   </g>
   <g id="matplotlib.axis_4">
    <g id="ytick_7">
     <g id="line2d_23">
      <path clip-path="url(#pf90c647529)" d="M 53.605625 402.579062 
L 477.065625 402.579062 
" style="fill:none;stroke:#b0b0b0;stroke-linecap:round;stroke-width:0.8;"/>
     </g>
     <g id="line2d_24"/>
     <g id="text_43">
      <!-- −20 -->
      <g transform="translate(24.78 407.138125)scale(0.12 -0.12)">
       <defs>
        <path d="M 678 2272 
L 4684 2272 
L 4684 1741 
L 678 1741 
L 678 2272 
z
" id="DejaVuSans-2212" transform="scale(0.015625)"/>
       </defs>
       <use xlink:href="#DejaVuSans-2212"/>
       <use x="83.789062" xlink:href="#DejaVuSans-32"/>
       <use x="147.412109" xlink:href="#DejaVuSans-30"/>
      </g>
     </g>
    </g>
    <g id="ytick_8">
     <g id="line2d_25">
      <path clip-path="url(#pf90c647529)" d="M 53.605625 375.93192 
L 477.065625 375.93192 
" style="fill:none;stroke:#b0b0b0;stroke-linecap:round;stroke-width:0.8;"/>
     </g>
     <g id="line2d_26"/>
     <g id="text_44">
      <!-- −10 -->
      <g transform="translate(24.78 380.490982)scale(0.12 -0.12)">
       <use xlink:href="#DejaVuSans-2212"/>
       <use x="83.789062" xlink:href="#DejaVuSans-31"/>
       <use x="147.412109" xlink:href="#DejaVuSans-30"/>
      </g>
     </g>
    </g>
    <g id="ytick_9">
     <g id="line2d_27">
      <path clip-path="url(#pf90c647529)" d="M 53.605625 349.284777 
L 477.065625 349.284777 
" style="fill:none;stroke:#b0b0b0;stroke-linecap:round;stroke-width:0.8;"/>
     </g>
     <g id="line2d_28"/>
     <g id="text_45">
      <!-- 0 -->
      <g transform="translate(42.470625 353.843839)scale(0.12 -0.12)">
       <use xlink:href="#DejaVuSans-30"/>
      </g>
     </g>
    </g>
    <g id="ytick_10">
     <g id="line2d_29">
      <path clip-path="url(#pf90c647529)" d="M 53.605625 322.637634 
L 477.065625 322.637634 
" style="fill:none;stroke:#b0b0b0;stroke-linecap:round;stroke-width:0.8;"/>
     </g>
     <g id="line2d_30"/>
     <g id="text_46">
      <!-- 10 -->
      <g transform="translate(34.835625 327.196696)scale(0.12 -0.12)">
       <use xlink:href="#DejaVuSans-31"/>
       <use x="63.623047" xlink:href="#DejaVuSans-30"/>
      </g>
     </g>
    </g>
    <g id="ytick_11">
     <g id="line2d_31">
      <path clip-path="url(#pf90c647529)" d="M 53.605625 295.990491 
L 477.065625 295.990491 
" style="fill:none;stroke:#b0b0b0;stroke-linecap:round;stroke-width:0.8;"/>
     </g>
     <g id="line2d_32"/>
     <g id="text_47">
      <!-- 20 -->
      <g transform="translate(34.835625 300.549554)scale(0.12 -0.12)">
       <use xlink:href="#DejaVuSans-32"/>
       <use x="63.623047" xlink:href="#DejaVuSans-30"/>
      </g>
     </g>
    </g>
    <g id="ytick_12">
     <g id="line2d_33">
      <path clip-path="url(#pf90c647529)" d="M 53.605625 269.343348 
L 477.065625 269.343348 
" style="fill:none;stroke:#b0b0b0;stroke-linecap:round;stroke-width:0.8;"/>
     </g>
     <g id="line2d_34"/>
     <g id="text_48">
      <!-- 30 -->
      <g transform="translate(34.835625 273.902411)scale(0.12 -0.12)">
       <use xlink:href="#DejaVuSans-33"/>
       <use x="63.623047" xlink:href="#DejaVuSans-30"/>
      </g>
     </g>
    </g>
    <g id="ytick_13">
     <g id="line2d_35">
      <path clip-path="url(#pf90c647529)" d="M 53.605625 242.696205 
L 477.065625 242.696205 
" style="fill:none;stroke:#b0b0b0;stroke-linecap:round;stroke-width:0.8;"/>
     </g>
     <g id="line2d_36"/>
     <g id="text_49">
      <!-- 40 -->
      <g transform="translate(34.835625 247.255268)scale(0.12 -0.12)">
       <use xlink:href="#DejaVuSans-34"/>
       <use x="63.623047" xlink:href="#DejaVuSans-30"/>
      </g>
     </g>
    </g>
    <g id="ytick_14">
     <g id="line2d_37">
      <path clip-path="url(#pf90c647529)" d="M 53.605625 216.049062 
L 477.065625 216.049062 
" style="fill:none;stroke:#b0b0b0;stroke-linecap:round;stroke-width:0.8;"/>
     </g>
     <g id="line2d_38"/>
     <g id="text_50">
      <!-- 50 -->
      <g transform="translate(34.835625 220.608125)scale(0.12 -0.12)">
       <use xlink:href="#DejaVuSans-35"/>
       <use x="63.623047" xlink:href="#DejaVuSans-30"/>
      </g>
     </g>
    </g>
    <g id="text_51">
     <!-- $\Delta$ Strength (a.u.) -->
     <g transform="translate(17.84 367.694062)rotate(-90)scale(0.14 -0.14)">
      <defs>
       <path d="M 2188 4044 
L 906 525 
L 3472 525 
L 2188 4044 
z
M 50 0 
L 1831 4666 
L 2547 4666 
L 4325 0 
L 50 0 
z
" id="DejaVuSans-394" transform="scale(0.015625)"/>
      </defs>
      <use transform="translate(0 0.015625)" xlink:href="#DejaVuSans-394"/>
      <use transform="translate(68.408203 0.015625)" xlink:href="#DejaVuSans-20"/>
      <use transform="translate(100.195312 0.015625)" xlink:href="#DejaVuSans-53"/>
      <use transform="translate(163.671875 0.015625)" xlink:href="#DejaVuSans-74"/>
      <use transform="translate(202.880859 0.015625)" xlink:href="#DejaVuSans-72"/>
      <use transform="translate(243.994141 0.015625)" xlink:href="#DejaVuSans-65"/>
      <use transform="translate(305.517578 0.015625)" xlink:href="#DejaVuSans-6e"/>
      <use transform="translate(368.896484 0.015625)" xlink:href="#DejaVuSans-67"/>
      <use transform="translate(432.373047 0.015625)" xlink:href="#DejaVuSans-74"/>
      <use transform="translate(471.582031 0.015625)" xlink:href="#DejaVuSans-68"/>
      <use transform="translate(534.960938 0.015625)" xlink:href="#DejaVuSans-20"/>
      <use transform="translate(566.748047 0.015625)" xlink:href="#DejaVuSans-28"/>
      <use transform="translate(605.761719 0.015625)" xlink:href="#DejaVuSans-61"/>
      <use transform="translate(667.041016 0.015625)" xlink:href="#DejaVuSans-2e"/>
      <use transform="translate(698.828125 0.015625)" xlink:href="#DejaVuSans-75"/>
      <use transform="translate(762.207031 0.015625)" xlink:href="#DejaVuSans-2e"/>
      <use transform="translate(793.994141 0.015625)" xlink:href="#DejaVuSans-29"/>
     </g>
    </g>
   </g>
   <g id="patch_97">
    <path clip-path="url(#pf90c647529)" d="M 72.853807 349.284777 
L 127.848612 349.284777 
L 127.848612 392.538813 
L 72.853807 392.538813 
z
" style="fill:#dad7cd;stroke:#6b6b6b;stroke-linejoin:miter;"/>
   </g>
   <g id="patch_98">
    <path clip-path="url(#pf90c647529)" d="M 155.346015 349.284777 
L 210.34082 349.284777 
L 210.34082 362.76123 
L 155.346015 362.76123 
z
" style="fill:#dad7cd;stroke:#6b6b6b;stroke-linejoin:miter;"/>
   </g>
   <g id="patch_99">
    <path clip-path="url(#pf90c647529)" d="M 237.838222 349.284777 
L 292.833028 349.284777 
L 292.833028 306.728473 
L 237.838222 306.728473 
z
" style="fill:#dad7cd;stroke:#6b6b6b;stroke-linejoin:miter;"/>
   </g>
   <g id="patch_100">
    <path clip-path="url(#pf90c647529)" d="M 320.33043 349.284777 
L 375.325235 349.284777 
L 375.325235 329.544232 
L 320.33043 329.544232 
z
" style="fill:#dad7cd;stroke:#6b6b6b;stroke-linejoin:miter;"/>
   </g>
   <g id="patch_101">
    <path clip-path="url(#pf90c647529)" d="M 402.822638 349.284777 
L 457.817443 349.284777 
L 457.817443 252.961495 
L 402.822638 252.961495 
z
" style="fill:#dad7cd;stroke:#6b6b6b;stroke-linejoin:miter;"/>
   </g>
   <g id="patch_102">
    <path d="M 53.605625 402.579062 
L 53.605625 216.049062 
" style="fill:none;stroke:#333333;stroke-linecap:square;stroke-linejoin:miter;stroke-width:2;"/>
   </g>
   <g id="patch_103">
    <path d="M 477.065625 402.579062 
L 477.065625 216.049062 
" style="fill:none;stroke:#333333;stroke-linecap:square;stroke-linejoin:miter;stroke-width:2;"/>
   </g>
   <g id="patch_104">
    <path d="M 53.605625 402.579062 
L 477.065625 402.579062 
" style="fill:none;stroke:#333333;stroke-linecap:square;stroke-linejoin:miter;stroke-width:2;"/>
   </g>
   <g id="LineCollection_1">
    <path clip-path="url(#pf90c647529)" d="M 53.605625 349.284777 
L 477.065625 349.284777 
" style="fill:none;stroke:#000000;"/>
   </g>
  </g>
  <g id="axes_3">
   <g id="matplotlib.axis_5">
    <g id="ytick_15">
     <g id="line2d_39">
      <defs>
       <path d="M 0 0 
L 3.5 0 
" id="ma51267b5f9" style="stroke:#000000;stroke-width:0.8;"/>
      </defs>
      <g>
       <use style="stroke:#000000;stroke-width:0.8;" x="477.065625" xlink:href="#ma51267b5f9" y="395.37788"/>
      </g>
     </g>
     <g id="text_52">
      <!-- 0.1 -->
      <g transform="translate(484.065625 399.177098)scale(0.1 -0.1)">
       <use xlink:href="#DejaVuSans-30"/>
       <use x="63.623047" xlink:href="#DejaVuSans-2e"/>
       <use x="95.410156" xlink:href="#DejaVuSans-31"/>
      </g>
     </g>
    </g>
    <g id="ytick_16">
     <g id="line2d_40">
      <g>
       <use style="stroke:#000000;stroke-width:0.8;" x="477.065625" xlink:href="#ma51267b5f9" y="369.182536"/>
      </g>
     </g>
     <g id="text_53">
      <!-- 0.3 -->
      <g transform="translate(484.065625 372.981755)scale(0.1 -0.1)">
       <use xlink:href="#DejaVuSans-30"/>
       <use x="63.623047" xlink:href="#DejaVuSans-2e"/>
       <use x="95.410156" xlink:href="#DejaVuSans-33"/>
      </g>
     </g>
    </g>
    <g id="ytick_17">
     <g id="line2d_41">
      <g>
       <use style="stroke:#000000;stroke-width:0.8;" x="477.065625" xlink:href="#ma51267b5f9" y="329.387551"/>
      </g>
     </g>
     <g id="text_54">
      <!-- 0.7 -->
      <g transform="translate(484.065625 333.18677)scale(0.1 -0.1)">
       <use xlink:href="#DejaVuSans-30"/>
       <use x="63.623047" xlink:href="#DejaVuSans-2e"/>
       <use x="95.410156" xlink:href="#DejaVuSans-37"/>
      </g>
     </g>
    </g>
    <g id="ytick_18">
     <g id="line2d_42">
      <g>
       <use style="stroke:#000000;stroke-width:0.8;" x="477.065625" xlink:href="#ma51267b5f9" y="293.61313"/>
      </g>
     </g>
     <g id="text_55">
      <!-- 0.9 -->
      <g transform="translate(484.065625 297.412349)scale(0.1 -0.1)">
       <use xlink:href="#DejaVuSans-30"/>
       <use x="63.623047" xlink:href="#DejaVuSans-2e"/>
       <use x="95.410156" xlink:href="#DejaVuSans-39"/>
      </g>
     </g>
    </g>
    <g id="ytick_19">
     <g id="line2d_43">
      <g>
       <use style="stroke:#000000;stroke-width:0.8;" x="477.065625" xlink:href="#ma51267b5f9" y="235.340854"/>
      </g>
     </g>
     <g id="text_56">
      <!-- 0.98 -->
      <g transform="translate(484.065625 239.140072)scale(0.1 -0.1)">
       <use xlink:href="#DejaVuSans-30"/>
       <use x="63.623047" xlink:href="#DejaVuSans-2e"/>
       <use x="95.410156" xlink:href="#DejaVuSans-39"/>
       <use x="159.033203" xlink:href="#DejaVuSans-38"/>
      </g>
     </g>
    </g>
    <g id="text_57">
     <!-- Predicted PSI -->
     <g transform="translate(520.969063 355.126875)rotate(-90)scale(0.14 -0.14)">
      <defs>
       <path d="M 2906 2969 
L 2906 4863 
L 3481 4863 
L 3481 0 
L 2906 0 
L 2906 525 
Q 2725 213 2448 61 
Q 2172 -91 1784 -91 
Q 1150 -91 751 415 
Q 353 922 353 1747 
Q 353 2572 751 3078 
Q 1150 3584 1784 3584 
Q 2172 3584 2448 3432 
Q 2725 3281 2906 2969 
z
M 947 1747 
Q 947 1113 1208 752 
Q 1469 391 1925 391 
Q 2381 391 2643 752 
Q 2906 1113 2906 1747 
Q 2906 2381 2643 2742 
Q 2381 3103 1925 3103 
Q 1469 3103 1208 2742 
Q 947 2381 947 1747 
z
" id="DejaVuSans-64" transform="scale(0.015625)"/>
       <path d="M 603 3500 
L 1178 3500 
L 1178 0 
L 603 0 
L 603 3500 
z
M 603 4863 
L 1178 4863 
L 1178 4134 
L 603 4134 
L 603 4863 
z
" id="DejaVuSans-69" transform="scale(0.015625)"/>
       <path d="M 3122 3366 
L 3122 2828 
Q 2878 2963 2633 3030 
Q 2388 3097 2138 3097 
Q 1578 3097 1268 2742 
Q 959 2388 959 1747 
Q 959 1106 1268 751 
Q 1578 397 2138 397 
Q 2388 397 2633 464 
Q 2878 531 3122 666 
L 3122 134 
Q 2881 22 2623 -34 
Q 2366 -91 2075 -91 
Q 1284 -91 818 406 
Q 353 903 353 1747 
Q 353 2603 823 3093 
Q 1294 3584 2113 3584 
Q 2378 3584 2631 3529 
Q 2884 3475 3122 3366 
z
" id="DejaVuSans-63" transform="scale(0.015625)"/>
       <path d="M 628 4666 
L 1259 4666 
L 1259 0 
L 628 0 
L 628 4666 
z
" id="DejaVuSans-49" transform="scale(0.015625)"/>
      </defs>
      <use xlink:href="#DejaVuSans-50"/>
      <use x="58.552734" xlink:href="#DejaVuSans-72"/>
      <use x="97.416016" xlink:href="#DejaVuSans-65"/>
      <use x="158.939453" xlink:href="#DejaVuSans-64"/>
      <use x="222.416016" xlink:href="#DejaVuSans-69"/>
      <use x="250.199219" xlink:href="#DejaVuSans-63"/>
      <use x="305.179688" xlink:href="#DejaVuSans-74"/>
      <use x="344.388672" xlink:href="#DejaVuSans-65"/>
      <use x="405.912109" xlink:href="#DejaVuSans-64"/>
      <use x="469.388672" xlink:href="#DejaVuSans-20"/>
      <use x="501.175781" xlink:href="#DejaVuSans-50"/>
      <use x="561.478516" xlink:href="#DejaVuSans-53"/>
      <use x="624.955078" xlink:href="#DejaVuSans-49"/>
     </g>
    </g>
   </g>
   <g id="patch_105">
    <path d="M 53.605625 402.579062 
L 53.605625 216.049062 
" style="fill:none;stroke:#333333;stroke-linecap:square;stroke-linejoin:miter;stroke-width:2;"/>
   </g>
   <g id="patch_106">
    <path d="M 53.605625 402.579062 
L 477.065625 402.579062 
" style="fill:none;stroke:#333333;stroke-linecap:square;stroke-linejoin:miter;stroke-width:2;"/>
   </g>
  </g>
 </g>
 <defs>
  <clipPath id="pa0d8f67a65">
   <rect height="186.53" width="423.46" x="53.605625" y="11.759062"/>
  </clipPath>
  <clipPath id="pf90c647529">
   <rect height="186.53" width="423.46" x="53.605625" y="216.049062"/>
  </clipPath>
 </defs>
</svg>
