<?xml version="1.0" encoding="utf-8" standalone="no"?>
<!DOCTYPE svg PUBLIC "-//W3C//DTD SVG 1.1//EN"
  "http://www.w3.org/Graphics/SVG/1.1/DTD/svg11.dtd">
<svg xmlns:xlink="http://www.w3.org/1999/xlink" width="464.891375pt" height="370.212812pt" viewBox="0 0 464.891375 370.212812" xmlns="http://www.w3.org/2000/svg" version="1.1">
 <metadata>
  <rdf:RDF xmlns:dc="http://purl.org/dc/elements/1.1/" xmlns:cc="http://creativecommons.org/ns#" xmlns:rdf="http://www.w3.org/1999/02/22-rdf-syntax-ns#">
   <cc:Work>
    <dc:type rdf:resource="http://purl.org/dc/dcmitype/StillImage"/>
    <dc:date>2023-06-14T14:39:29.228287</dc:date>
    <dc:format>image/svg+xml</dc:format>
    <dc:creator>
     <cc:Agent>
      <dc:title>Matplotlib v3.6.0, https://matplotlib.org/</dc:title>
     </cc:Agent>
    </dc:creator>
   </cc:Work>
  </rdf:RDF>
 </metadata>
 <defs>
  <style type="text/css">*{stroke-linejoin: round; stroke-linecap: butt}</style>
 </defs>
 <g id="figure_1">
  <g id="patch_1">
   <path d="M 0 370.212812 
L 464.891375 370.212812 
L 464.891375 0 
L 0 0 
L 0 370.212812 
z
" style="fill: none"/>
  </g>
  <g id="axes_1">
   <g id="patch_2">
    <path d="M 57.105625 213.359062 
L 410.877625 213.359062 
L 410.877625 11.759062 
L 57.105625 11.759062 
L 57.105625 213.359062 
z
" style="fill: none"/>
   </g>
   <g id="matplotlib.axis_1">
    <g id="xtick_1">
     <g id="line2d_1"/>
    </g>
    <g id="xtick_2">
     <g id="line2d_2"/>
    </g>
    <g id="xtick_3">
     <g id="line2d_3"/>
    </g>
    <g id="xtick_4">
     <g id="line2d_4"/>
    </g>
    <g id="xtick_5">
     <g id="line2d_5"/>
    </g>
   </g>
   <g id="matplotlib.axis_2">
    <g id="ytick_1">
     <g id="line2d_6">
      <path d="M 57.105625 213.359062 
L 410.877625 213.359062 
" clip-path="url(#p93fd0922a6)" style="fill: none; stroke: #b0b0b0; stroke-width: 0.8; stroke-linecap: round"/>
     </g>
     <g id="line2d_7">
      <defs>
       <path id="m9153cf7e48" d="M 0 0 
L -3.5 0 
" style="stroke: #000000; stroke-width: 0.8"/>
      </defs>
      <g>
       <use xlink:href="#m9153cf7e48" x="57.105625" y="213.359062" style="stroke: #000000; stroke-width: 0.8"/>
      </g>
     </g>
     <g id="text_1">
      <!-- 0 -->
      <g transform="translate(42.470625 217.918125) scale(0.12 -0.12)">
       <defs>
        <path id="DejaVuSans-30" d="M 2034 4250 
Q 1547 4250 1301 3770 
Q 1056 3291 1056 2328 
Q 1056 1369 1301 889 
Q 1547 409 2034 409 
Q 2525 409 2770 889 
Q 3016 1369 3016 2328 
Q 3016 3291 2770 3770 
Q 2525 4250 2034 4250 
z
M 2034 4750 
Q 2819 4750 3233 4129 
Q 3647 3509 3647 2328 
Q 3647 1150 3233 529 
Q 2819 -91 2034 -91 
Q 1250 -91 836 529 
Q 422 1150 422 2328 
Q 422 3509 836 4129 
Q 1250 4750 2034 4750 
z
" transform="scale(0.015625)"/>
       </defs>
       <use xlink:href="#DejaVuSans-30"/>
      </g>
     </g>
    </g>
    <g id="ytick_2">
     <g id="line2d_8">
      <path d="M 57.105625 173.039062 
L 410.877625 173.039062 
" clip-path="url(#p93fd0922a6)" style="fill: none; stroke: #b0b0b0; stroke-width: 0.8; stroke-linecap: round"/>
     </g>
     <g id="line2d_9">
      <g>
       <use xlink:href="#m9153cf7e48" x="57.105625" y="173.039062" style="stroke: #000000; stroke-width: 0.8"/>
      </g>
     </g>
     <g id="text_2">
      <!-- 20 -->
      <g transform="translate(34.835625 177.598125) scale(0.12 -0.12)">
       <defs>
        <path id="DejaVuSans-32" d="M 1228 531 
L 3431 531 
L 3431 0 
L 469 0 
L 469 531 
Q 828 903 1448 1529 
Q 2069 2156 2228 2338 
Q 2531 2678 2651 2914 
Q 2772 3150 2772 3378 
Q 2772 3750 2511 3984 
Q 2250 4219 1831 4219 
Q 1534 4219 1204 4116 
Q 875 4013 500 3803 
L 500 4441 
Q 881 4594 1212 4672 
Q 1544 4750 1819 4750 
Q 2544 4750 2975 4387 
Q 3406 4025 3406 3419 
Q 3406 3131 3298 2873 
Q 3191 2616 2906 2266 
Q 2828 2175 2409 1742 
Q 1991 1309 1228 531 
z
" transform="scale(0.015625)"/>
       </defs>
       <use xlink:href="#DejaVuSans-32"/>
       <use xlink:href="#DejaVuSans-30" x="63.623047"/>
      </g>
     </g>
    </g>
    <g id="ytick_3">
     <g id="line2d_10">
      <path d="M 57.105625 132.719062 
L 410.877625 132.719062 
" clip-path="url(#p93fd0922a6)" style="fill: none; stroke: #b0b0b0; stroke-width: 0.8; stroke-linecap: round"/>
     </g>
     <g id="line2d_11">
      <g>
       <use xlink:href="#m9153cf7e48" x="57.105625" y="132.719062" style="stroke: #000000; stroke-width: 0.8"/>
      </g>
     </g>
     <g id="text_3">
      <!-- 40 -->
      <g transform="translate(34.835625 137.278125) scale(0.12 -0.12)">
       <defs>
        <path id="DejaVuSans-34" d="M 2419 4116 
L 825 1625 
L 2419 1625 
L 2419 4116 
z
M 2253 4666 
L 3047 4666 
L 3047 1625 
L 3713 1625 
L 3713 1100 
L 3047 1100 
L 3047 0 
L 2419 0 
L 2419 1100 
L 313 1100 
L 313 1709 
L 2253 4666 
z
" transform="scale(0.015625)"/>
       </defs>
       <use xlink:href="#DejaVuSans-34"/>
       <use xlink:href="#DejaVuSans-30" x="63.623047"/>
      </g>
     </g>
    </g>
    <g id="ytick_4">
     <g id="line2d_12">
      <path d="M 57.105625 92.399062 
L 410.877625 92.399062 
" clip-path="url(#p93fd0922a6)" style="fill: none; stroke: #b0b0b0; stroke-width: 0.8; stroke-linecap: round"/>
     </g>
     <g id="line2d_13">
      <g>
       <use xlink:href="#m9153cf7e48" x="57.105625" y="92.399062" style="stroke: #000000; stroke-width: 0.8"/>
      </g>
     </g>
     <g id="text_4">
      <!-- 60 -->
      <g transform="translate(34.835625 96.958125) scale(0.12 -0.12)">
       <defs>
        <path id="DejaVuSans-36" d="M 2113 2584 
Q 1688 2584 1439 2293 
Q 1191 2003 1191 1497 
Q 1191 994 1439 701 
Q 1688 409 2113 409 
Q 2538 409 2786 701 
Q 3034 994 3034 1497 
Q 3034 2003 2786 2293 
Q 2538 2584 2113 2584 
z
M 3366 4563 
L 3366 3988 
Q 3128 4100 2886 4159 
Q 2644 4219 2406 4219 
Q 1781 4219 1451 3797 
Q 1122 3375 1075 2522 
Q 1259 2794 1537 2939 
Q 1816 3084 2150 3084 
Q 2853 3084 3261 2657 
Q 3669 2231 3669 1497 
Q 3669 778 3244 343 
Q 2819 -91 2113 -91 
Q 1303 -91 875 529 
Q 447 1150 447 2328 
Q 447 3434 972 4092 
Q 1497 4750 2381 4750 
Q 2619 4750 2861 4703 
Q 3103 4656 3366 4563 
z
" transform="scale(0.015625)"/>
       </defs>
       <use xlink:href="#DejaVuSans-36"/>
       <use xlink:href="#DejaVuSans-30" x="63.623047"/>
      </g>
     </g>
    </g>
    <g id="ytick_5">
     <g id="line2d_14">
      <path d="M 57.105625 52.079062 
L 410.877625 52.079062 
" clip-path="url(#p93fd0922a6)" style="fill: none; stroke: #b0b0b0; stroke-width: 0.8; stroke-linecap: round"/>
     </g>
     <g id="line2d_15">
      <g>
       <use xlink:href="#m9153cf7e48" x="57.105625" y="52.079062" style="stroke: #000000; stroke-width: 0.8"/>
      </g>
     </g>
     <g id="text_5">
      <!-- 80 -->
      <g transform="translate(34.835625 56.638125) scale(0.12 -0.12)">
       <defs>
        <path id="DejaVuSans-38" d="M 2034 2216 
Q 1584 2216 1326 1975 
Q 1069 1734 1069 1313 
Q 1069 891 1326 650 
Q 1584 409 2034 409 
Q 2484 409 2743 651 
Q 3003 894 3003 1313 
Q 3003 1734 2745 1975 
Q 2488 2216 2034 2216 
z
M 1403 2484 
Q 997 2584 770 2862 
Q 544 3141 544 3541 
Q 544 4100 942 4425 
Q 1341 4750 2034 4750 
Q 2731 4750 3128 4425 
Q 3525 4100 3525 3541 
Q 3525 3141 3298 2862 
Q 3072 2584 2669 2484 
Q 3125 2378 3379 2068 
Q 3634 1759 3634 1313 
Q 3634 634 3220 271 
Q 2806 -91 2034 -91 
Q 1263 -91 848 271 
Q 434 634 434 1313 
Q 434 1759 690 2068 
Q 947 2378 1403 2484 
z
M 1172 3481 
Q 1172 3119 1398 2916 
Q 1625 2713 2034 2713 
Q 2441 2713 2670 2916 
Q 2900 3119 2900 3481 
Q 2900 3844 2670 4047 
Q 2441 4250 2034 4250 
Q 1625 4250 1398 4047 
Q 1172 3844 1172 3481 
z
" transform="scale(0.015625)"/>
       </defs>
       <use xlink:href="#DejaVuSans-38"/>
       <use xlink:href="#DejaVuSans-30" x="63.623047"/>
      </g>
     </g>
    </g>
    <g id="ytick_6">
     <g id="line2d_16">
      <path d="M 57.105625 11.759062 
L 410.877625 11.759062 
" clip-path="url(#p93fd0922a6)" style="fill: none; stroke: #b0b0b0; stroke-width: 0.8; stroke-linecap: round"/>
     </g>
     <g id="line2d_17">
      <g>
       <use xlink:href="#m9153cf7e48" x="57.105625" y="11.759062" style="stroke: #000000; stroke-width: 0.8"/>
      </g>
     </g>
     <g id="text_6">
      <!-- 100 -->
      <g transform="translate(27.200625 16.318125) scale(0.12 -0.12)">
       <defs>
        <path id="DejaVuSans-31" d="M 794 531 
L 1825 531 
L 1825 4091 
L 703 3866 
L 703 4441 
L 1819 4666 
L 2450 4666 
L 2450 531 
L 3481 531 
L 3481 0 
L 794 0 
L 794 531 
z
" transform="scale(0.015625)"/>
       </defs>
       <use xlink:href="#DejaVuSans-31"/>
       <use xlink:href="#DejaVuSans-30" x="63.623047"/>
       <use xlink:href="#DejaVuSans-30" x="127.246094"/>
      </g>
     </g>
    </g>
    <g id="text_7">
     <!-- Strength (a.u.) -->
     <g transform="translate(17.868437 163.697344) rotate(-90) scale(0.14 -0.14)">
      <defs>
       <path id="DejaVuSans-53" d="M 3425 4513 
L 3425 3897 
Q 3066 4069 2747 4153 
Q 2428 4238 2131 4238 
Q 1616 4238 1336 4038 
Q 1056 3838 1056 3469 
Q 1056 3159 1242 3001 
Q 1428 2844 1947 2747 
L 2328 2669 
Q 3034 2534 3370 2195 
Q 3706 1856 3706 1288 
Q 3706 609 3251 259 
Q 2797 -91 1919 -91 
Q 1588 -91 1214 -16 
Q 841 59 441 206 
L 441 856 
Q 825 641 1194 531 
Q 1563 422 1919 422 
Q 2459 422 2753 634 
Q 3047 847 3047 1241 
Q 3047 1584 2836 1778 
Q 2625 1972 2144 2069 
L 1759 2144 
Q 1053 2284 737 2584 
Q 422 2884 422 3419 
Q 422 4038 858 4394 
Q 1294 4750 2059 4750 
Q 2388 4750 2728 4690 
Q 3069 4631 3425 4513 
z
" transform="scale(0.015625)"/>
       <path id="DejaVuSans-74" d="M 1172 4494 
L 1172 3500 
L 2356 3500 
L 2356 3053 
L 1172 3053 
L 1172 1153 
Q 1172 725 1289 603 
Q 1406 481 1766 481 
L 2356 481 
L 2356 0 
L 1766 0 
Q 1100 0 847 248 
Q 594 497 594 1153 
L 594 3053 
L 172 3053 
L 172 3500 
L 594 3500 
L 594 4494 
L 1172 4494 
z
" transform="scale(0.015625)"/>
       <path id="DejaVuSans-72" d="M 2631 2963 
Q 2534 3019 2420 3045 
Q 2306 3072 2169 3072 
Q 1681 3072 1420 2755 
Q 1159 2438 1159 1844 
L 1159 0 
L 581 0 
L 581 3500 
L 1159 3500 
L 1159 2956 
Q 1341 3275 1631 3429 
Q 1922 3584 2338 3584 
Q 2397 3584 2469 3576 
Q 2541 3569 2628 3553 
L 2631 2963 
z
" transform="scale(0.015625)"/>
       <path id="DejaVuSans-65" d="M 3597 1894 
L 3597 1613 
L 953 1613 
Q 991 1019 1311 708 
Q 1631 397 2203 397 
Q 2534 397 2845 478 
Q 3156 559 3463 722 
L 3463 178 
Q 3153 47 2828 -22 
Q 2503 -91 2169 -91 
Q 1331 -91 842 396 
Q 353 884 353 1716 
Q 353 2575 817 3079 
Q 1281 3584 2069 3584 
Q 2775 3584 3186 3129 
Q 3597 2675 3597 1894 
z
M 3022 2063 
Q 3016 2534 2758 2815 
Q 2500 3097 2075 3097 
Q 1594 3097 1305 2825 
Q 1016 2553 972 2059 
L 3022 2063 
z
" transform="scale(0.015625)"/>
       <path id="DejaVuSans-6e" d="M 3513 2113 
L 3513 0 
L 2938 0 
L 2938 2094 
Q 2938 2591 2744 2837 
Q 2550 3084 2163 3084 
Q 1697 3084 1428 2787 
Q 1159 2491 1159 1978 
L 1159 0 
L 581 0 
L 581 3500 
L 1159 3500 
L 1159 2956 
Q 1366 3272 1645 3428 
Q 1925 3584 2291 3584 
Q 2894 3584 3203 3211 
Q 3513 2838 3513 2113 
z
" transform="scale(0.015625)"/>
       <path id="DejaVuSans-67" d="M 2906 1791 
Q 2906 2416 2648 2759 
Q 2391 3103 1925 3103 
Q 1463 3103 1205 2759 
Q 947 2416 947 1791 
Q 947 1169 1205 825 
Q 1463 481 1925 481 
Q 2391 481 2648 825 
Q 2906 1169 2906 1791 
z
M 3481 434 
Q 3481 -459 3084 -895 
Q 2688 -1331 1869 -1331 
Q 1566 -1331 1297 -1286 
Q 1028 -1241 775 -1147 
L 775 -588 
Q 1028 -725 1275 -790 
Q 1522 -856 1778 -856 
Q 2344 -856 2625 -561 
Q 2906 -266 2906 331 
L 2906 616 
Q 2728 306 2450 153 
Q 2172 0 1784 0 
Q 1141 0 747 490 
Q 353 981 353 1791 
Q 353 2603 747 3093 
Q 1141 3584 1784 3584 
Q 2172 3584 2450 3431 
Q 2728 3278 2906 2969 
L 2906 3500 
L 3481 3500 
L 3481 434 
z
" transform="scale(0.015625)"/>
       <path id="DejaVuSans-68" d="M 3513 2113 
L 3513 0 
L 2938 0 
L 2938 2094 
Q 2938 2591 2744 2837 
Q 2550 3084 2163 3084 
Q 1697 3084 1428 2787 
Q 1159 2491 1159 1978 
L 1159 0 
L 581 0 
L 581 4863 
L 1159 4863 
L 1159 2956 
Q 1366 3272 1645 3428 
Q 1925 3584 2291 3584 
Q 2894 3584 3203 3211 
Q 3513 2838 3513 2113 
z
" transform="scale(0.015625)"/>
       <path id="DejaVuSans-20" transform="scale(0.015625)"/>
       <path id="DejaVuSans-28" d="M 1984 4856 
Q 1566 4138 1362 3434 
Q 1159 2731 1159 2009 
Q 1159 1288 1364 580 
Q 1569 -128 1984 -844 
L 1484 -844 
Q 1016 -109 783 600 
Q 550 1309 550 2009 
Q 550 2706 781 3412 
Q 1013 4119 1484 4856 
L 1984 4856 
z
" transform="scale(0.015625)"/>
       <path id="DejaVuSans-61" d="M 2194 1759 
Q 1497 1759 1228 1600 
Q 959 1441 959 1056 
Q 959 750 1161 570 
Q 1363 391 1709 391 
Q 2188 391 2477 730 
Q 2766 1069 2766 1631 
L 2766 1759 
L 2194 1759 
z
M 3341 1997 
L 3341 0 
L 2766 0 
L 2766 531 
Q 2569 213 2275 61 
Q 1981 -91 1556 -91 
Q 1019 -91 701 211 
Q 384 513 384 1019 
Q 384 1609 779 1909 
Q 1175 2209 1959 2209 
L 2766 2209 
L 2766 2266 
Q 2766 2663 2505 2880 
Q 2244 3097 1772 3097 
Q 1472 3097 1187 3025 
Q 903 2953 641 2809 
L 641 3341 
Q 956 3463 1253 3523 
Q 1550 3584 1831 3584 
Q 2591 3584 2966 3190 
Q 3341 2797 3341 1997 
z
" transform="scale(0.015625)"/>
       <path id="DejaVuSans-2e" d="M 684 794 
L 1344 794 
L 1344 0 
L 684 0 
L 684 794 
z
" transform="scale(0.015625)"/>
       <path id="DejaVuSans-75" d="M 544 1381 
L 544 3500 
L 1119 3500 
L 1119 1403 
Q 1119 906 1312 657 
Q 1506 409 1894 409 
Q 2359 409 2629 706 
Q 2900 1003 2900 1516 
L 2900 3500 
L 3475 3500 
L 3475 0 
L 2900 0 
L 2900 538 
Q 2691 219 2414 64 
Q 2138 -91 1772 -91 
Q 1169 -91 856 284 
Q 544 659 544 1381 
z
M 1991 3584 
L 1991 3584 
z
" transform="scale(0.015625)"/>
       <path id="DejaVuSans-29" d="M 513 4856 
L 1013 4856 
Q 1481 4119 1714 3412 
Q 1947 2706 1947 2009 
Q 1947 1309 1714 600 
Q 1481 -109 1013 -844 
L 513 -844 
Q 928 -128 1133 580 
Q 1338 1288 1338 2009 
Q 1338 2731 1133 3434 
Q 928 4138 513 4856 
z
" transform="scale(0.015625)"/>
      </defs>
      <use xlink:href="#DejaVuSans-53"/>
      <use xlink:href="#DejaVuSans-74" x="63.476562"/>
      <use xlink:href="#DejaVuSans-72" x="102.685547"/>
      <use xlink:href="#DejaVuSans-65" x="141.548828"/>
      <use xlink:href="#DejaVuSans-6e" x="203.072266"/>
      <use xlink:href="#DejaVuSans-67" x="266.451172"/>
      <use xlink:href="#DejaVuSans-74" x="329.927734"/>
      <use xlink:href="#DejaVuSans-68" x="369.136719"/>
      <use xlink:href="#DejaVuSans-20" x="432.515625"/>
      <use xlink:href="#DejaVuSans-28" x="464.302734"/>
      <use xlink:href="#DejaVuSans-61" x="503.316406"/>
      <use xlink:href="#DejaVuSans-2e" x="564.595703"/>
      <use xlink:href="#DejaVuSans-75" x="596.382812"/>
      <use xlink:href="#DejaVuSans-2e" x="659.761719"/>
      <use xlink:href="#DejaVuSans-29" x="691.548828"/>
     </g>
    </g>
   </g>
   <g id="patch_3">
    <path d="M 73.18617 213.359062 
L 96.158378 213.359062 
L 96.158378 169.393944 
L 73.18617 169.393944 
z
" clip-path="url(#p93fd0922a6)" style="fill: #c5d6fb; stroke: #6b6b6b; stroke-linejoin: miter"/>
   </g>
   <g id="patch_4">
    <path d="M 96.158378 213.359062 
L 119.130586 213.359062 
L 119.130586 141.478624 
L 96.158378 141.478624 
z
" clip-path="url(#p93fd0922a6)" style="fill: #f6c3c2; stroke: #6b6b6b; stroke-linejoin: miter"/>
   </g>
   <g id="patch_5">
    <path d="M 73.18617 169.393944 
L 96.158378 169.393944 
L 96.158378 136.110694 
L 73.18617 136.110694 
z
" clip-path="url(#p93fd0922a6)" style="fill: #c5d6fb; stroke: #6b6b6b; stroke-linejoin: miter"/>
   </g>
   <g id="patch_6">
    <path d="M 96.158378 141.478624 
L 119.130586 141.478624 
L 119.130586 113.877542 
L 96.158378 113.877542 
z
" clip-path="url(#p93fd0922a6)" style="fill: #f6c3c2; stroke: #6b6b6b; stroke-linejoin: miter"/>
   </g>
   <g id="patch_7">
    <path d="M 73.18617 136.110694 
L 96.158378 136.110694 
L 96.158378 110.160032 
L 73.18617 110.160032 
z
" clip-path="url(#p93fd0922a6)" style="fill: #c5d6fb; stroke: #6b6b6b; stroke-linejoin: miter"/>
   </g>
   <g id="patch_8">
    <path d="M 96.158378 113.877542 
L 119.130586 113.877542 
L 119.130586 89.513032 
L 96.158378 89.513032 
z
" clip-path="url(#p93fd0922a6)" style="fill: #f6c3c2; stroke: #6b6b6b; stroke-linejoin: miter"/>
   </g>
   <g id="patch_9">
    <path d="M 73.18617 110.160032 
L 96.158378 110.160032 
L 96.158378 88.756744 
L 73.18617 88.756744 
z
" clip-path="url(#p93fd0922a6)" style="fill: #c5d6fb; stroke: #6b6b6b; stroke-linejoin: miter"/>
   </g>
   <g id="patch_10">
    <path d="M 96.158378 89.513032 
L 119.130586 89.513032 
L 119.130586 68.707507 
L 96.158378 68.707507 
z
" clip-path="url(#p93fd0922a6)" style="fill: #f6c3c2; stroke: #6b6b6b; stroke-linejoin: miter"/>
   </g>
   <g id="patch_11">
    <path d="M 73.18617 88.756744 
L 96.158378 88.756744 
L 96.158378 73.748585 
L 73.18617 73.748585 
z
" clip-path="url(#p93fd0922a6)" style="fill: #c5d6fb; stroke: #6b6b6b; stroke-linejoin: miter"/>
   </g>
   <g id="patch_12">
    <path d="M 96.158378 68.707507 
L 119.130586 68.707507 
L 119.130586 48.791459 
L 96.158378 48.791459 
z
" clip-path="url(#p93fd0922a6)" style="fill: #f6c3c2; stroke: #6b6b6b; stroke-linejoin: miter"/>
   </g>
   <g id="patch_13">
    <path d="M 73.18617 73.748585 
L 96.158378 73.748585 
L 96.158378 64.114498 
L 73.18617 64.114498 
z
" clip-path="url(#p93fd0922a6)" style="fill: #c5d6fb; stroke: #6b6b6b; stroke-linejoin: miter"/>
   </g>
   <g id="patch_14">
    <path d="M 96.158378 48.791459 
L 119.130586 48.791459 
L 119.130586 37.703288 
L 96.158378 37.703288 
z
" clip-path="url(#p93fd0922a6)" style="fill: #f6c3c2; stroke: #6b6b6b; stroke-linejoin: miter"/>
   </g>
   <g id="patch_15">
    <path d="M 73.18617 64.114498 
L 96.158378 64.114498 
L 96.158378 58.322745 
L 73.18617 58.322745 
z
" clip-path="url(#p93fd0922a6)" style="fill: #c5d6fb; stroke: #6b6b6b; stroke-linejoin: miter"/>
   </g>
   <g id="patch_16">
    <path d="M 96.158378 37.703288 
L 119.130586 37.703288 
L 119.130586 29.986112 
L 96.158378 29.986112 
z
" clip-path="url(#p93fd0922a6)" style="fill: #f6c3c2; stroke: #6b6b6b; stroke-linejoin: miter"/>
   </g>
   <g id="patch_17">
    <path d="M 73.18617 58.322745 
L 96.158378 58.322745 
L 96.158378 58.297056 
L 73.18617 58.297056 
z
" clip-path="url(#p93fd0922a6)" style="fill: #c5d6fb; stroke: #6b6b6b; stroke-linejoin: miter"/>
   </g>
   <g id="patch_18">
    <path d="M 96.158378 29.986112 
L 119.130586 29.986112 
L 119.130586 26.747452 
L 96.158378 26.747452 
z
" clip-path="url(#p93fd0922a6)" style="fill: #f6c3c2; stroke: #6b6b6b; stroke-linejoin: miter"/>
   </g>
   <g id="patch_19">
    <path d="M 73.18617 58.297056 
L 96.158378 58.297056 
L 96.158378 58.297052 
L 73.18617 58.297052 
z
" clip-path="url(#p93fd0922a6)" style="fill: #c5d6fb; stroke: #6b6b6b; stroke-linejoin: miter"/>
   </g>
   <g id="patch_20">
    <path d="M 96.158378 26.747452 
L 119.130586 26.747452 
L 119.130586 25.573045 
L 96.158378 25.573045 
z
" clip-path="url(#p93fd0922a6)" style="fill: #f6c3c2; stroke: #6b6b6b; stroke-linejoin: miter"/>
   </g>
   <g id="patch_21">
    <path d="M 142.102794 213.359062 
L 165.075002 213.359062 
L 165.075002 169.393944 
L 142.102794 169.393944 
z
" clip-path="url(#p93fd0922a6)" style="fill: #c5d6fb; stroke: #6b6b6b; stroke-linejoin: miter"/>
   </g>
   <g id="patch_22">
    <path d="M 165.075002 213.359062 
L 188.047209 213.359062 
L 188.047209 155.912946 
L 165.075002 155.912946 
z
" clip-path="url(#p93fd0922a6)" style="fill: #f6c3c2; stroke: #6b6b6b; stroke-linejoin: miter"/>
   </g>
   <g id="patch_23">
    <path d="M 142.102794 169.393944 
L 165.075002 169.393944 
L 165.075002 135.035755 
L 142.102794 135.035755 
z
" clip-path="url(#p93fd0922a6)" style="fill: #c5d6fb; stroke: #6b6b6b; stroke-linejoin: miter"/>
   </g>
   <g id="patch_24">
    <path d="M 165.075002 155.912946 
L 188.047209 155.912946 
L 188.047209 125.585927 
L 165.075002 125.585927 
z
" clip-path="url(#p93fd0922a6)" style="fill: #f6c3c2; stroke: #6b6b6b; stroke-linejoin: miter"/>
   </g>
   <g id="patch_25">
    <path d="M 142.102794 135.035755 
L 165.075002 135.035755 
L 165.075002 109.271601 
L 142.102794 109.271601 
z
" clip-path="url(#p93fd0922a6)" style="fill: #c5d6fb; stroke: #6b6b6b; stroke-linejoin: miter"/>
   </g>
   <g id="patch_26">
    <path d="M 165.075002 125.585927 
L 188.047209 125.585927 
L 188.047209 104.129676 
L 165.075002 104.129676 
z
" clip-path="url(#p93fd0922a6)" style="fill: #f6c3c2; stroke: #6b6b6b; stroke-linejoin: miter"/>
   </g>
   <g id="patch_27">
    <path d="M 142.102794 109.271601 
L 165.075002 109.271601 
L 165.075002 101.314493 
L 142.102794 101.314493 
z
" clip-path="url(#p93fd0922a6)" style="fill: #c5d6fb; stroke: #6b6b6b; stroke-linejoin: miter"/>
   </g>
   <g id="patch_28">
    <path d="M 165.075002 104.129676 
L 188.047209 104.129676 
L 188.047209 92.940297 
L 165.075002 92.940297 
z
" clip-path="url(#p93fd0922a6)" style="fill: #f6c3c2; stroke: #6b6b6b; stroke-linejoin: miter"/>
   </g>
   <g id="patch_29">
    <path d="M 142.102794 101.314493 
L 165.075002 101.314493 
L 165.075002 95.747665 
L 142.102794 95.747665 
z
" clip-path="url(#p93fd0922a6)" style="fill: #c5d6fb; stroke: #6b6b6b; stroke-linejoin: miter"/>
   </g>
   <g id="patch_30">
    <path d="M 165.075002 92.940297 
L 188.047209 92.940297 
L 188.047209 85.131743 
L 165.075002 85.131743 
z
" clip-path="url(#p93fd0922a6)" style="fill: #f6c3c2; stroke: #6b6b6b; stroke-linejoin: miter"/>
   </g>
   <g id="patch_31">
    <path d="M 142.102794 95.747665 
L 165.075002 95.747665 
L 165.075002 90.605074 
L 142.102794 90.605074 
z
" clip-path="url(#p93fd0922a6)" style="fill: #c5d6fb; stroke: #6b6b6b; stroke-linejoin: miter"/>
   </g>
   <g id="patch_32">
    <path d="M 165.075002 85.131743 
L 188.047209 85.131743 
L 188.047209 79.134821 
L 165.075002 79.134821 
z
" clip-path="url(#p93fd0922a6)" style="fill: #f6c3c2; stroke: #6b6b6b; stroke-linejoin: miter"/>
   </g>
   <g id="patch_33">
    <path d="M 142.102794 90.605074 
L 165.075002 90.605074 
L 165.075002 87.498706 
L 142.102794 87.498706 
z
" clip-path="url(#p93fd0922a6)" style="fill: #c5d6fb; stroke: #6b6b6b; stroke-linejoin: miter"/>
   </g>
   <g id="patch_34">
    <path d="M 165.075002 79.134821 
L 188.047209 79.134821 
L 188.047209 78.143665 
L 165.075002 78.143665 
z
" clip-path="url(#p93fd0922a6)" style="fill: #f6c3c2; stroke: #6b6b6b; stroke-linejoin: miter"/>
   </g>
   <g id="patch_35">
    <path d="M 142.102794 87.498706 
L 165.075002 87.498706 
L 165.075002 87.300804 
L 142.102794 87.300804 
z
" clip-path="url(#p93fd0922a6)" style="fill: #c5d6fb; stroke: #6b6b6b; stroke-linejoin: miter"/>
   </g>
   <g id="patch_36">
    <path d="M 165.075002 78.143665 
L 188.047209 78.143665 
L 188.047209 77.263218 
L 165.075002 77.263218 
z
" clip-path="url(#p93fd0922a6)" style="fill: #f6c3c2; stroke: #6b6b6b; stroke-linejoin: miter"/>
   </g>
   <g id="patch_37">
    <path d="M 142.102794 87.300804 
L 165.075002 87.300804 
L 165.075002 87.3008 
L 142.102794 87.3008 
z
" clip-path="url(#p93fd0922a6)" style="fill: #c5d6fb; stroke: #6b6b6b; stroke-linejoin: miter"/>
   </g>
   <g id="patch_38">
    <path d="M 165.075002 77.263218 
L 188.047209 77.263218 
L 188.047209 77.105143 
L 165.075002 77.105143 
z
" clip-path="url(#p93fd0922a6)" style="fill: #f6c3c2; stroke: #6b6b6b; stroke-linejoin: miter"/>
   </g>
   <g id="patch_39">
    <path d="M 211.019417 213.359062 
L 233.991625 213.359062 
L 233.991625 169.393944 
L 211.019417 169.393944 
z
" clip-path="url(#p93fd0922a6)" style="fill: #c5d6fb; stroke: #6b6b6b; stroke-linejoin: miter"/>
   </g>
   <g id="patch_40">
    <path d="M 233.991625 213.359062 
L 256.963833 213.359062 
L 256.963833 187.781143 
L 233.991625 187.781143 
z
" clip-path="url(#p93fd0922a6)" style="fill: #f6c3c2; stroke: #6b6b6b; stroke-linejoin: miter"/>
   </g>
   <g id="patch_41">
    <path d="M 211.019417 169.393944 
L 233.991625 169.393944 
L 233.991625 140.999343 
L 211.019417 140.999343 
z
" clip-path="url(#p93fd0922a6)" style="fill: #c5d6fb; stroke: #6b6b6b; stroke-linejoin: miter"/>
   </g>
   <g id="patch_42">
    <path d="M 233.991625 187.781143 
L 256.963833 187.781143 
L 256.963833 163.839344 
L 233.991625 163.839344 
z
" clip-path="url(#p93fd0922a6)" style="fill: #f6c3c2; stroke: #6b6b6b; stroke-linejoin: miter"/>
   </g>
   <g id="patch_43">
    <path d="M 211.019417 140.999343 
L 233.991625 140.999343 
L 233.991625 117.490837 
L 211.019417 117.490837 
z
" clip-path="url(#p93fd0922a6)" style="fill: #c5d6fb; stroke: #6b6b6b; stroke-linejoin: miter"/>
   </g>
   <g id="patch_44">
    <path d="M 233.991625 163.839344 
L 256.963833 163.839344 
L 256.963833 146.951997 
L 233.991625 146.951997 
z
" clip-path="url(#p93fd0922a6)" style="fill: #f6c3c2; stroke: #6b6b6b; stroke-linejoin: miter"/>
   </g>
   <g id="patch_45">
    <path d="M 211.019417 117.490837 
L 233.991625 117.490837 
L 233.991625 95.59809 
L 211.019417 95.59809 
z
" clip-path="url(#p93fd0922a6)" style="fill: #c5d6fb; stroke: #6b6b6b; stroke-linejoin: miter"/>
   </g>
   <g id="patch_46">
    <path d="M 233.991625 146.951997 
L 256.963833 146.951997 
L 256.963833 133.891402 
L 233.991625 133.891402 
z
" clip-path="url(#p93fd0922a6)" style="fill: #f6c3c2; stroke: #6b6b6b; stroke-linejoin: miter"/>
   </g>
   <g id="patch_47">
    <path d="M 211.019417 95.59809 
L 233.991625 95.59809 
L 233.991625 85.984416 
L 211.019417 85.984416 
z
" clip-path="url(#p93fd0922a6)" style="fill: #c5d6fb; stroke: #6b6b6b; stroke-linejoin: miter"/>
   </g>
   <g id="patch_48">
    <path d="M 233.991625 133.891402 
L 256.963833 133.891402 
L 256.963833 122.970559 
L 233.991625 122.970559 
z
" clip-path="url(#p93fd0922a6)" style="fill: #f6c3c2; stroke: #6b6b6b; stroke-linejoin: miter"/>
   </g>
   <g id="patch_49">
    <path d="M 211.019417 85.984416 
L 233.991625 85.984416 
L 233.991625 80.216053 
L 211.019417 80.216053 
z
" clip-path="url(#p93fd0922a6)" style="fill: #c5d6fb; stroke: #6b6b6b; stroke-linejoin: miter"/>
   </g>
   <g id="patch_50">
    <path d="M 233.991625 122.970559 
L 256.963833 122.970559 
L 256.963833 117.349644 
L 233.991625 117.349644 
z
" clip-path="url(#p93fd0922a6)" style="fill: #f6c3c2; stroke: #6b6b6b; stroke-linejoin: miter"/>
   </g>
   <g id="patch_51">
    <path d="M 211.019417 80.216053 
L 233.991625 80.216053 
L 233.991625 79.457493 
L 211.019417 79.457493 
z
" clip-path="url(#p93fd0922a6)" style="fill: #c5d6fb; stroke: #6b6b6b; stroke-linejoin: miter"/>
   </g>
   <g id="patch_52">
    <path d="M 233.991625 117.349644 
L 256.963833 117.349644 
L 256.963833 113.448029 
L 233.991625 113.448029 
z
" clip-path="url(#p93fd0922a6)" style="fill: #f6c3c2; stroke: #6b6b6b; stroke-linejoin: miter"/>
   </g>
   <g id="patch_53">
    <path d="M 211.019417 79.457493 
L 233.991625 79.457493 
L 233.991625 78.95205 
L 211.019417 78.95205 
z
" clip-path="url(#p93fd0922a6)" style="fill: #c5d6fb; stroke: #6b6b6b; stroke-linejoin: miter"/>
   </g>
   <g id="patch_54">
    <path d="M 233.991625 113.448029 
L 256.963833 113.448029 
L 256.963833 111.324687 
L 233.991625 111.324687 
z
" clip-path="url(#p93fd0922a6)" style="fill: #f6c3c2; stroke: #6b6b6b; stroke-linejoin: miter"/>
   </g>
   <g id="patch_55">
    <path d="M 211.019417 78.95205 
L 233.991625 78.95205 
L 233.991625 78.952044 
L 211.019417 78.952044 
z
" clip-path="url(#p93fd0922a6)" style="fill: #c5d6fb; stroke: #6b6b6b; stroke-linejoin: miter"/>
   </g>
   <g id="patch_56">
    <path d="M 233.991625 111.324687 
L 256.963833 111.324687 
L 256.963833 111.148182 
L 233.991625 111.148182 
z
" clip-path="url(#p93fd0922a6)" style="fill: #f6c3c2; stroke: #6b6b6b; stroke-linejoin: miter"/>
   </g>
   <g id="patch_57">
    <path d="M 279.936041 213.359062 
L 302.908248 213.359062 
L 302.908248 169.393944 
L 279.936041 169.393944 
z
" clip-path="url(#p93fd0922a6)" style="fill: #c5d6fb; stroke: #6b6b6b; stroke-linejoin: miter"/>
   </g>
   <g id="patch_58">
    <path d="M 302.908248 213.359062 
L 325.880456 213.359062 
L 325.880456 161.747818 
L 302.908248 161.747818 
z
" clip-path="url(#p93fd0922a6)" style="fill: #f6c3c2; stroke: #6b6b6b; stroke-linejoin: miter"/>
   </g>
   <g id="patch_59">
    <path d="M 279.936041 169.393944 
L 302.908248 169.393944 
L 302.908248 125.661132 
L 279.936041 125.661132 
z
" clip-path="url(#p93fd0922a6)" style="fill: #c5d6fb; stroke: #6b6b6b; stroke-linejoin: miter"/>
   </g>
   <g id="patch_60">
    <path d="M 302.908248 161.747818 
L 325.880456 161.747818 
L 325.880456 123.039361 
L 302.908248 123.039361 
z
" clip-path="url(#p93fd0922a6)" style="fill: #f6c3c2; stroke: #6b6b6b; stroke-linejoin: miter"/>
   </g>
   <g id="patch_61">
    <path d="M 279.936041 125.661132 
L 302.908248 125.661132 
L 302.908248 97.943935 
L 279.936041 97.943935 
z
" clip-path="url(#p93fd0922a6)" style="fill: #c5d6fb; stroke: #6b6b6b; stroke-linejoin: miter"/>
   </g>
   <g id="patch_62">
    <path d="M 302.908248 123.039361 
L 325.880456 123.039361 
L 325.880456 96.802902 
L 302.908248 96.802902 
z
" clip-path="url(#p93fd0922a6)" style="fill: #f6c3c2; stroke: #6b6b6b; stroke-linejoin: miter"/>
   </g>
   <g id="patch_63">
    <path d="M 279.936041 97.943935 
L 302.908248 97.943935 
L 302.908248 82.508615 
L 279.936041 82.508615 
z
" clip-path="url(#p93fd0922a6)" style="fill: #c5d6fb; stroke: #6b6b6b; stroke-linejoin: miter"/>
   </g>
   <g id="patch_64">
    <path d="M 302.908248 96.802902 
L 325.880456 96.802902 
L 325.880456 82.743511 
L 302.908248 82.743511 
z
" clip-path="url(#p93fd0922a6)" style="fill: #f6c3c2; stroke: #6b6b6b; stroke-linejoin: miter"/>
   </g>
   <g id="patch_65">
    <path d="M 279.936041 82.508615 
L 302.908248 82.508615 
L 302.908248 68.383445 
L 279.936041 68.383445 
z
" clip-path="url(#p93fd0922a6)" style="fill: #c5d6fb; stroke: #6b6b6b; stroke-linejoin: miter"/>
   </g>
   <g id="patch_66">
    <path d="M 302.908248 82.743511 
L 325.880456 82.743511 
L 325.880456 74.054349 
L 302.908248 74.054349 
z
" clip-path="url(#p93fd0922a6)" style="fill: #f6c3c2; stroke: #6b6b6b; stroke-linejoin: miter"/>
   </g>
   <g id="patch_67">
    <path d="M 279.936041 68.383445 
L 302.908248 68.383445 
L 302.908248 55.138685 
L 279.936041 55.138685 
z
" clip-path="url(#p93fd0922a6)" style="fill: #c5d6fb; stroke: #6b6b6b; stroke-linejoin: miter"/>
   </g>
   <g id="patch_68">
    <path d="M 302.908248 74.054349 
L 325.880456 74.054349 
L 325.880456 66.463684 
L 302.908248 66.463684 
z
" clip-path="url(#p93fd0922a6)" style="fill: #f6c3c2; stroke: #6b6b6b; stroke-linejoin: miter"/>
   </g>
   <g id="patch_69">
    <path d="M 279.936041 55.138685 
L 302.908248 55.138685 
L 302.908248 48.179976 
L 279.936041 48.179976 
z
" clip-path="url(#p93fd0922a6)" style="fill: #c5d6fb; stroke: #6b6b6b; stroke-linejoin: miter"/>
   </g>
   <g id="patch_70">
    <path d="M 302.908248 66.463684 
L 325.880456 66.463684 
L 325.880456 61.121764 
L 302.908248 61.121764 
z
" clip-path="url(#p93fd0922a6)" style="fill: #f6c3c2; stroke: #6b6b6b; stroke-linejoin: miter"/>
   </g>
   <g id="patch_71">
    <path d="M 279.936041 48.179976 
L 302.908248 48.179976 
L 302.908248 41.228644 
L 279.936041 41.228644 
z
" clip-path="url(#p93fd0922a6)" style="fill: #c5d6fb; stroke: #6b6b6b; stroke-linejoin: miter"/>
   </g>
   <g id="patch_72">
    <path d="M 302.908248 61.121764 
L 325.880456 61.121764 
L 325.880456 58.602864 
L 302.908248 58.602864 
z
" clip-path="url(#p93fd0922a6)" style="fill: #f6c3c2; stroke: #6b6b6b; stroke-linejoin: miter"/>
   </g>
   <g id="patch_73">
    <path d="M 279.936041 41.228644 
L 302.908248 41.228644 
L 302.908248 41.228639 
L 279.936041 41.228639 
z
" clip-path="url(#p93fd0922a6)" style="fill: #c5d6fb; stroke: #6b6b6b; stroke-linejoin: miter"/>
   </g>
   <g id="patch_74">
    <path d="M 302.908248 58.602864 
L 325.880456 58.602864 
L 325.880456 56.163431 
L 302.908248 56.163431 
z
" clip-path="url(#p93fd0922a6)" style="fill: #f6c3c2; stroke: #6b6b6b; stroke-linejoin: miter"/>
   </g>
   <g id="patch_75">
    <path d="M 348.852664 213.359062 
L 371.824872 213.359062 
L 371.824872 169.393944 
L 348.852664 169.393944 
z
" clip-path="url(#p93fd0922a6)" style="fill: #c5d6fb; stroke: #6b6b6b; stroke-linejoin: miter"/>
   </g>
   <g id="patch_76">
    <path d="M 371.824872 213.359062 
L 394.79708 213.359062 
L 394.79708 191.487735 
L 371.824872 191.487735 
z
" clip-path="url(#p93fd0922a6)" style="fill: #f6c3c2; stroke: #6b6b6b; stroke-linejoin: miter"/>
   </g>
   <g id="patch_77">
    <path d="M 348.852664 169.393944 
L 371.824872 169.393944 
L 371.824872 106.621245 
L 348.852664 106.621245 
z
" clip-path="url(#p93fd0922a6)" style="fill: #c5d6fb; stroke: #6b6b6b; stroke-linejoin: miter"/>
   </g>
   <g id="patch_78">
    <path d="M 371.824872 191.487735 
L 394.79708 191.487735 
L 394.79708 172.866737 
L 371.824872 172.866737 
z
" clip-path="url(#p93fd0922a6)" style="fill: #f6c3c2; stroke: #6b6b6b; stroke-linejoin: miter"/>
   </g>
   <g id="patch_79">
    <path d="M 348.852664 106.621245 
L 371.824872 106.621245 
L 371.824872 83.572483 
L 348.852664 83.572483 
z
" clip-path="url(#p93fd0922a6)" style="fill: #c5d6fb; stroke: #6b6b6b; stroke-linejoin: miter"/>
   </g>
   <g id="patch_80">
    <path d="M 371.824872 172.866737 
L 394.79708 172.866737 
L 394.79708 155.40219 
L 371.824872 155.40219 
z
" clip-path="url(#p93fd0922a6)" style="fill: #f6c3c2; stroke: #6b6b6b; stroke-linejoin: miter"/>
   </g>
   <g id="patch_81">
    <path d="M 348.852664 83.572483 
L 371.824872 83.572483 
L 371.824872 65.217048 
L 348.852664 65.217048 
z
" clip-path="url(#p93fd0922a6)" style="fill: #c5d6fb; stroke: #6b6b6b; stroke-linejoin: miter"/>
   </g>
   <g id="patch_82">
    <path d="M 371.824872 155.40219 
L 394.79708 155.40219 
L 394.79708 143.3036 
L 371.824872 143.3036 
z
" clip-path="url(#p93fd0922a6)" style="fill: #f6c3c2; stroke: #6b6b6b; stroke-linejoin: miter"/>
   </g>
   <g id="patch_83">
    <path d="M 348.852664 65.217048 
L 371.824872 65.217048 
L 371.824872 56.739069 
L 348.852664 56.739069 
z
" clip-path="url(#p93fd0922a6)" style="fill: #c5d6fb; stroke: #6b6b6b; stroke-linejoin: miter"/>
   </g>
   <g id="patch_84">
    <path d="M 371.824872 143.3036 
L 394.79708 143.3036 
L 394.79708 131.212471 
L 371.824872 131.212471 
z
" clip-path="url(#p93fd0922a6)" style="fill: #f6c3c2; stroke: #6b6b6b; stroke-linejoin: miter"/>
   </g>
   <g id="patch_85">
    <path d="M 348.852664 56.739069 
L 371.824872 56.739069 
L 371.824872 50.262449 
L 348.852664 50.262449 
z
" clip-path="url(#p93fd0922a6)" style="fill: #c5d6fb; stroke: #6b6b6b; stroke-linejoin: miter"/>
   </g>
   <g id="patch_86">
    <path d="M 371.824872 131.212471 
L 394.79708 131.212471 
L 394.79708 126.428898 
L 371.824872 126.428898 
z
" clip-path="url(#p93fd0922a6)" style="fill: #f6c3c2; stroke: #6b6b6b; stroke-linejoin: miter"/>
   </g>
   <g id="patch_87">
    <path d="M 348.852664 50.262449 
L 371.824872 50.262449 
L 371.824872 46.24167 
L 348.852664 46.24167 
z
" clip-path="url(#p93fd0922a6)" style="fill: #c5d6fb; stroke: #6b6b6b; stroke-linejoin: miter"/>
   </g>
   <g id="patch_88">
    <path d="M 371.824872 126.428898 
L 394.79708 126.428898 
L 394.79708 122.566147 
L 371.824872 122.566147 
z
" clip-path="url(#p93fd0922a6)" style="fill: #f6c3c2; stroke: #6b6b6b; stroke-linejoin: miter"/>
   </g>
   <g id="patch_89">
    <path d="M 348.852664 46.24167 
L 371.824872 46.24167 
L 371.824872 45.210119 
L 348.852664 45.210119 
z
" clip-path="url(#p93fd0922a6)" style="fill: #c5d6fb; stroke: #6b6b6b; stroke-linejoin: miter"/>
   </g>
   <g id="patch_90">
    <path d="M 371.824872 122.566147 
L 394.79708 122.566147 
L 394.79708 120.063633 
L 371.824872 120.063633 
z
" clip-path="url(#p93fd0922a6)" style="fill: #f6c3c2; stroke: #6b6b6b; stroke-linejoin: miter"/>
   </g>
   <g id="patch_91">
    <path d="M 348.852664 45.210119 
L 371.824872 45.210119 
L 371.824872 45.210115 
L 348.852664 45.210115 
z
" clip-path="url(#p93fd0922a6)" style="fill: #c5d6fb; stroke: #6b6b6b; stroke-linejoin: miter"/>
   </g>
   <g id="patch_92">
    <path d="M 371.824872 120.063633 
L 394.79708 120.063633 
L 394.79708 118.083875 
L 371.824872 118.083875 
z
" clip-path="url(#p93fd0922a6)" style="fill: #f6c3c2; stroke: #6b6b6b; stroke-linejoin: miter"/>
   </g>
   <g id="patch_93">
    <path d="M 57.105625 213.359062 
L 57.105625 11.759062 
" style="fill: none; stroke: #333333; stroke-width: 2; stroke-linejoin: miter; stroke-linecap: square"/>
   </g>
   <g id="patch_94">
    <path d="M 410.877625 213.359062 
L 410.877625 11.759062 
" style="fill: none; stroke: #333333; stroke-width: 2; stroke-linejoin: miter; stroke-linecap: square"/>
   </g>
   <g id="patch_95">
    <path d="M 57.105625 213.359062 
L 410.877625 213.359062 
" style="fill: none; stroke: #333333; stroke-width: 2; stroke-linejoin: miter; stroke-linecap: square"/>
   </g>
   <g id="text_8">
    <!-- B -->
    <g transform="translate(79.869618 196.247628) scale(0.14 -0.14)">
     <defs>
      <path id="DejaVuSans-42" d="M 1259 2228 
L 1259 519 
L 2272 519 
Q 2781 519 3026 730 
Q 3272 941 3272 1375 
Q 3272 1813 3026 2020 
Q 2781 2228 2272 2228 
L 1259 2228 
z
M 1259 4147 
L 1259 2741 
L 2194 2741 
Q 2656 2741 2882 2914 
Q 3109 3088 3109 3444 
Q 3109 3797 2882 3972 
Q 2656 4147 2194 4147 
L 1259 4147 
z
M 628 4666 
L 2241 4666 
Q 2963 4666 3353 4366 
Q 3744 4066 3744 3513 
Q 3744 3084 3544 2831 
Q 3344 2578 2956 2516 
Q 3422 2416 3680 2098 
Q 3938 1781 3938 1306 
Q 3938 681 3513 340 
Q 3088 0 2303 0 
L 628 0 
L 628 4666 
z
" transform="scale(0.015625)"/>
     </defs>
     <use xlink:href="#DejaVuSans-42"/>
    </g>
   </g>
   <g id="text_9">
    <!-- 8 -->
    <g transform="translate(103.190732 182.289968) scale(0.14 -0.14)">
     <use xlink:href="#DejaVuSans-38"/>
    </g>
   </g>
   <g id="text_10">
    <!-- 1 -->
    <g transform="translate(80.218524 157.623444) scale(0.14 -0.14)">
     <use xlink:href="#DejaVuSans-31"/>
    </g>
   </g>
   <g id="text_11">
    <!-- 7 -->
    <g transform="translate(103.190732 132.549208) scale(0.14 -0.14)">
     <defs>
      <path id="DejaVuSans-37" d="M 525 4666 
L 3525 4666 
L 3525 4397 
L 1831 0 
L 1172 0 
L 2766 4134 
L 525 4134 
L 525 4666 
z
" transform="scale(0.015625)"/>
     </defs>
     <use xlink:href="#DejaVuSans-37"/>
    </g>
   </g>
   <g id="text_12">
    <!-- 3 -->
    <g transform="translate(80.218524 128.006488) scale(0.14 -0.14)">
     <defs>
      <path id="DejaVuSans-33" d="M 2597 2516 
Q 3050 2419 3304 2112 
Q 3559 1806 3559 1356 
Q 3559 666 3084 287 
Q 2609 -91 1734 -91 
Q 1441 -91 1130 -33 
Q 819 25 488 141 
L 488 750 
Q 750 597 1062 519 
Q 1375 441 1716 441 
Q 2309 441 2620 675 
Q 2931 909 2931 1356 
Q 2931 1769 2642 2001 
Q 2353 2234 1838 2234 
L 1294 2234 
L 1294 2753 
L 1863 2753 
Q 2328 2753 2575 2939 
Q 2822 3125 2822 3475 
Q 2822 3834 2567 4026 
Q 2313 4219 1838 4219 
Q 1578 4219 1281 4162 
Q 984 4106 628 3988 
L 628 4550 
Q 988 4650 1302 4700 
Q 1616 4750 1894 4750 
Q 2613 4750 3031 4423 
Q 3450 4097 3450 3541 
Q 3450 3153 3228 2886 
Q 3006 2619 2597 2516 
z
" transform="scale(0.015625)"/>
     </defs>
     <use xlink:href="#DejaVuSans-33"/>
    </g>
   </g>
   <g id="text_13">
    <!-- S -->
    <g transform="translate(103.200576 106.566412) scale(0.14 -0.14)">
     <use xlink:href="#DejaVuSans-53"/>
    </g>
   </g>
   <g id="text_14">
    <!-- 2 -->
    <g transform="translate(80.218524 104.329513) scale(0.14 -0.14)">
     <use xlink:href="#DejaVuSans-32"/>
    </g>
   </g>
   <g id="text_15">
    <!-- 9 -->
    <g transform="translate(103.190732 83.981395) scale(0.14 -0.14)">
     <defs>
      <path id="DejaVuSans-39" d="M 703 97 
L 703 672 
Q 941 559 1184 500 
Q 1428 441 1663 441 
Q 2288 441 2617 861 
Q 2947 1281 2994 2138 
Q 2813 1869 2534 1725 
Q 2256 1581 1919 1581 
Q 1219 1581 811 2004 
Q 403 2428 403 3163 
Q 403 3881 828 4315 
Q 1253 4750 1959 4750 
Q 2769 4750 3195 4129 
Q 3622 3509 3622 2328 
Q 3622 1225 3098 567 
Q 2575 -91 1691 -91 
Q 1453 -91 1209 -44 
Q 966 3 703 97 
z
M 1959 2075 
Q 2384 2075 2632 2365 
Q 2881 2656 2881 3163 
Q 2881 3666 2632 3958 
Q 2384 4250 1959 4250 
Q 1534 4250 1286 3958 
Q 1038 3666 1038 3163 
Q 1038 2656 1286 2365 
Q 1534 2075 1959 2075 
z
" transform="scale(0.015625)"/>
     </defs>
     <use xlink:href="#DejaVuSans-39"/>
    </g>
   </g>
   <g id="text_16">
    <!-- 4 -->
    <g transform="translate(80.218524 86.123789) scale(0.14 -0.14)">
     <use xlink:href="#DejaVuSans-34"/>
    </g>
   </g>
   <g id="text_17">
    <!--   -->
    <g transform="translate(105.419795 63.620608) scale(0.14 -0.14)">
     <use xlink:href="#DejaVuSans-20"/>
    </g>
   </g>
   <g id="text_18">
    <!-- B -->
    <g transform="translate(148.786241 196.247628) scale(0.14 -0.14)">
     <use xlink:href="#DejaVuSans-42"/>
    </g>
   </g>
   <g id="text_19">
    <!-- 7 -->
    <g transform="translate(172.107356 189.507129) scale(0.14 -0.14)">
     <use xlink:href="#DejaVuSans-37"/>
    </g>
   </g>
   <g id="text_20">
    <!-- 1 -->
    <g transform="translate(149.135148 157.085975) scale(0.14 -0.14)">
     <use xlink:href="#DejaVuSans-31"/>
    </g>
   </g>
   <g id="text_21">
    <!-- 9 -->
    <g transform="translate(172.107356 145.620562) scale(0.14 -0.14)">
     <use xlink:href="#DejaVuSans-39"/>
    </g>
   </g>
   <g id="text_22">
    <!-- 3 -->
    <g transform="translate(149.135148 127.024803) scale(0.14 -0.14)">
     <use xlink:href="#DejaVuSans-33"/>
    </g>
   </g>
   <g id="text_23">
    <!-- 8 -->
    <g transform="translate(172.107356 119.728927) scale(0.14 -0.14)">
     <use xlink:href="#DejaVuSans-38"/>
    </g>
   </g>
   <g id="text_24">
    <!-- B -->
    <g transform="translate(217.702865 196.247628) scale(0.14 -0.14)">
     <use xlink:href="#DejaVuSans-42"/>
    </g>
   </g>
   <g id="text_25">
    <!-- 7 -->
    <g transform="translate(241.023979 205.441228) scale(0.14 -0.14)">
     <use xlink:href="#DejaVuSans-37"/>
    </g>
   </g>
   <g id="text_26">
    <!-- 2 -->
    <g transform="translate(218.051771 160.067769) scale(0.14 -0.14)">
     <use xlink:href="#DejaVuSans-32"/>
    </g>
   </g>
   <g id="text_27">
    <!-- 9 -->
    <g transform="translate(241.023979 180.681368) scale(0.14 -0.14)">
     <use xlink:href="#DejaVuSans-39"/>
    </g>
   </g>
   <g id="text_28">
    <!-- 1 -->
    <g transform="translate(218.051771 134.116215) scale(0.14 -0.14)">
     <use xlink:href="#DejaVuSans-31"/>
    </g>
   </g>
   <g id="text_29">
    <!-- 8 -->
    <g transform="translate(241.023979 160.266796) scale(0.14 -0.14)">
     <use xlink:href="#DejaVuSans-38"/>
    </g>
   </g>
   <g id="text_30">
    <!-- 3 -->
    <g transform="translate(218.051771 111.415588) scale(0.14 -0.14)">
     <use xlink:href="#DejaVuSans-33"/>
    </g>
   </g>
   <g id="text_31">
    <!-- B -->
    <g transform="translate(286.619488 196.247628) scale(0.14 -0.14)">
     <use xlink:href="#DejaVuSans-42"/>
    </g>
   </g>
   <g id="text_32">
    <!-- P -->
    <g transform="translate(310.173571 192.424565) scale(0.14 -0.14)">
     <defs>
      <path id="DejaVuSans-50" d="M 1259 4147 
L 1259 2394 
L 2053 2394 
Q 2494 2394 2734 2622 
Q 2975 2850 2975 3272 
Q 2975 3691 2734 3919 
Q 2494 4147 2053 4147 
L 1259 4147 
z
M 628 4666 
L 2053 4666 
Q 2838 4666 3239 4311 
Q 3641 3956 3641 3272 
Q 3641 2581 3239 2228 
Q 2838 1875 2053 1875 
L 1259 1875 
L 1259 0 
L 628 0 
L 628 4666 
z
" transform="scale(0.015625)"/>
     </defs>
     <use xlink:href="#DejaVuSans-50"/>
    </g>
   </g>
   <g id="text_33">
    <!-- 1 -->
    <g transform="translate(286.968394 152.398663) scale(0.14 -0.14)">
     <use xlink:href="#DejaVuSans-31"/>
    </g>
   </g>
   <g id="text_34">
    <!-- 9 -->
    <g transform="translate(309.940602 147.264714) scale(0.14 -0.14)">
     <use xlink:href="#DejaVuSans-39"/>
    </g>
   </g>
   <g id="text_35">
    <!-- 2 -->
    <g transform="translate(286.968394 116.673659) scale(0.14 -0.14)">
     <use xlink:href="#DejaVuSans-32"/>
    </g>
   </g>
   <g id="text_36">
    <!-- 7 -->
    <g transform="translate(309.940602 114.792256) scale(0.14 -0.14)">
     <use xlink:href="#DejaVuSans-37"/>
    </g>
   </g>
   <g id="text_37">
    <!-- 5 -->
    <g transform="translate(286.968394 95.0974) scale(0.14 -0.14)">
     <defs>
      <path id="DejaVuSans-35" d="M 691 4666 
L 3169 4666 
L 3169 4134 
L 1269 4134 
L 1269 2991 
Q 1406 3038 1543 3061 
Q 1681 3084 1819 3084 
Q 2600 3084 3056 2656 
Q 3513 2228 3513 1497 
Q 3513 744 3044 326 
Q 2575 -91 1722 -91 
Q 1428 -91 1123 -41 
Q 819 9 494 109 
L 494 744 
Q 775 591 1075 516 
Q 1375 441 1709 441 
Q 2250 441 2565 725 
Q 2881 1009 2881 1497 
Q 2881 1984 2565 2268 
Q 2250 2553 1709 2553 
Q 1456 2553 1204 2497 
Q 953 2441 691 2322 
L 691 4666 
z
" transform="scale(0.015625)"/>
     </defs>
     <use xlink:href="#DejaVuSans-35"/>
    </g>
   </g>
   <g id="text_38">
    <!-- 6 -->
    <g transform="translate(286.968394 80.317155) scale(0.14 -0.14)">
     <use xlink:href="#DejaVuSans-36"/>
    </g>
   </g>
   <g id="text_39">
    <!-- B -->
    <g transform="translate(355.536112 196.247628) scale(0.14 -0.14)">
     <use xlink:href="#DejaVuSans-42"/>
    </g>
   </g>
   <g id="text_40">
    <!-- 8 -->
    <g transform="translate(378.857226 207.294524) scale(0.14 -0.14)">
     <use xlink:href="#DejaVuSans-38"/>
    </g>
   </g>
   <g id="text_41">
    <!-- 1 -->
    <g transform="translate(355.885018 142.87872) scale(0.14 -0.14)">
     <use xlink:href="#DejaVuSans-31"/>
    </g>
   </g>
   <g id="text_42">
    <!-- 10 -->
    <g transform="translate(374.403476 187.048361) scale(0.14 -0.14)">
     <use xlink:href="#DejaVuSans-31"/>
     <use xlink:href="#DejaVuSans-30" x="63.623047"/>
    </g>
   </g>
   <g id="text_43">
    <!-- 2 -->
    <g transform="translate(355.885018 99.967989) scale(0.14 -0.14)">
     <use xlink:href="#DejaVuSans-32"/>
    </g>
   </g>
   <g id="text_44">
    <!-- P -->
    <g transform="translate(379.090194 169.005589) scale(0.14 -0.14)">
     <use xlink:href="#DejaVuSans-50"/>
    </g>
   </g>
   <g id="text_45">
    <!-- 3 -->
    <g transform="translate(355.885018 79.265891) scale(0.14 -0.14)">
     <use xlink:href="#DejaVuSans-33"/>
    </g>
   </g>
  </g>
  <g id="axes_2">
   <g id="patch_96">
    <path d="M 57.105625 344.399062 
L 410.877625 344.399062 
L 410.877625 243.599062 
L 57.105625 243.599062 
L 57.105625 344.399062 
z
" style="fill: none"/>
   </g>
   <g id="matplotlib.axis_3">
    <g id="xtick_6">
     <g id="line2d_18">
      <defs>
       <path id="mf4b9963ef4" d="M 0 0 
L 0 3.5 
" style="stroke: #000000; stroke-width: 0.8"/>
      </defs>
      <g>
       <use xlink:href="#mf4b9963ef4" x="96.158378" y="344.399062" style="stroke: #000000; stroke-width: 0.8"/>
      </g>
     </g>
     <g id="text_46">
      <!-- V1 -->
      <g transform="translate(88.236503 360.517187) scale(0.12 -0.12)">
       <defs>
        <path id="DejaVuSans-56" d="M 1831 0 
L 50 4666 
L 709 4666 
L 2188 738 
L 3669 4666 
L 4325 4666 
L 2547 0 
L 1831 0 
z
" transform="scale(0.015625)"/>
       </defs>
       <use xlink:href="#DejaVuSans-56"/>
       <use xlink:href="#DejaVuSans-31" x="68.408203"/>
      </g>
     </g>
    </g>
    <g id="xtick_7">
     <g id="line2d_19">
      <g>
       <use xlink:href="#mf4b9963ef4" x="165.075002" y="344.399062" style="stroke: #000000; stroke-width: 0.8"/>
      </g>
     </g>
     <g id="text_47">
      <!-- V2 -->
      <g transform="translate(157.153127 360.517187) scale(0.12 -0.12)">
       <use xlink:href="#DejaVuSans-56"/>
       <use xlink:href="#DejaVuSans-32" x="68.408203"/>
      </g>
     </g>
    </g>
    <g id="xtick_8">
     <g id="line2d_20">
      <g>
       <use xlink:href="#mf4b9963ef4" x="233.991625" y="344.399062" style="stroke: #000000; stroke-width: 0.8"/>
      </g>
     </g>
     <g id="text_48">
      <!-- V3 -->
      <g transform="translate(226.06975 360.517187) scale(0.12 -0.12)">
       <use xlink:href="#DejaVuSans-56"/>
       <use xlink:href="#DejaVuSans-33" x="68.408203"/>
      </g>
     </g>
    </g>
    <g id="xtick_9">
     <g id="line2d_21">
      <g>
       <use xlink:href="#mf4b9963ef4" x="302.908248" y="344.399062" style="stroke: #000000; stroke-width: 0.8"/>
      </g>
     </g>
     <g id="text_49">
      <!-- V4 -->
      <g transform="translate(294.986373 360.517187) scale(0.12 -0.12)">
       <use xlink:href="#DejaVuSans-56"/>
       <use xlink:href="#DejaVuSans-34" x="68.408203"/>
      </g>
     </g>
    </g>
    <g id="xtick_10">
     <g id="line2d_22">
      <g>
       <use xlink:href="#mf4b9963ef4" x="371.824872" y="344.399062" style="stroke: #000000; stroke-width: 0.8"/>
      </g>
     </g>
     <g id="text_50">
      <!-- V5 -->
      <g transform="translate(363.902997 360.517187) scale(0.12 -0.12)">
       <use xlink:href="#DejaVuSans-56"/>
       <use xlink:href="#DejaVuSans-35" x="68.408203"/>
      </g>
     </g>
    </g>
   </g>
   <g id="matplotlib.axis_4">
    <g id="ytick_7">
     <g id="line2d_23">
      <path d="M 57.105625 344.399062 
L 410.877625 344.399062 
" clip-path="url(#p5a7c9db76d)" style="fill: none; stroke: #b0b0b0; stroke-width: 0.8; stroke-linecap: round"/>
     </g>
     <g id="line2d_24">
      <g>
       <use xlink:href="#m9153cf7e48" x="57.105625" y="344.399062" style="stroke: #000000; stroke-width: 0.8"/>
      </g>
     </g>
     <g id="text_51">
      <!-- −20 -->
      <g transform="translate(24.78 348.958125) scale(0.12 -0.12)">
       <defs>
        <path id="DejaVuSans-2212" d="M 678 2272 
L 4684 2272 
L 4684 1741 
L 678 1741 
L 678 2272 
z
" transform="scale(0.015625)"/>
       </defs>
       <use xlink:href="#DejaVuSans-2212"/>
       <use xlink:href="#DejaVuSans-32" x="83.789062"/>
       <use xlink:href="#DejaVuSans-30" x="147.412109"/>
      </g>
     </g>
    </g>
    <g id="ytick_8">
     <g id="line2d_25">
      <path d="M 57.105625 310.799062 
L 410.877625 310.799062 
" clip-path="url(#p5a7c9db76d)" style="fill: none; stroke: #b0b0b0; stroke-width: 0.8; stroke-linecap: round"/>
     </g>
     <g id="line2d_26">
      <g>
       <use xlink:href="#m9153cf7e48" x="57.105625" y="310.799062" style="stroke: #000000; stroke-width: 0.8"/>
      </g>
     </g>
     <g id="text_52">
      <!-- 0 -->
      <g transform="translate(42.470625 315.358125) scale(0.12 -0.12)">
       <use xlink:href="#DejaVuSans-30"/>
      </g>
     </g>
    </g>
    <g id="ytick_9">
     <g id="line2d_27">
      <path d="M 57.105625 277.199062 
L 410.877625 277.199062 
" clip-path="url(#p5a7c9db76d)" style="fill: none; stroke: #b0b0b0; stroke-width: 0.8; stroke-linecap: round"/>
     </g>
     <g id="line2d_28">
      <g>
       <use xlink:href="#m9153cf7e48" x="57.105625" y="277.199062" style="stroke: #000000; stroke-width: 0.8"/>
      </g>
     </g>
     <g id="text_53">
      <!-- 20 -->
      <g transform="translate(34.835625 281.758125) scale(0.12 -0.12)">
       <use xlink:href="#DejaVuSans-32"/>
       <use xlink:href="#DejaVuSans-30" x="63.623047"/>
      </g>
     </g>
    </g>
    <g id="ytick_10">
     <g id="line2d_29">
      <path d="M 57.105625 243.599062 
L 410.877625 243.599062 
" clip-path="url(#p5a7c9db76d)" style="fill: none; stroke: #b0b0b0; stroke-width: 0.8; stroke-linecap: round"/>
     </g>
     <g id="line2d_30">
      <g>
       <use xlink:href="#m9153cf7e48" x="57.105625" y="243.599062" style="stroke: #000000; stroke-width: 0.8"/>
      </g>
     </g>
     <g id="text_54">
      <!-- 40 -->
      <g transform="translate(34.835625 248.158125) scale(0.12 -0.12)">
       <use xlink:href="#DejaVuSans-34"/>
       <use xlink:href="#DejaVuSans-30" x="63.623047"/>
      </g>
     </g>
    </g>
    <g id="text_55">
     <!-- $\Delta$ Strength (a.u.) -->
     <g transform="translate(17.84 352.379062) rotate(-90) scale(0.14 -0.14)">
      <defs>
       <path id="DejaVuSans-394" d="M 2188 4044 
L 906 525 
L 3472 525 
L 2188 4044 
z
M 50 0 
L 1831 4666 
L 2547 4666 
L 4325 0 
L 50 0 
z
" transform="scale(0.015625)"/>
      </defs>
      <use xlink:href="#DejaVuSans-394" transform="translate(0 0.015625)"/>
      <use xlink:href="#DejaVuSans-20" transform="translate(68.408203 0.015625)"/>
      <use xlink:href="#DejaVuSans-53" transform="translate(100.195312 0.015625)"/>
      <use xlink:href="#DejaVuSans-74" transform="translate(163.671875 0.015625)"/>
      <use xlink:href="#DejaVuSans-72" transform="translate(202.880859 0.015625)"/>
      <use xlink:href="#DejaVuSans-65" transform="translate(243.994141 0.015625)"/>
      <use xlink:href="#DejaVuSans-6e" transform="translate(305.517578 0.015625)"/>
      <use xlink:href="#DejaVuSans-67" transform="translate(368.896484 0.015625)"/>
      <use xlink:href="#DejaVuSans-74" transform="translate(432.373047 0.015625)"/>
      <use xlink:href="#DejaVuSans-68" transform="translate(471.582031 0.015625)"/>
      <use xlink:href="#DejaVuSans-20" transform="translate(534.960938 0.015625)"/>
      <use xlink:href="#DejaVuSans-28" transform="translate(566.748047 0.015625)"/>
      <use xlink:href="#DejaVuSans-61" transform="translate(605.761719 0.015625)"/>
      <use xlink:href="#DejaVuSans-2e" transform="translate(667.041016 0.015625)"/>
      <use xlink:href="#DejaVuSans-75" transform="translate(698.828125 0.015625)"/>
      <use xlink:href="#DejaVuSans-2e" transform="translate(762.207031 0.015625)"/>
      <use xlink:href="#DejaVuSans-29" transform="translate(793.994141 0.015625)"/>
     </g>
    </g>
   </g>
   <g id="patch_97">
    <path d="M 73.18617 310.799062 
L 119.130586 310.799062 
L 119.130586 338.069071 
L 73.18617 338.069071 
z
" clip-path="url(#p5a7c9db76d)" style="fill: #dad7cd; stroke: #6b6b6b; stroke-linejoin: miter"/>
   </g>
   <g id="patch_98">
    <path d="M 142.102794 310.799062 
L 188.047209 310.799062 
L 188.047209 319.295446 
L 142.102794 319.295446 
z
" clip-path="url(#p5a7c9db76d)" style="fill: #dad7cd; stroke: #6b6b6b; stroke-linejoin: miter"/>
   </g>
   <g id="patch_99">
    <path d="M 211.019417 310.799062 
L 256.963833 310.799062 
L 256.963833 283.968951 
L 211.019417 283.968951 
z
" clip-path="url(#p5a7c9db76d)" style="fill: #dad7cd; stroke: #6b6b6b; stroke-linejoin: miter"/>
   </g>
   <g id="patch_100">
    <path d="M 279.936041 310.799062 
L 325.880456 310.799062 
L 325.880456 298.353407 
L 279.936041 298.353407 
z
" clip-path="url(#p5a7c9db76d)" style="fill: #dad7cd; stroke: #6b6b6b; stroke-linejoin: miter"/>
   </g>
   <g id="patch_101">
    <path d="M 348.852664 310.799062 
L 394.79708 310.799062 
L 394.79708 250.070932 
L 348.852664 250.070932 
z
" clip-path="url(#p5a7c9db76d)" style="fill: #dad7cd; stroke: #6b6b6b; stroke-linejoin: miter"/>
   </g>
   <g id="patch_102">
    <path d="M 57.105625 344.399062 
L 57.105625 243.599062 
" style="fill: none; stroke: #333333; stroke-width: 2; stroke-linejoin: miter; stroke-linecap: square"/>
   </g>
   <g id="patch_103">
    <path d="M 410.877625 344.399062 
L 410.877625 243.599062 
" style="fill: none; stroke: #333333; stroke-width: 2; stroke-linejoin: miter; stroke-linecap: square"/>
   </g>
   <g id="patch_104">
    <path d="M 57.105625 344.399062 
L 410.877625 344.399062 
" style="fill: none; stroke: #333333; stroke-width: 2; stroke-linejoin: miter; stroke-linecap: square"/>
   </g>
   <g id="LineCollection_1">
    <path d="M 57.105625 310.799062 
L 410.877625 310.799062 
" clip-path="url(#p5a7c9db76d)" style="fill: none; stroke: #000000"/>
   </g>
  </g>
  <g id="axes_3">
   <g id="matplotlib.axis_5">
    <g id="ytick_11">
     <g id="line2d_31">
      <defs>
       <path id="m366e658986" d="M 0 0 
L 3.5 0 
" style="stroke: #000000; stroke-width: 0.8"/>
      </defs>
      <g>
       <use xlink:href="#m366e658986" x="410.877625" y="339.858993" style="stroke: #000000; stroke-width: 0.8"/>
      </g>
     </g>
     <g id="text_56">
      <!-- 0.1 -->
      <g transform="translate(417.877625 345.1779) scale(0.14 -0.14)">
       <use xlink:href="#DejaVuSans-30"/>
       <use xlink:href="#DejaVuSans-2e" x="63.623047"/>
       <use xlink:href="#DejaVuSans-31" x="95.410156"/>
      </g>
     </g>
    </g>
    <g id="ytick_12">
     <g id="line2d_32">
      <g>
       <use xlink:href="#m366e658986" x="410.877625" y="323.343836" style="stroke: #000000; stroke-width: 0.8"/>
      </g>
     </g>
     <g id="text_57">
      <!-- 0.3 -->
      <g transform="translate(417.877625 328.662742) scale(0.14 -0.14)">
       <use xlink:href="#DejaVuSans-30"/>
       <use xlink:href="#DejaVuSans-2e" x="63.623047"/>
       <use xlink:href="#DejaVuSans-33" x="95.410156"/>
      </g>
     </g>
    </g>
    <g id="ytick_13">
     <g id="line2d_33">
      <g>
       <use xlink:href="#m366e658986" x="410.877625" y="298.254626" style="stroke: #000000; stroke-width: 0.8"/>
      </g>
     </g>
     <g id="text_58">
      <!-- 0.7 -->
      <g transform="translate(417.877625 303.573532) scale(0.14 -0.14)">
       <use xlink:href="#DejaVuSans-30"/>
       <use xlink:href="#DejaVuSans-2e" x="63.623047"/>
       <use xlink:href="#DejaVuSans-37" x="95.410156"/>
      </g>
     </g>
    </g>
    <g id="ytick_14">
     <g id="line2d_34">
      <g>
       <use xlink:href="#m366e658986" x="410.877625" y="275.700228" style="stroke: #000000; stroke-width: 0.8"/>
      </g>
     </g>
     <g id="text_59">
      <!-- 0.9 -->
      <g transform="translate(417.877625 281.019134) scale(0.14 -0.14)">
       <use xlink:href="#DejaVuSans-30"/>
       <use xlink:href="#DejaVuSans-2e" x="63.623047"/>
       <use xlink:href="#DejaVuSans-39" x="95.410156"/>
      </g>
     </g>
    </g>
    <g id="text_60">
     <!-- Predicted PSI -->
     <g transform="translate(454.779813 339.811875) rotate(-90) scale(0.14 -0.14)">
      <defs>
       <path id="DejaVuSans-64" d="M 2906 2969 
L 2906 4863 
L 3481 4863 
L 3481 0 
L 2906 0 
L 2906 525 
Q 2725 213 2448 61 
Q 2172 -91 1784 -91 
Q 1150 -91 751 415 
Q 353 922 353 1747 
Q 353 2572 751 3078 
Q 1150 3584 1784 3584 
Q 2172 3584 2448 3432 
Q 2725 3281 2906 2969 
z
M 947 1747 
Q 947 1113 1208 752 
Q 1469 391 1925 391 
Q 2381 391 2643 752 
Q 2906 1113 2906 1747 
Q 2906 2381 2643 2742 
Q 2381 3103 1925 3103 
Q 1469 3103 1208 2742 
Q 947 2381 947 1747 
z
" transform="scale(0.015625)"/>
       <path id="DejaVuSans-69" d="M 603 3500 
L 1178 3500 
L 1178 0 
L 603 0 
L 603 3500 
z
M 603 4863 
L 1178 4863 
L 1178 4134 
L 603 4134 
L 603 4863 
z
" transform="scale(0.015625)"/>
       <path id="DejaVuSans-63" d="M 3122 3366 
L 3122 2828 
Q 2878 2963 2633 3030 
Q 2388 3097 2138 3097 
Q 1578 3097 1268 2742 
Q 959 2388 959 1747 
Q 959 1106 1268 751 
Q 1578 397 2138 397 
Q 2388 397 2633 464 
Q 2878 531 3122 666 
L 3122 134 
Q 2881 22 2623 -34 
Q 2366 -91 2075 -91 
Q 1284 -91 818 406 
Q 353 903 353 1747 
Q 353 2603 823 3093 
Q 1294 3584 2113 3584 
Q 2378 3584 2631 3529 
Q 2884 3475 3122 3366 
z
" transform="scale(0.015625)"/>
       <path id="DejaVuSans-49" d="M 628 4666 
L 1259 4666 
L 1259 0 
L 628 0 
L 628 4666 
z
" transform="scale(0.015625)"/>
      </defs>
      <use xlink:href="#DejaVuSans-50"/>
      <use xlink:href="#DejaVuSans-72" x="58.552734"/>
      <use xlink:href="#DejaVuSans-65" x="97.416016"/>
      <use xlink:href="#DejaVuSans-64" x="158.939453"/>
      <use xlink:href="#DejaVuSans-69" x="222.416016"/>
      <use xlink:href="#DejaVuSans-63" x="250.199219"/>
      <use xlink:href="#DejaVuSans-74" x="305.179688"/>
      <use xlink:href="#DejaVuSans-65" x="344.388672"/>
      <use xlink:href="#DejaVuSans-64" x="405.912109"/>
      <use xlink:href="#DejaVuSans-20" x="469.388672"/>
      <use xlink:href="#DejaVuSans-50" x="501.175781"/>
      <use xlink:href="#DejaVuSans-53" x="561.478516"/>
      <use xlink:href="#DejaVuSans-49" x="624.955078"/>
     </g>
    </g>
   </g>
   <g id="patch_105">
    <path d="M 57.105625 344.399062 
L 57.105625 243.599062 
" style="fill: none; stroke: #333333; stroke-width: 2; stroke-linejoin: miter; stroke-linecap: square"/>
   </g>
   <g id="patch_106">
    <path d="M 57.105625 344.399062 
L 410.877625 344.399062 
" style="fill: none; stroke: #333333; stroke-width: 2; stroke-linejoin: miter; stroke-linecap: square"/>
   </g>
  </g>
 </g>
 <defs>
  <clipPath id="p93fd0922a6">
   <rect x="57.105625" y="11.759062" width="353.772" height="201.6"/>
  </clipPath>
  <clipPath id="p5a7c9db76d">
   <rect x="57.105625" y="243.599062" width="353.772" height="100.8"/>
  </clipPath>
 </defs>
</svg>
